<svg xmlns="http://www.w3.org/2000/svg" width="16" height="18" viewBox="0 0 16 18">
  <defs>
    <style>
      .cls-1 {
        fill: #e2e2e2;
      }
    </style>
  </defs>
  <path id="icon_123" class="cls-1" d="M14.868-5H1.132A1.136,1.136,0,0,0,0-3.868V11.868A1.135,1.135,0,0,0,1.132,13H14.868A1.136,1.136,0,0,0,16,11.868V-3.868A1.136,1.136,0,0,0,14.868-5ZM3.955,6.037a.464.464,0,0,1-.521.494.465.465,0,0,1-.522-.494V2.495H2.5A.47.47,0,0,1,2.007,2,.461.461,0,0,1,2.5,1.534h.988a.461.461,0,0,1,.467.494V6.035Zm4.776.494h-2.4A.445.445,0,0,1,5.8,6.057a.642.642,0,0,1,.139-.363q.139-.166.447-.5A15.647,15.647,0,0,0,7.728,3.575a1.2,1.2,0,0,0,.248-.668.554.554,0,0,0-.5-.561.705.705,0,0,0-.641.615.591.591,0,0,1-.473.53.49.49,0,0,1-.527-.5A1.693,1.693,0,0,1,7.5,1.372,1.462,1.462,0,0,1,9.1,2.849a4.168,4.168,0,0,1-1.258,2.2c-.205.24-.352.419-.445.53H8.674a.46.46,0,0,1,.561.474.451.451,0,0,1-.5.476Zm3.525-.016a1.583,1.583,0,0,1-1.717-1.273A.541.541,0,0,1,11.1,4.77a.589.589,0,0,1,.415.333.875.875,0,0,0,.747.5.664.664,0,0,0,.665-.665.561.561,0,0,0-.637-.608.546.546,0,0,1-.554-.5.543.543,0,0,1,.5-.5.529.529,0,0,0,.5-.526.463.463,0,0,0-.5-.47.739.739,0,0,0-.637.387.589.589,0,0,1-.443.3A.468.468,0,0,1,10.71,2.5a1.478,1.478,0,0,1,1.522-1.135,1.429,1.429,0,0,1,1.522,1.3,1.229,1.229,0,0,1-.58,1.08,1.384,1.384,0,0,1,.858,1.245,1.633,1.633,0,0,1-1.77,1.523Zm0,0" transform="translate(0 5)"/>
</svg>
