<?xml version="1.0" encoding="UTF-8"?>
<svg width="20px" height="20px" viewBox="0 0 20 20" version="1.1" xmlns="http://www.w3.org/2000/svg" xmlns:xlink="http://www.w3.org/1999/xlink">
    <!-- Generator: Sketch 59.1 (86144) - https://sketch.com -->
    <title>icon_add_n</title>
    <desc>Created with Sketch.</desc>
    <defs>
        <path d="M45.25136,155.139016 L1874.02736,155.139016 C1876.3476,155.139016 1878.22808,157.05414 1878.22808,159.417048 L1878.22808,1038.64985 C1878.22808,1041.01187 1876.3476,1042.92788 1874.02736,1042.92788 L45.25136,1042.92788 C42.93112,1042.92788 41.05064,1041.01187 41.05064,1038.64985 L41.05064,159.417048 C41.05064,157.05414 42.93112,155.139016 45.25136,155.139016 Z" id="path-1"></path>
        <filter x="-1.2%" y="-2.3%" width="102.3%" height="104.6%" filterUnits="objectBoundingBox" id="filter-2">
            <feOffset dx="0" dy="0" in="SourceAlpha" result="shadowOffsetOuter1"></feOffset>
            <feGaussianBlur stdDeviation="7.5" in="shadowOffsetOuter1" result="shadowBlurOuter1"></feGaussianBlur>
            <feColorMatrix values="0 0 0 0 0.88235295   0 0 0 0 0.88235295   0 0 0 0 0.88235295  0 0 0 0.8 0" type="matrix" in="shadowBlurOuter1"></feColorMatrix>
        </filter>
        <polygon id="path-3" points="0.00146341463 0.0195121951 19.9804634 0.0195121951 19.9804634 19.9999756 0.00146341463 19.9999756"></polygon>
        <polygon id="path-5" points="0.00146341463 0.0195121951 19.9804634 0.0195121951 19.9804634 19.9999756 0.00146341463 19.9999756"></polygon>
        <polygon id="path-7" points="0.00146341463 0.0195121951 19.9804634 0.0195121951 19.9804634 19.9999756 0.00146341463 19.9999756"></polygon>
    </defs>
    <g id="管理门户" stroke="none" stroke-width="1" fill="none" fill-rule="evenodd">
        <g id="03正式竞赛端-赛位管理-修改赛位2" transform="translate(-1110.000000, -484.000000)">
            <rect fill="#F1F3F4" x="0" y="0" width="1920" height="1080"></rect>
            <rect id="矩形" fill="#F1F3F4" x="0" y="75" width="1851" height="1005"></rect>
            <g id="白底">
                <use fill="black" fill-opacity="1" filter="url(#filter-2)" xlink:href="#path-1"></use>
                <use fill="#FFFFFF" fill-rule="evenodd" xlink:href="#path-1"></use>
            </g>
            <g id="分割线" transform="translate(70.000000, 316.000000)"></g>
            <g id="表格内容" transform="translate(90.000000, 256.000000)">
                <g id="操作" transform="translate(0.000000, 22.000000)"></g>
            </g>
            <g id="修改赛位">
                <path d="M0.500463177,0.5 L1.49953725,1079.5 L1920.5,1079.5 L1920.5,0.5 L0.500463177,0.5 Z" id="遮罩" stroke="#979797" fill-opacity="0.2" fill="#000000"></path>
                <g id="编组-3" transform="translate(760.000000, 262.000000)">
                    <g id="编组-2">
                        <rect id="矩形" fill="#FFFFFF" x="0" y="0.8275" width="400" height="517" rx="6"></rect>
                        <g id="编组-5" transform="translate(0.000000, 174.000000)">
                            <rect id="矩形" fill="#F1F4FC" opacity="0.689429874" x="0" y="0" width="400" height="193"></rect>
                            <g id="列表/输入框" transform="translate(20.000000, 9.000000)">
                                <g>
                                    <text id="赛位号" font-family="MicrosoftYaHei, Microsoft YaHei" font-size="14" font-weight="normal" fill="#8A8F97">
                                        <tspan x="0" y="15">身份识别码（总4个）</tspan>
                                    </text>
                                    <g id="列表/输入框_选中状态" transform="translate(0.000000, 31.000000)" fill="#FFFFFF" stroke="#4C87FB">
                                        <rect id="矩形" x="0.5" y="0.5" width="359" height="34" rx="6"></rect>
                                    </g>
                                    <g id="icon/添加_常态" transform="translate(330.000000, 39.000000)">
                                        <g id="shanchu">
                                            <mask id="mask-4" fill="white">
                                                <use xlink:href="#path-3"></use>
                                            </mask>
                                            <g id="Clip-2"></g>
                                            <path d="M9.99029268,0.0195121951 C4.46626829,0.0195121951 0,4.48578049 0,10.0098049 C0,15.5338049 4.46626829,19.9999756 9.99029268,19.9999756 C15.5142927,19.9999756 19.9804634,15.5338049 19.9804634,10.0098049 C19.9804634,4.48578049 15.5142927,0.0195121951 9.99029268,0.0195121951 Z M11.2784162,14.9302832 C11.278399,15.5952223 10.6966743,16.176947 10.0318042,16.1768952 C9.36692117,16.1769599 8.7851965,15.5952352 8.78519219,14.9302832 L8.78520943,11.2736271 L5.04533891,11.3566863 C4.38046883,11.356738 3.79867517,10.7749444 3.79874415,10.1100915 C3.88180333,9.6944852 3.96494874,9.44522143 4.21428149,9.19588869 C4.46361424,8.94655594 4.79600616,8.78028236 5.12848432,8.78035135 L8.7851232,8.78035135 L8.70208127,5.2067544 C8.78514045,4.79114808 8.86828586,4.54188432 9.11761861,4.29255157 C9.36695136,4.04321882 9.69934328,3.87694524 10.0318042,3.87703148 C10.6966743,3.87694524 11.2784679,4.45873891 11.278399,5.12362624 L11.2784852,8.78035135 L14.9351241,8.78035135 C15.6000804,8.78035135 16.1818051,9.36207603 16.1817361,10.0269634 C16.1818051,10.6918162 15.6000114,11.2736099 14.9351413,11.2735581 L11.278399,11.2736271 L11.2784162,14.9302832 Z" id="Fill-1" fill="#4C87FB" mask="url(#mask-4)"></path>
                                        </g>
                                    </g>
                                    <g id="列表/输入框_已输入" transform="translate(10.000000, 39.000000)" fill="#666666" font-family="MicrosoftYaHei, Microsoft YaHei" font-size="16" font-weight="normal">
                                        <text id="请输入赛位号">
                                            <tspan x="0" y="15">3</tspan>
                                        </text>
                                    </g>
                                </g>
                            </g>
                            <g id="列表/输入框备份" transform="translate(20.000000, 9.000000)">
                                <g id="列表/输入框">
                                    <g id="列表/输入框_选中状态" transform="translate(0.000000, 31.000000)" fill="#FFFFFF" stroke="#4C87FB">
                                        <rect id="矩形" x="0.5" y="0.5" width="359" height="34" rx="6"></rect>
                                    </g>
                                    <g id="icon/添加_常态" transform="translate(330.000000, 39.000000)">
                                        <g id="shanchu">
                                            <mask id="mask-6" fill="white">
                                                <use xlink:href="#path-5"></use>
                                            </mask>
                                            <g id="Clip-2"></g>
                                            <path d="M9.99029268,0.0195121951 C4.46626829,0.0195121951 0,4.48578049 0,10.0098049 C0,15.5338049 4.46626829,19.9999756 9.99029268,19.9999756 C15.5142927,19.9999756 19.9804634,15.5338049 19.9804634,10.0098049 C19.9804634,4.48578049 15.5142927,0.0195121951 9.99029268,0.0195121951 Z M11.2784162,14.9302832 C11.278399,15.5952223 10.6966743,16.176947 10.0318042,16.1768952 C9.36692117,16.1769599 8.7851965,15.5952352 8.78519219,14.9302832 L8.78520943,11.2736271 L5.04533891,11.3566863 C4.38046883,11.356738 3.79867517,10.7749444 3.79874415,10.1100915 C3.88180333,9.6944852 3.96494874,9.44522143 4.21428149,9.19588869 C4.46361424,8.94655594 4.79600616,8.78028236 5.12848432,8.78035135 L8.7851232,8.78035135 L8.70208127,5.2067544 C8.78514045,4.79114808 8.86828586,4.54188432 9.11761861,4.29255157 C9.36695136,4.04321882 9.69934328,3.87694524 10.0318042,3.87703148 C10.6966743,3.87694524 11.2784679,4.45873891 11.278399,5.12362624 L11.2784852,8.78035135 L14.9351241,8.78035135 C15.6000804,8.78035135 16.1818051,9.36207603 16.1817361,10.0269634 C16.1818051,10.6918162 15.6000114,11.2736099 14.9351413,11.2735581 L11.278399,11.2736271 L11.2784162,14.9302832 Z" id="Fill-1" fill="#4C87FB" mask="url(#mask-6)"></path>
                                        </g>
                                    </g>
                                    <g id="icon/添加" transform="translate(330.000000, 39.000000)">
                                        <g id="shanchu">
                                            <mask id="mask-8" fill="white">
                                                <use xlink:href="#path-7"></use>
                                            </mask>
                                            <g id="Clip-2"></g>
                                            <path d="M9.99029268,0.0195121951 C4.46626829,0.0195121951 0,4.48578049 0,10.0098049 C0,15.5338049 4.46626829,19.9999756 9.99029268,19.9999756 C15.5142927,19.9999756 19.9804634,15.5338049 19.9804634,10.0098049 C19.9804634,4.48578049 15.5142927,0.0195121951 9.99029268,0.0195121951 Z M11.2784162,14.9302832 C11.278399,15.5952223 10.6966743,16.176947 10.0318042,16.1768952 C9.36692117,16.1769599 8.7851965,15.5952352 8.78519219,14.9302832 L8.78520943,11.2736271 L5.04533891,11.3566863 C4.38046883,11.356738 3.79867517,10.7749444 3.79874415,10.1100915 C3.88180333,9.6944852 3.96494874,9.44522143 4.21428149,9.19588869 C4.46361424,8.94655594 4.79600616,8.78028236 5.12848432,8.78035135 L8.7851232,8.78035135 L8.70208127,5.2067544 C8.78514045,4.79114808 8.86828586,4.54188432 9.11761861,4.29255157 C9.36695136,4.04321882 9.69934328,3.87694524 10.0318042,3.87703148 C10.6966743,3.87694524 11.2784679,4.45873891 11.278399,5.12362624 L11.2784852,8.78035135 L14.9351241,8.78035135 C15.6000804,8.78035135 16.1818051,9.36207603 16.1817361,10.0269634 C16.1818051,10.6918162 15.6000114,11.2736099 14.9351413,11.2735581 L11.278399,11.2736271 L11.2784162,14.9302832 Z" id="Fill-1" fill="#4C87FB" mask="url(#mask-8)"></path>
                                        </g>
                                    </g>
                                    <g id="列表/输入框_已输入" transform="translate(10.000000, 39.000000)" fill="#666666" font-family="MicrosoftYaHei, Microsoft YaHei" font-size="16" font-weight="normal">
                                        <text id="请输入赛位号">
                                            <tspan x="0" y="15">3</tspan>
                                        </text>
                                    </g>
                                </g>
                            </g>
                        </g>
                        <g id="字段" transform="translate(20.000000, 88.000000)"></g>
                    </g>
                </g>
            </g>
        </g>
    </g>
</svg>