<?xml version="1.0" encoding="UTF-8"?>
<svg width="48px" height="48px" viewBox="0 0 48 48" version="1.1" xmlns="http://www.w3.org/2000/svg" xmlns:xlink="http://www.w3.org/1999/xlink">
    <!-- Generator: Sketch 59.1 (86144) - https://sketch.com -->
    <title>icon/修改用户</title>
    <desc>Created with Sketch.</desc>
    <g id="大数据竞赛实训平台" stroke="none" stroke-width="1" fill="none" fill-rule="evenodd">
        <g id="02系统管理-用户管理" transform="translate(-731.000000, -372.000000)">
            <g id="弹出窗口-修改用户">
                <g id="icon/修改用户" transform="translate(731.000000, 372.000000)">
                    <circle id="椭圆形" fill="#DBE7FF" cx="24" cy="24" r="24"></circle>
                    <path d="M35.30625,35.584375 C35.3125,35.565625 35.328125,35.546875 35.328125,35.53125 C35.328125,35.5 35.30625,35.46875 35.290625,35.4375 C35.234375,34.9875 35.13125,34.546875 34.95,34.128125 C34.603125,33.284375 33.946875,32.6 33.196875,32.096875 C31.7125,31.071875 29.903125,30.690625 28.34375,29.80625 C27.825,29.490625 27.3,29.08125 27.096875,28.484375 C27,27.665625 27.034375,26.840625 27.0375,26.021875 C27.315625,25.8125 27.503125,25.515625 27.671875,25.215625 C28.01875,24.578125 28.259375,23.88125 28.359375,23.1625 C28.6125,23.1125 28.834375,22.959375 28.978125,22.746875 C29.246875,22.346875 29.34375,21.859375 29.3875,21.390625 C29.428125,20.975 29.2625,20.546875 28.93125,20.290625 C29.340625,18.925 29.628125,17.490625 29.478125,16.059375 C29.390625,15.209375 29.09375,14.3375 28.45,13.746875 C28.00625,13.3375 27.415625,13.125 26.828125,13.034375 C26.684375,12.81875 26.503125,12.625 26.278125,12.490625 C25.671875,12.11875 24.94375,12.021875 24.246875,12.009375 C23.0125,12.028125 21.7125,12.2375 20.69375,12.98125 C20.184375,13.346875 19.778125,13.85 19.50625,14.415625 C19.175,15.10625 19.034375,15.878125 19.003125,16.640625 C18.953125,17.875 19.171875,19.1 19.46875,20.29375 C19.15625,20.5375 18.9875,20.9375 19.009375,21.33125 C19.034375,21.721875 19.1125,22.1125 19.26875,22.475 C19.40625,22.80625 19.675,23.10625 20.040625,23.171875 C20.134375,23.85 20.365625,24.50625 20.6875,25.1125 C20.875,25.45 21.08125,25.79375 21.39375,26.028125 C21.39375,26.85 21.428125,27.675 21.33125,28.49375 C21.078125,29.215625 20.390625,29.653125 19.75,29.996875 C18.346875,30.703125 16.803125,31.109375 15.459375,31.9375 C14.878125,32.309375 14.325,32.75 13.915625,33.3125 C13.475,33.909375 13.228125,34.625 13.128125,35.35625 C13.06875,35.415625 13.028125,35.475 13.028125,35.5375 C13.028125,35.5875 13.05,35.6375 13.0875,35.684375 C13.084375,35.721875 13.078125,35.75625 13.075,35.790625 L13.2125,35.790625 C14.15,36.459375 18.696875,36.96875 24.175,36.96875 C29.659375,36.96875 34.20625,36.459375 35.140625,35.7875 L35.325,35.7875 C35.321875,35.71875 35.3125,35.653125 35.30625,35.584375 L35.30625,35.584375 Z" id="路径" fill="#4C87FB" fill-rule="nonzero"></path>
                </g>
            </g>
        </g>
    </g>
</svg>