<?xml version="1.0" encoding="UTF-8"?>
<svg width="15px" height="15px" viewBox="0 0 15 15" version="1.1" xmlns="http://www.w3.org/2000/svg" xmlns:xlink="http://www.w3.org/1999/xlink">
    <!-- Generator: Sketch 59.1 (86144) - https://sketch.com -->
    <title>icon/编辑</title>
    <desc>Created with Sketch.</desc>
    <g id="大数据竞赛实训平台" stroke="none" stroke-width="1" fill="none" fill-rule="evenodd">
        <g id="02系统管理-用户管理" transform="translate(-1694.000000, -396.000000)" fill="#959BC1">
            <g id="表格" transform="translate(70.000000, 339.000000)">
                <g id="表格内容" transform="translate(52.000000, 40.000000)">
                    <g id="操作框" transform="translate(1556.000000, 0.000000)">
                        <path d="M30.139,21.213 L26.787,17.862 C26.312,17.39 25.545,17.392 25.073,17.866 L23.796,19.144 L24.646,19.99 L24.664,19.986 L24.665,19.986 L28.013,23.334 L28.588,23.91 L28.869,24.192 L30.134,22.927 C30.608,22.455 30.61,21.687 30.138,21.213 M19.653,30.54 L19.395,30.281 L17.721,28.601 L17.454,28.333 L16.683,27.51 L16.508,27.325 L16.508,30.284 C16.508,30.95 17.05,31.492 17.716,31.492 L20.639,31.492 L20.418,31.279 L19.653,30.54 L19.653,30.54 Z M23.807,20.843 L22.949,19.989 L16.88,26.058 L17.738,26.916 L21.085,30.266 L21.941,31.12 L27.988,25.073 L27.155,24.191 L23.807,20.843 Z" id="icon/编辑"></path>
                    </g>
                </g>
            </g>
        </g>
    </g>
</svg>