<?xml version="1.0" encoding="UTF-8"?>
<svg width="16px" height="15px" viewBox="0 0 16 15" version="1.1" xmlns="http://www.w3.org/2000/svg" xmlns:xlink="http://www.w3.org/1999/xlink">
    <!-- Generator: Sketch 59.1 (86144) - https://sketch.com -->
    <title>icon/删除</title>
    <desc>Created with Sketch.</desc>
    <g id="大数据竞赛实训平台" stroke="none" stroke-width="1" fill="none" fill-rule="evenodd">
        <g id="02系统管理-团队管理" transform="translate(-1755.000000, -323.000000)" fill="#959BC1">
            <g id="表格内容" transform="translate(122.000000, 306.000000)">
                <g id="操作框" transform="translate(1588.000000, 0.000000)">
                    <path d="M59.335,20.947 L58.546,20.947 L57.813,31.263 C57.784,31.677 57.439,31.998 57.024,31.9970023 L49.023,31.9970023 C48.608,31.998 48.263,31.677 48.234,31.263 L47.5,20.947 L46.711,20.947 C46.276,20.947 45.922,20.593 45.922,20.157 C45.922,19.722 46.276,19.368 46.711,19.368 L49.078,19.368 L49.078,17.79 C49.078,17.58 49.161,17.38 49.309,17.231 C49.457,17.083 49.658,17 49.867,17 L56.179,17 C56.615,17 56.968,17.354 56.968,17.79 L56.968,19.368 L59.335,19.368 C59.771,19.368 60.124,19.722 60.124,20.157 C60.124,20.593 59.771,20.947 59.335,20.947 Z M55.785,18.184 L50.262,18.184 L50.262,18.973 L55.785,18.973 L55.785,18.184 Z M53.812,28.287 C53.842,28.617 54.129,28.862 54.459,28.84 C54.789,28.862 55.077,28.617 55.106,28.287 L55.106,23.078 C55.077,22.748 54.789,22.503 54.459,22.525 C54.129,22.503 53.842,22.748 53.812,23.078 L53.812,28.287 Z M50.656,28.287 C50.685,28.617 50.973,28.862 51.303,28.84 C51.633,28.862 51.921,28.617 51.95,28.287 L51.95,23.078 C51.921,22.748 51.633,22.503 51.303,22.525 C50.973,22.503 50.685,22.748 50.656,23.078 L50.656,28.287 Z" id="icon/删除"></path>
                </g>
            </g>
        </g>
    </g>
</svg>