<?xml version="1.0" encoding="UTF-8"?>
<svg width="48px" height="48px" viewBox="0 0 48 48" version="1.1" xmlns="http://www.w3.org/2000/svg" xmlns:xlink="http://www.w3.org/1999/xlink">
    <!-- Generator: Sketch 59.1 (86144) - https://sketch.com -->
    <title>icon/账号停用</title>
    <desc>Created with Sketch.</desc>
    <g id="大数据竞赛实训平台" stroke="none" stroke-width="1" fill="none" fill-rule="evenodd">
        <g id="02系统管理-用户管理" transform="translate(-780.000000, -455.000000)">
            <g id="弹出窗口-账号停用">
                <g id="编组-2" transform="translate(760.000000, 435.000000)">
                    <g id="icon/账号停用" transform="translate(20.000000, 20.000000)">
                        <circle id="椭圆形" fill="#FEE8EA" cx="24" cy="24" r="24"></circle>
                        <path d="M23.4779018,30.7598348 C23.4779018,29.3522455 23.8873605,28.0412243 24.5836775,26.927106 C24.5575893,26.7205212 24.5913783,26.471414 24.7382254,26.1624855 C25.5136998,25.1217768 25.9849888,23.9410569 26.0226563,23.5548683 C26.0226563,23.5548683 27.2172991,22.6155268 27.2858817,21.2050915 C27.36024,19.7985067 27.024135,19.7328538 27.024135,19.7328538 C27.5253069,18.1987578 27.6876116,12.441029 23.9907366,13.1283895 C23.3736049,11.9206328 19.5106306,10.9735625 17.7104353,14.191308 C16.8123047,15.795856 16.4781529,17.9854207 17.1793248,19.7733393 C17.1542132,19.9065982 16.9320871,19.64301 16.8509487,20.4694609 C16.77274,21.2659174 17.1309989,22.4070446 17.522154,22.9370111 C17.6911272,23.1600859 17.9634487,23.3231998 18.1537109,23.4062076 C18.1537109,23.4062076 18.3874163,24.8244274 19.4951172,26.1624855 C19.7500558,27.2235067 18.6964565,27.7834676 18.6964565,27.7834676 C15.2072545,28.4543381 12,30.3909732 12,32.4858951 C12,32.6403594 12,34.1087745 12,34.1087745 C12,36.3823515 17.2961496,36.8698515 22.0640625,36.8698515 C23.5011161,36.8698515 24.9806362,36.7434285 26.3500279,36.5310402 C24.6078125,35.2026082 23.4779018,33.1134341 23.4779018,30.759779 L23.4779018,30.7598348 Z M30.7846819,24.8291149 C27.48524,24.8291149 24.8010603,27.513462 24.8010603,30.8127366 C24.8010603,34.112039 27.4852679,36.7963582 30.7846819,36.7963582 C34.084096,36.7963582 36.7683036,34.112039 36.7683036,30.8127366 C36.7683036,27.513462 34.084096,24.8291149 30.7846819,24.8291149 Z M30.7724051,35.414327 C28.2283203,35.414327 26.1585658,33.3444609 26.1585658,30.8004598 C26.1585658,30.0875692 26.3211775,29.4119832 26.6111328,28.8086071 L34.13125,33.960058 C33.2892299,34.854673 32.0950335,35.414327 30.7724051,35.414327 L30.7724051,35.414327 Z M34.9031808,32.8540033 L27.3665737,27.6912801 C28.2108817,26.7672288 29.4250837,26.1866205 30.7724051,26.1866205 C33.31649,26.1866205 35.3862444,28.2564866 35.3862444,30.8004877 C35.3862444,31.5377924 35.2120815,32.2351975 34.9031529,32.8540033 L34.9031808,32.8540033 Z" id="形状" fill="#F8202D" fill-rule="nonzero"></path>
                    </g>
                </g>
            </g>
        </g>
    </g>
</svg>