<?xml version="1.0" encoding="UTF-8"?>
<svg width="36px" height="45px" viewBox="0 0 36 45" version="1.1" xmlns="http://www.w3.org/2000/svg" xmlns:xlink="http://www.w3.org/1999/xlink">
    <!-- Generator: Sketch 59.1 (86144) - https://sketch.com -->
    <title>icon-导入文件</title>
    <desc>Created with Sketch.</desc>
    <defs>
        <polygon id="path-1" points="35.8333333 9.72222222 26.3888889 0.277777778 -5.68434189e-14 2.84217094e-14 -5.68434189e-14 45 36.1111111 45"></polygon>
    </defs>
    <g id="大数据竞赛实训平台" stroke="none" stroke-width="1" fill="none" fill-rule="evenodd">
        <g id="02系统管理-用户管理" transform="translate(-942.000000, -518.000000)">
            <g id="弹出窗口-批量导入">
                <g id="弹框" transform="translate(760.000000, 351.000000)">
                    <g id="内容" transform="translate(20.000000, 88.000000)">
                        <g id="导入文件">
                            <g id="已选择文件" transform="translate(110.000000, 79.000000)">
                                <g id="icon-导入文件" transform="translate(52.000000, 0.000000)">
                                    <mask id="mask-2" fill="white">
                                        <use xlink:href="#path-1"></use>
                                    </mask>
                                    <g id="路径-2"></g>
                                    <path d="M2.11111111,1 L34.3333333,1 C34.9472222,1 35.4444444,1.49722222 35.4444444,2.11111111 L35.4444444,43.2222222 C35.4444444,43.8361111 34.9472222,44.3333333 34.3333333,44.3333333 L2.11111111,44.3333333 C1.49722222,44.3333333 1,43.8361111 1,43.2222222 L1,2.11111111 C1,1.49722222 1.49722222,1 2.11111111,1 Z" id="路径" stroke="#4C87FB" fill="#E0E8FF" mask="url(#mask-2)"></path>
                                    <polygon id="路径" fill="#4C87FB" mask="url(#mask-2)" points="26.3922222 0.279444444 26.3922222 9.72 35.8283333 9.72"></polygon>
                                    <g id="编组" mask="url(#mask-2)" fill="#819EF1" fill-rule="nonzero">
                                        <g transform="translate(8.910885, 14.112353)" id="形状">
                                            <path d="M16.8352941,14.4954874 C17.5632353,14.4954874 18,14.0644688 18,13.4897773 C18,12.9150858 17.5632353,12.3403943 16.8352941,12.3403943 L11.8852941,12.3403943 L13.3411765,10.9036656 C13.6323529,10.472647 13.6323529,9.75428259 13.1955882,9.32326397 C12.7588235,8.89224534 12.1764706,8.89224534 11.7397059,9.32326397 L8.53676471,12.6277401 C8.24558824,12.771413 8.1,13.2024316 8.1,13.4897773 C8.1,13.7771231 8.24558824,14.0644688 8.53676471,14.3518146 L11.7397059,17.6562907 C12.0308824,17.9436364 12.4676471,18.0873093 12.7588235,17.9436364 C13.05,17.7999636 13.4867647,17.5126178 13.6323529,17.0815992 C13.7779412,16.6505806 13.6323529,16.2195619 13.3411765,16.0758891 L11.8852941,14.4954874 L16.8352941,14.4954874 Z M1.2,18 L4.5,18 C5.1,18 5.7,17.55 5.7,16.8 C5.7,16.2 5.25,15.6 4.5,15.6 L2.25,15.6 L2.25,2.4 L15.75,2.4 L15.75,6.75 C15.75,7.35 16.2,7.95 16.95,7.95 C17.7,7.95 18,7.35 18,6.6 L18,1.2 C18,0.45 17.55,0 16.8,0 L1.05,0 C0.45,0 0,0.45 0,1.2 L0,16.8 C0,17.4 0.45,18 1.2,18 Z"></path>
                                        </g>
                                    </g>
                                </g>
                            </g>
                        </g>
                    </g>
                </g>
            </g>
        </g>
    </g>
</svg>