<svg xmlns="http://www.w3.org/2000/svg" width="16" height="20" viewBox="0 0 16 20">
  <defs>
    <style>
      .cls-1 {
        fill: #e2e2e2;
      }
    </style>
  </defs>
  <path id="ic_lock" class="cls-1" d="M18,7.667H17v-1.9A4.887,4.887,0,0,0,12,1,4.887,4.887,0,0,0,7,5.762v1.9H6a1.96,1.96,0,0,0-2,1.9V19.1A1.96,1.96,0,0,0,6,21H18a1.96,1.96,0,0,0,2-1.9V9.571A1.96,1.96,0,0,0,18,7.667Zm-6,8.571a1.907,1.907,0,1,1,2-1.9A1.96,1.96,0,0,1,12,16.238Zm3.1-8.571H8.9v-1.9A3.032,3.032,0,0,1,12,2.81a3.032,3.032,0,0,1,3.1,2.952Z" transform="translate(-4 -1)"/>
</svg>
