<svg xmlns="http://www.w3.org/2000/svg" width="16" height="20" viewBox="0 0 16 20">
  <defs>
    <style>
      .cls-1 {
        fill: #e2e2e2;
      }
    </style>
  </defs>
  <path id="路径_9" data-name="路径 9" class="cls-1" d="M13.265,5.505A5.381,5.381,0,0,1,8.014,11.04,5.381,5.381,0,0,1,2.763,5.505,5.356,5.356,0,0,1,8.014,0a5.353,5.353,0,0,1,5.251,5.505ZM14.693,20H.88C.273,20,0,19.52,0,18.88c0-3.807,2.642-6.815,6.162-6.815H9.411A6.781,6.781,0,0,1,16,18.912v-.065c.028.64-.7,1.12-1.307,1.153Zm0,0"/>
</svg>
