<?xml version="1.0" encoding="UTF-8"?>
<svg width="48px" height="48px" viewBox="0 0 48 48" version="1.1" xmlns="http://www.w3.org/2000/svg" xmlns:xlink="http://www.w3.org/1999/xlink">
    <!-- Generator: Sketch 59.1 (86144) - https://sketch.com -->
    <title>icon_pen</title>
    <desc>Created with Sketch.</desc>
    <g id="管理门户" stroke="none" stroke-width="1" fill="none" fill-rule="evenodd">
        <g id="03正式竞赛端-赛位管理-修改赛位" transform="translate(-780.000000, -371.000000)">
            <g id="修改赛位">
                <g id="编组-3" transform="translate(760.000000, 351.000000)">
                    <g id="标题" transform="translate(20.000000, 20.000000)">
                        <g id="icon/修改">
                            <g>
                                <circle id="椭圆形" fill="#DBE7FF" cx="24" cy="24" r="24"></circle>
                                <g id="修改" transform="translate(13.000000, 12.000000)" fill="#4C87FB" fill-rule="nonzero">
                                    <path d="M9.69158565,20.1925785 C9.69158565,19.746619 10.0670466,19.385157 10.5058666,19.385157 L20.1857191,19.385157 C20.6339256,19.385157 21,19.7607019 21,20.1925785 C21,20.6385381 20.6245391,21 20.1857191,21 L10.5058666,21 C10.0553134,21 9.69158565,20.6268023 9.69158565,20.1925785 Z M18.4233993,8.38873365 L12.5028495,2.4668604 L14.394234,0.57505309 C14.7767348,0.192466749 15.2437144,0 15.792826,0 C16.3419376,0 16.8065706,0.192466749 17.191418,0.57505309 L20.3171304,3.70146418 C20.6996312,4.08639768 20.892055,4.55113446 20.892055,5.10036884 C20.892055,5.64960322 20.6996312,6.11434 20.3171304,6.4992735 L18.4233993,8.38873365 L18.4233993,8.38873365 Z M11.5571572,6.70347603 C11.749581,6.88185984 11.7284613,7.08840952 11.4961448,7.32077791 L5.512236,13.3060244 C5.27991954,13.5383928 5.07341602,13.5595172 4.89507208,13.3670504 C4.70264834,13.1886666 4.72376802,12.9844641 4.95608448,12.7497485 L10.9399933,6.76450207 C11.1723098,6.53213368 11.3788133,6.51100928 11.5571572,6.70347603 Z M3.04358029,14.7237063 L6.16929266,17.8501174 L5.09922896,18.9180731 L3.94703319,18.9180731 L3.94703319,16.9441153 L1.97351659,16.9441153 L1.97351659,15.791662 L3.04358029,14.7237063 Z M5.92289641,20.8920308 L17.109286,9.70314072 L11.1863895,3.78126746 L0,14.9701576 L0,20.8920308 L5.92289641,20.8920308 Z" id="形状"></path>
                                </g>
                            </g>
                        </g>
                    </g>
                </g>
            </g>
        </g>
    </g>
</svg>