<?xml version="1.0" encoding="UTF-8"?>
<svg width="15px" height="15px" viewBox="0 0 15 15" version="1.1" xmlns="http://www.w3.org/2000/svg" xmlns:xlink="http://www.w3.org/1999/xlink">
    <!-- Generator: Sketch 59.1 (86144) - https://sketch.com -->
    <title>icon/账户停用</title>
    <desc>Created with Sketch.</desc>
    <g id="大数据竞赛实训平台" stroke="none" stroke-width="1" fill="none" fill-rule="evenodd">
        <g id="02系统管理-用户管理" transform="translate(-1755.000000, -396.000000)" fill="#959BC1" fill-rule="nonzero">
            <g id="表格" transform="translate(70.000000, 339.000000)">
                <g id="表格内容" transform="translate(52.000000, 40.000000)">
                    <g id="操作框" transform="translate(1556.000000, 0.000000)">
                        <path d="M83.8867411,28.2559009 C83.8867411,27.4113473 84.1324163,26.6247346 84.5502065,25.9562636 C84.5345536,25.8323127 84.554827,25.6828484 84.6429353,25.4974913 C85.1082199,24.8730661 85.3909933,24.1646341 85.4135938,23.932921 C85.4135938,23.932921 86.1303795,23.3693161 86.171529,22.5230549 C86.216144,21.679104 86.014481,21.6397123 86.014481,21.6397123 C86.3151842,20.7192547 86.412567,17.2646174 84.194442,17.6770337 C83.8241629,16.9523797 81.5063783,16.3841375 80.4262612,18.3147848 C79.8873828,19.2775136 79.6868917,20.5912524 80.1075949,21.6640036 C80.0925279,21.7439589 79.9592522,21.585806 79.9105692,22.0816765 C79.863644,22.5595504 80.0785993,23.2442268 80.3132924,23.5622067 C80.4146763,23.6960515 80.5780692,23.7939199 80.6922266,23.8437245 C80.6922266,23.8437245 80.8324498,24.6946565 81.4970703,25.4974913 C81.6500335,26.134104 81.0178739,26.4700806 81.0178739,26.4700806 C78.9243527,26.8726029 77,28.0345839 77,29.291537 C77,29.3842156 77,30.2652647 77,30.2652647 C77,31.6294109 80.1776897,31.9219109 83.0384375,31.9219109 C83.9006696,31.9219109 84.7883817,31.8460571 85.6100167,31.7186241 C84.5646875,30.9215649 83.8867411,29.6680605 83.8867411,28.2558674 L83.8867411,28.2559009 Z M88.2708092,24.697469 C86.291144,24.697469 84.6806362,26.3080772 84.6806362,28.2876419 C84.6806362,30.2672234 86.2911607,31.8778149 88.2708092,31.8778149 C90.2504576,31.8778149 91.8609821,30.2672234 91.8609821,28.2876419 C91.8609821,26.3080772 90.2504576,24.697469 88.2708092,24.697469 Z M88.2634431,31.0485962 C86.7369922,31.0485962 85.4951395,29.8066765 85.4951395,28.2802759 C85.4951395,27.8525415 85.5927065,27.4471899 85.7666797,27.0851643 L90.27875,30.1760348 C89.7735379,30.7128038 89.0570201,31.0485962 88.2634431,31.0485962 L88.2634431,31.0485962 Z M90.7419085,29.512402 L86.2199442,26.4147681 C86.726529,25.8603373 87.4550502,25.5119723 88.2634431,25.5119723 C89.789894,25.5119723 91.0317467,26.7538919 91.0317467,28.2802926 C91.0317467,28.7226754 90.9272489,29.1411185 90.7418917,29.512402 L90.7419085,29.512402 Z" id="icon/账户停用"></path>
                    </g>
                </g>
            </g>
        </g>
    </g>
</svg>