<?xml version="1.0" encoding="UTF-8"?>
<svg width="48px" height="48px" viewBox="0 0 48 48" version="1.1" xmlns="http://www.w3.org/2000/svg" xmlns:xlink="http://www.w3.org/1999/xlink">
    <!-- Generator: Sketch 59.1 (86144) - https://sketch.com -->
    <title>icon/批量导入</title>
    <desc>Created with Sketch.</desc>
    <g id="大数据竞赛实训平台" stroke="none" stroke-width="1" fill="none" fill-rule="evenodd">
        <g id="02系统管理-用户管理" transform="translate(-780.000000, -371.000000)">
            <g id="弹出窗口-批量导入">
                <g id="弹框" transform="translate(760.000000, 351.000000)">
                    <g id="icon/批量导入" transform="translate(20.000000, 20.000000)">
                        <circle id="椭圆形" fill="#DBE7FF" cx="24" cy="24" r="24"></circle>
                        <g id="批量导入" transform="translate(13.000000, 12.000000)" fill="#4C87FB" fill-rule="nonzero">
                            <path d="M10.9756375,19.695 C10.9756375,16.0496 13.9308375,13.09445 17.5761875,13.09445 C19.4376875,13.09445 21.1189875,13.8653 22.3188875,15.1049 L22.3188875,4.00335 C22.3188875,3.26325 21.7189875,2.66315 20.9788375,2.66315 L3.7421875,2.66315 C3.0020875,2.66315 2.4019875,3.26325 2.4019875,4.00335 L2.4019875,23.6598 C2.4019875,24.3999 3.0020875,25 3.7421875,25 L13.6485375,25 C12.0268875,23.7974 10.9756375,21.86905 10.9756375,19.695 Z" id="路径"></path>
                            <path d="M17.4420375,14.882 C14.7471375,14.882 12.5615875,17.0665 12.5615875,19.76215 C12.5615875,22.45825 14.7471375,24.64265 17.4420375,24.64265 C20.1379875,24.64265 22.3219875,22.458 22.3219875,19.76215 C22.3219875,17.0667 20.1367375,14.882 17.4420375,14.882 Z M20.1534875,20.6587 L16.7813375,20.6587 L17.9174375,21.794 C18.2580375,22.1346 18.2580375,22.6454 17.9174375,22.98605 C17.7471875,23.09955 17.5200875,23.21305 17.2930875,23.21305 C17.0660375,23.21305 16.8389375,23.1563 16.7253875,22.98605 L14.2972875,20.5596 C14.2431375,20.5269 14.1966375,20.4848 14.1611875,20.4316 C13.9631375,20.23355 13.8811375,19.978 13.9134375,19.73175 C13.9384375,19.47385 14.0893875,19.24145 14.3011375,19.0996 L16.7156375,16.68515 C17.0562375,16.34455 17.5671375,16.34455 17.9076375,16.68515 C18.2482875,17.0258 18.2482875,17.5366 17.9076375,17.8772 L16.8294875,18.95575 L20.1534375,18.95575 C20.6075375,18.95575 21.0048375,19.3531 21.0048375,19.8072 C21.0048375,20.2613 20.6075875,20.6587 20.1534875,20.6587 L20.1534875,20.6587 Z M1.2775375,22.1217 L1.2775375,2.4652 C1.2775375,1.7251 1.8776375,1.125 2.6177375,1.125 L19.8544375,1.125 C19.8704875,1.125 19.8863875,1.12565 19.9022875,1.1262 C19.7999375,0.48785 19.2467375,0 18.5794375,0 L1.3427375,0 C0.6026375,0 0.0025375,0.6001 0.0025375,1.3402 L0.0025375,20.99665 C0.0025375,21.7206 0.5768875,22.3102 1.2947375,22.33555 C1.28332117,22.2648381 1.27756955,22.1933275 1.2775375,22.1217 L1.2775375,22.1217 Z" id="形状"></path>
                        </g>
                    </g>
                </g>
            </g>
        </g>
    </g>
</svg>