<?xml version="1.0" encoding="UTF-8"?>
<svg width="15px" height="15px" viewBox="0 0 15 15" version="1.1" xmlns="http://www.w3.org/2000/svg" xmlns:xlink="http://www.w3.org/1999/xlink">
    <!-- Generator: Sketch 59.1 (86144) - https://sketch.com -->
    <title>icon/重置密码</title>
    <desc>Created with Sketch.</desc>
    <g id="大数据竞赛实训平台" stroke="none" stroke-width="1" fill="none" fill-rule="evenodd">
        <g id="02系统管理-用户管理" transform="translate(-1724.000000, -396.000000)" fill="#959BC1" fill-rule="nonzero">
            <g id="表格" transform="translate(70.000000, 339.000000)">
                <g id="表格内容" transform="translate(52.000000, 40.000000)">
                    <g id="操作框" transform="translate(1556.000000, 0.000000)">
                        <path d="M55.9804856,23.2200568 C56.7282114,23.2200568 57.3332453,23.8802273 57.3332453,24.6953409 L57.3332453,28.1363068 C57.3332453,28.9503977 56.7282114,29.6105682 55.9809971,29.6105682 L51.0215601,29.6105682 C50.2748572,29.6105682 49.6693119,28.9503977 49.6693119,28.1363068 L49.6693119,24.6948295 C49.6693119,23.88125 50.2748572,23.2200568 51.0215601,23.2200568 L55.9809971,23.2200568 L55.9804856,23.2200568 Z M53.4902826,24.5046023 C52.784495,24.5046023 52.2116818,25.0517614 52.2116818,25.7272727 C52.2116818,26.1788068 52.5625299,26.5239773 52.9430415,26.7361932 L52.9430415,28.3244886 L54.0380352,28.3244886 L54.0380352,26.7356818 C54.4190583,26.5239773 54.7693949,26.1782955 54.7693949,25.7272727 C54.7688835,25.0522727 54.1965817,24.5051136 53.4907941,24.5051136 L53.4902826,24.5046023 Z M53.5,20.6668182 C52.2981152,20.6668182 52.2249792,21.6772727 52.2213992,21.9452273 L52.2213992,23.2195455 L50.9351267,23.2195455 L50.9351267,22.0689773 C50.9351267,22.0689773 50.9351267,19.3843182 53.4948856,19.3843182 C56.0551559,19.3843182 56.0551559,22.0689773 56.0551559,22.0689773 L56.0551559,23.2195455 L54.7786008,23.2195455 L54.7786008,21.9452273 C54.7760436,21.681875 54.7018848,20.6668182 53.5,20.6668182 Z M53.5,32 C49.3575036,32 46,28.643 46,24.501125 C46,20.36 49.3575036,17.00225 53.5,17.00225 C54.8352001,17.00225 56.087513,17.35325 57.1729257,17.964875 L57.8705304,17 L59.1194677,20.282 L55.8452266,19.802 L56.6185926,18.732125 C55.6614964,18.2119413 54.5893599,17.9396608 53.5,17.940125 C49.8758313,17.940125 46.9376406,20.877875 46.9376406,24.5015 C46.9376406,28.1255 49.8758313,31.06325 53.5,31.06325 C57.1245435,31.06325 60.0623591,28.1255 60.0623591,24.5015 C60.0623591,23.6165 59.8849575,22.77425 59.5672849,22.003625 L60.4340399,21.647 C60.8079589,22.5522234 61.0002579,23.522111 61,24.5015 C61,28.643 57.6424962,32 53.5,32 Z" id="icon/重置密码"></path>
                    </g>
                </g>
            </g>
        </g>
    </g>
</svg>