<?xml version="1.0" encoding="UTF-8"?>
<svg width="228px" height="45px" viewBox="0 0 228 45" version="1.1" xmlns="http://www.w3.org/2000/svg" xmlns:xlink="http://www.w3.org/1999/xlink">
    <!-- Generator: Sketch 59.1 (86144) - https://sketch.com -->
    <title>大数据竞赛实训平台</title>
    <desc>Created with Sketch.</desc>
    <g id="UI规范" stroke="none" stroke-width="1" fill="none" fill-rule="evenodd">
        <g id="web-1920-0logo" transform="translate(-46.000000, -16.000000)">
            <g id="01-框架_-顶部">
                <g id="logo">
                    <g transform="translate(45.000000, 10.000000)">
                        <g id="大数据竞赛实训平台" transform="translate(0.000000, 4.000000)">
                            <path d="M47.14,14.6 L54.72,14.6 C54.853334,13.4933278 54.9266666,12.4200052 54.94,11.38 L54.94,9.58 L57.06,9.58 L57.06,10.9 C57.06,12.1533396 56.9866674,13.3866606 56.84,14.6 L64.86,14.6 L64.86,16.64 L57.32,16.64 C58.7600072,20.8133542 61.4266472,24.0399886 65.32,26.32 L64,28.04 C60.2266478,25.706655 57.5800076,22.4866872 56.06,18.38 C54.6999932,22.8333556 52.02002,26.1133228 48.02,28.22 L46.68,26.46 C50.7200202,24.4999902 53.2799946,21.2266896 54.36,16.64 L47.14,16.64 L47.14,14.6 Z M79.6857143,14.42 L79.4657143,15.22 C79.8923831,17.1266762 80.4457109,18.8399924 81.1257143,20.36 C81.6990505,18.6399914 82.0257139,16.6600112 82.1057143,14.42 L79.6857143,14.42 Z M80.1657143,22.56 C79.5257111,21.2799936 78.9590501,19.806675 78.4657143,18.14 C78.1857129,18.7666698 77.8723827,19.3866636 77.5257143,20 L76.2257143,18.38 C77.3323865,16.179989 78.0723791,13.2400184 78.4457143,9.56 L80.4857143,9.92 C80.3523803,10.9333384 80.2257143,11.7599968 80.1057143,12.4 L85.1057143,12.4 L85.1057143,14.42 L84.0257143,14.42 C83.9057137,17.6333494 83.3323861,20.3666554 82.3057143,22.62 C83.2523857,24.153341 84.3923743,25.3666622 85.7257143,26.26 L84.5257143,28.04 C83.2990415,27.1466622 82.2190523,25.9733406 81.2857143,24.52 C80.3257095,25.9733406 79.1590545,27.1933284 77.7857143,28.18 L76.6657143,26.38 C78.1057215,25.4333286 79.2723765,24.160008 80.1657143,22.56 Z M72.6857143,19.08 C72.5923805,19.3733348 72.4923815,19.653332 72.3857143,19.92 L76.3857143,19.92 L76.3857143,21.68 C76.0790461,22.813339 75.4857187,23.8266622 74.6057143,24.72 C75.3123845,25.0266682 76.0457105,25.379998 76.8057143,25.78 L75.6657143,27.46 C74.8523769,26.9799976 73.9457193,26.506669 72.9457143,26.04 C71.6657079,26.8533374 70.0190577,27.526664 68.0057143,28.06 L67.0057143,26.26 C68.4190547,25.9399984 69.6457091,25.5400024 70.6857143,25.06 L69.5310196,24.5922445 C69.0455784,24.397415 68.5971449,24.2200008 68.1857143,24.06 C68.6657167,23.259996 69.0857125,22.5000036 69.4457143,21.78 L67.4857143,21.78 L67.4857143,19.92 L70.2657143,19.92 L70.6689143,18.8273776 C70.6685588,18.8295703 70.6674921,18.8337777 70.6657143,18.84 L72.6857143,19.08 Z M72.6257143,23.92 C73.4523851,23.2666634 74.0657123,22.5533372 74.4657143,21.78 L71.5657143,21.78 C71.3923801,22.113335 71.1190495,22.5999968 70.7457143,23.24 C71.1723831,23.373334 71.7990435,23.5999984 72.6257143,23.92 Z M69.4257143,9.96 C69.8657165,10.6800036 70.2590459,11.4666624 70.6057143,12.32 L69.0057143,13.04 C68.6190457,12.106662 68.1857167,11.2666704 67.7057143,10.52 L69.4257143,9.96 Z M76.6057143,10.66 C76.1923789,11.526671 75.6857173,12.3466628 75.0857143,13.12 L73.5657143,12.32 C74.1257171,11.5066626 74.5923791,10.6866708 74.9657143,9.86 L76.6057143,10.66 Z M67.5457143,13.22 L71.2657143,13.22 L71.2657143,9.6 L73.1857143,9.6 L73.1857143,13.22 L76.5857143,13.22 L76.5857143,15.04 L73.1857143,15.04 L73.1857143,15.08 C74.2257195,15.4933354 75.2857089,15.9733306 76.3657143,16.52 L75.2857143,18.16 L74.7464537,17.7372828 C74.1415152,17.2694636 73.621272,16.8903718 73.1857143,16.6 L73.1857143,18.7 L71.2657143,18.7 L71.2657143,15.56 C70.5857109,16.9200068 69.5323881,18.1133282 68.1057143,19.14 L67.0657143,17.46 C68.3857209,16.7133296 69.3390447,15.906671 69.9257143,15.04 L67.5457143,15.04 L67.5457143,13.22 Z M88.1714286,27.9 L87.7314286,25.94 C88.3180982,26.0333338 88.7980934,26.08 89.1714286,26.08 C89.5980974,26.08 89.8114286,25.8266692 89.8114286,25.32 L89.8114286,21.28 L88.0552155,21.8930178 C87.9470501,21.9294674 87.8591212,21.9584614 87.7914286,21.98 L87.2514286,19.92 C88.131433,19.719999 88.9847578,19.4800014 89.8114286,19.2 L89.8114286,15.2 L87.6514286,15.2 L87.6514286,13.18 L89.8114286,13.18 L89.8114286,9.64 L91.8514286,9.64 L91.8514286,13.18 L93.5514286,13.18 L93.5514286,15.2 L91.8514286,15.2 L91.8514286,18.38 L92.6289803,18.0077548 C92.9468027,17.8521089 93.2276178,17.7095245 93.4714286,17.58 L93.4714286,19.62 L91.8514286,20.42 L91.8514286,25.84 C91.8514286,27.2133402 91.1914352,27.9 89.8714286,27.9 L88.1714286,27.9 Z M96.1914286,19.28 C95.9514274,22.6000166 95.1981016,25.5466538 93.9314286,28.12 L92.2914286,26.66 C93.5847684,24.126654 94.2447618,20.8533534 94.2714286,16.84 L94.2714286,10.2 L105.231429,10.2 L105.231429,15.5 L101.631429,15.5 L101.631429,17.38 L105.671429,17.38 L105.671429,19.28 L101.631429,19.28 L101.631429,21.2 L104.791429,21.2 L104.791429,28.08 L102.871429,28.08 L102.871429,27.26 L98.3714286,27.26 L98.3714286,28.08 L96.4514286,28.08 L96.4514286,21.2 L99.5914286,21.2 L99.5914286,19.28 L96.1914286,19.28 Z M99.5914286,15.5 L96.2914286,15.5 L96.2914286,17.1 L96.2714286,17.38 L99.5914286,17.38 L99.5914286,15.5 Z M98.3714286,25.42 L102.871429,25.42 L102.871429,23.04 L98.3714286,23.04 L98.3714286,25.42 Z M103.191429,12.1 L96.2914286,12.1 L96.2914286,13.66 L103.191429,13.66 L103.191429,12.1 Z M119.997143,27.66 C118.583802,27.66 117.877143,27.0066732 117.877143,25.7 L117.877143,23.14 L116.017143,23.14 C115.510474,24.4200064 114.903813,25.4133298 114.197143,26.12 C113.237138,27.0400046 111.343824,27.7399976 108.517143,28.22 L107.677143,26.26 C110.010488,26.02 111.623805,25.5533368 112.517143,24.86 C112.983812,24.5133316 113.417141,23.940004 113.817143,23.14 L110.397143,23.14 L110.397143,17.52 L123.337143,17.52 L123.337143,23.14 L119.977143,23.14 L119.977143,25.26 C119.977143,25.6200018 120.183807,25.8 120.597143,25.8 L123.277143,25.8 C123.530477,25.8 123.723809,25.6933344 123.857143,25.48 C124.00381,25.2266654 124.097143,24.533339 124.137143,23.4 L126.077143,24.02 C125.917142,25.7933422 125.650478,26.846665 125.277143,27.18 C124.943808,27.5000016 124.41048,27.66 123.677143,27.66 L119.997143,27.66 Z M112.117143,12.78 L109.057143,12.78 L109.057143,11.02 L115.797143,11.02 C115.623809,10.6333314 115.397144,10.2200022 115.117143,9.78 L117.417143,9.42 L117.586032,9.88222246 C117.70455,10.2140736 117.83492,10.5933312 117.977143,11.02 L124.537143,11.02 L124.537143,12.78 L121.597143,12.78 L120.877143,14.58 L125.597143,14.58 L125.597143,16.38 L108.117143,16.38 L108.117143,14.58 L112.797143,14.58 L112.117143,12.78 Z M114.977143,14.58 L118.697143,14.58 L119.417143,12.78 L114.297143,12.78 L114.977143,14.58 Z M121.317143,21.34 L121.317143,19.3 L112.417143,19.3 L112.417143,21.34 L121.317143,21.34 Z M140.642857,19.96 C140.242855,19.6533318 139.936192,19.3733346 139.722857,19.12 L134.462857,19.12 C134.182856,19.4000014 133.882859,19.6799986 133.562857,19.96 L140.642857,19.96 Z M142.082857,19.12 C143.096196,19.6800028 144.469515,20.1399982 146.202857,20.5 L145.362857,22.28 C144.562857,22.0266654 143.769528,21.7200018 142.982857,21.36 L142.982857,24.78 L140.942857,24.78 L140.942857,21.6 L133.542857,21.6 L133.542857,24.78 L131.522857,24.78 L131.522857,21.24 C130.82952,21.6000018 130.029528,21.946665 129.122857,22.28 L128.062857,20.54 C129.782866,20.1266646 131.122852,19.653336 132.082857,19.12 L128.602857,19.12 L128.602857,17.48 L133.802857,17.48 L133.802857,16.7 L131.502857,16.7 L131.502857,15.22 L133.802857,15.22 L133.802857,14.48 L131.102857,14.48 L131.102857,12.96 L133.802857,12.96 L133.802857,12.26 L130.722857,12.26 L130.722857,14.12 L128.722857,14.12 L128.722857,10.54 L135.982857,10.54 L135.382857,9.72 L137.602857,9.36 C137.842858,9.7733354 138.042856,10.1666648 138.202857,10.54 L145.562857,10.54 L145.562857,14.12 L143.562857,14.12 L143.562857,12.26 L140.462857,12.26 L140.462857,12.96 L143.182857,12.96 L143.182857,14.48 L140.462857,14.48 L140.462857,15.22 L142.802857,15.22 L142.802857,16.7 L140.462857,16.7 L140.462857,17.48 L145.722857,17.48 L145.722857,19.12 L142.082857,19.12 Z M138.422857,12.26 L135.842857,12.26 L135.842857,12.96 L138.422857,12.96 L138.422857,12.26 Z M135.842857,17.48 L138.422857,17.48 L138.422857,16.7 L135.842857,16.7 L135.842857,17.48 Z M138.422857,15.22 L138.422857,14.48 L135.842857,14.48 L135.842857,15.22 L138.422857,15.22 Z M138.642857,24.4 C140.776201,24.9866696 142.756181,25.7199956 144.582857,26.6 L143.522857,28.24 C141.642848,27.2666618 139.669534,26.4933362 137.602857,25.92 L138.642857,24.4 Z M138.002857,22.18 C137.750224,24.2389577 137.270229,25.6337376 136.562858,26.3643763 L136.442857,26.48 C135.616186,27.3733378 133.556207,27.9599986 130.262857,28.24 L129.462857,26.44 C132.129537,26.3199994 133.896186,25.9400032 134.762857,25.3 C135.536194,24.6599968 135.969523,23.5600078 136.062857,22 L138.002857,22.18 Z M165.888571,11.44 L165.888571,15.84 L163.768571,15.84 L163.768571,13.38 L151.088571,13.38 L151.088571,15.92 L148.968571,15.92 L148.968571,11.44 L156.448571,11.44 C156.195237,10.7866634 155.948573,10.2200024 155.708571,9.74 L157.928571,9.38 C158.155239,10.0200032 158.355237,10.706663 158.528571,11.44 L165.888571,11.44 Z M151.948571,16.7 C153.428579,17.2733362 154.761899,17.9399962 155.948571,18.7 L154.868571,20.34 C153.615232,19.4599956 152.295245,18.753336 150.908571,18.22 L151.948571,16.7 Z M153.088571,13.72 C154.555245,14.253336 155.861899,14.8933296 157.008571,15.64 L155.948571,17.28 C154.721899,16.3866622 153.435245,15.6866692 152.088571,15.18 L153.088571,13.72 Z M158.668571,14.02 L160.768571,14.02 L160.768571,16.58 C160.688571,18.0333406 160.441907,19.3799938 160.028571,20.62 L166.188571,20.62 L166.188571,22.56 L159.128571,22.56 L158.788571,23.1 C161.508585,24.0866716 163.941894,25.1999938 166.088571,26.44 L164.908571,28.26 C162.535226,26.7533258 160.075251,25.5266714 157.528571,24.58 C155.83523,26.113341 153.321921,27.3066624 149.988571,28.16 L148.848571,26.38 C152.60859,25.3933284 155.148565,24.1733406 156.468571,22.72 C156.495238,22.6666664 156.535238,22.6133336 156.588571,22.56 L148.608571,22.56 L148.608571,20.62 L157.748571,20.62 C158.255241,19.4466608 158.561904,18.1000076 158.668571,16.58 L158.668571,14.02 Z M180.154286,10.96 L182.154286,10.96 L182.154286,26.76 L180.154286,26.76 L180.154286,10.96 Z M184.314286,9.98 L186.354286,9.98 L186.354286,28.12 L184.314286,28.12 L184.314286,9.98 Z M176.174286,10.04 L178.194286,10.04 L178.194286,18.92 C178.154286,23.1600212 177.267628,26.2666568 175.534286,28.24 L173.954286,26.84 C175.394293,25.1999918 176.134286,22.5600182 176.174286,18.92 L176.174286,10.04 Z M171.274286,9.7 C172.514292,10.6600048 173.594281,11.6333284 174.514286,12.62 L173.074286,14.08 C172.327615,13.1733288 171.234293,12.1933386 169.794286,11.14 L171.274286,9.7 Z M168.494286,15.48 L173.234286,15.48 L173.234286,23.38 L173.59873,22.9977782 C173.675767,22.9192598 173.760952,22.8333338 173.854286,22.74 L174.514286,22.06 L175.074286,24.22 C173.967614,25.3666724 172.774292,26.406662 171.494286,27.34 L170.694286,25.48 C171.067621,25.1866652 171.254286,24.8133356 171.254286,24.36 L171.254286,17.48 L168.494286,17.48 L168.494286,15.48 Z M189.86,10.28 L206.2,10.28 L206.2,12.32 L198.98,12.32 L198.98,19.2 L206.94,19.2 L206.94,21.22 L198.98,21.22 L198.98,28.06 L196.86,28.06 L196.86,21.22 L189.06,21.22 L189.06,19.2 L196.86,19.2 L196.86,12.32 L189.86,12.32 L189.86,10.28 Z M192.8,13.12 C193.480003,14.3733396 194.17333,15.8599914 194.88,17.58 L192.92,18.54 C192.306664,16.939992 191.620004,15.4466736 190.86,14.06 L192.8,13.12 Z M205.28,13.94 C204.719997,15.473341 203.986671,16.9666594 203.08,18.42 L201.2,17.46 C202.093338,16.0199928 202.819997,14.5466742 203.38,13.04 L205.28,13.94 Z M225.185714,19.54 L225.185714,28.12 L223.065714,28.12 L223.065714,27.36 L213.505714,27.36 L213.505714,28.12 L211.385714,28.12 L211.385714,19.54 L225.185714,19.54 Z M213.505714,25.36 L223.065714,25.36 L223.065714,21.54 L213.505714,21.54 L213.505714,25.36 Z M209.745714,15.78 C211.159055,15.5533322 213.225701,13.4533532 215.945714,9.48 L218.105714,10.24 C216.51904,12.4133442 214.932389,14.2399926 213.345714,15.72 C216.58573,15.5599992 219.745699,15.3400014 222.825714,15.06 C222.239045,14.193329 221.625717,13.360004 220.985714,12.56 L222.885714,11.66 C224.445722,13.6200098 225.95904,15.8266544 227.425714,18.28 L225.385714,19.28 L225.098214,18.7574992 C224.793214,18.2124998 224.435716,17.6000034 224.025714,16.92 C219.865693,17.2933352 215.232406,17.5733324 210.125714,17.76 L209.745714,15.78 Z" fill="#FFFFFF" fill-rule="nonzero"></path>
                            <path d="M47.7324219,40 L47.7324219,32.8417969 L50.4179688,32.8417969 C50.9648465,32.8417969 51.4034814,32.9142245 51.7338867,33.059082 C52.064292,33.2039395 52.3230785,33.4269191 52.5102539,33.7280273 C52.6974293,34.0291356 52.7910156,34.3440739 52.7910156,34.6728516 C52.7910156,34.9788427 52.7080086,35.2669257 52.5419922,35.5371094 C52.3759757,35.807293 52.1253272,36.0253898 51.7900391,36.1914062 C52.2229839,36.31836 52.5558257,36.5348292 52.7885742,36.8408203 C53.0213228,37.1468114 53.1376953,37.5081359 53.1376953,37.9248047 C53.1376953,38.2600928 53.0668952,38.5717759 52.925293,38.8598633 C52.7836907,39.1479507 52.608725,39.3701164 52.4003906,39.5263672 C52.1920563,39.682618 51.9308284,39.8006181 51.6166992,39.8803711 C51.30257,39.9601241 50.9176455,40 50.4619141,40 L47.7324219,40 Z M48.6796875,35.8496094 L50.2275391,35.8496094 C50.647463,35.8496094 50.9485668,35.8219404 51.1308594,35.7666016 C51.371746,35.6949866 51.553222,35.5761727 51.675293,35.4101562 C51.7973639,35.2441398 51.8583984,35.0358085 51.8583984,34.7851562 C51.8583984,34.5475249 51.8014329,34.3383798 51.6875,34.1577148 C51.5735671,33.9770499 51.4108083,33.8533532 51.1992188,33.7866211 C50.9876292,33.719889 50.6246771,33.6865234 50.1103516,33.6865234 L48.6796875,33.6865234 L48.6796875,35.8496094 Z M48.6796875,36.6943359 L48.6796875,39.1552734 L50.4619141,39.1552734 C50.7679052,39.1552734 50.9827468,39.1438803 51.1064453,39.1210938 C51.3245454,39.0820311 51.5068352,39.0169275 51.6533203,38.9257812 C51.7998054,38.834635 51.9202469,38.7019865 52.0146484,38.527832 C52.10905,38.3536775 52.15625,38.1526704 52.15625,37.9248047 C52.15625,37.6578763 52.0878913,37.425945 51.9511719,37.2290039 C51.8144524,37.0320628 51.6248385,36.8937178 51.3823242,36.8139648 C51.13981,36.7342118 50.7906924,36.6943359 50.3349609,36.6943359 L48.6796875,36.6943359 Z M54.6025391,40 L54.6025391,32.8417969 L55.5498047,32.8417969 L55.5498047,40 L54.6025391,40 Z M60.5693359,37.1923828 L60.5693359,36.3525391 L63.6015625,36.3476562 L63.6015625,39.0039062 C63.1360654,39.3750019 62.655927,39.6541332 62.1611328,39.8413086 C61.6663387,40.028484 61.1585312,40.1220703 60.6376953,40.1220703 C59.9345668,40.1220703 59.2957385,39.9715184 58.7211914,39.6704102 C58.1466443,39.3693019 57.7128921,38.9339221 57.4199219,38.3642578 C57.1269517,37.7945935 56.9804688,37.1582066 56.9804688,36.4550781 C56.9804688,35.7584601 57.1261379,35.1082387 57.4174805,34.5043945 C57.7088231,33.9005504 58.127927,33.4521499 58.6748047,33.1591797 C59.2216824,32.8662095 59.8515589,32.7197266 60.5644531,32.7197266 C61.0820338,32.7197266 61.5499654,32.8035473 61.9682617,32.9711914 C62.3865581,33.1388355 62.714517,33.3723943 62.9521484,33.671875 C63.1897798,33.9713557 63.3704421,34.3619768 63.4941406,34.84375 L62.6396484,35.078125 C62.532226,34.7135398 62.3987638,34.4270844 62.2392578,34.21875 C62.0797518,34.0104156 61.8518895,33.8435879 61.5556641,33.7182617 C61.2594386,33.5929356 60.9306659,33.5302734 60.5693359,33.5302734 C60.1363911,33.5302734 59.7620458,33.5961907 59.4462891,33.7280273 C59.1305323,33.8598639 58.8758148,34.0332021 58.6821289,34.2480469 C58.488443,34.4628917 58.3378912,34.6988919 58.2304688,34.9560547 C58.0481762,35.3987652 57.9570312,35.8789037 57.9570312,36.3964844 C57.9570312,37.0345084 58.0668934,37.5683572 58.2866211,37.9980469 C58.5063488,38.4277365 58.8261698,38.7467438 59.2460938,38.9550781 C59.6660177,39.1634125 60.1119768,39.2675781 60.5839844,39.2675781 C60.9941427,39.2675781 61.3945293,39.1886401 61.7851562,39.0307617 C62.1757832,38.8728833 62.4720042,38.704428 62.6738281,38.5253906 L62.6738281,37.1923828 L60.5693359,37.1923828 Z M67.7763672,40 L67.7763672,32.8417969 L70.2421875,32.8417969 C70.7988309,32.8417969 71.2236313,32.8759762 71.5166016,32.9443359 C71.9267599,33.0387375 72.2766913,33.2096342 72.5664062,33.4570312 C72.9440123,33.7760433 73.2263988,34.183754 73.4135742,34.6801758 C73.6007496,35.1765975 73.6943359,35.7438119 73.6943359,36.3818359 C73.6943359,36.9254584 73.63086,37.4072245 73.5039062,37.8271484 C73.3769525,38.2470724 73.2141937,38.5945624 73.015625,38.8696289 C72.8170563,39.1446954 72.5997733,39.3611646 72.3637695,39.519043 C72.1277657,39.6769214 71.8429379,39.7965491 71.5092773,39.8779297 C71.1756168,39.9593103 70.7923199,40 70.359375,40 L67.7763672,40 Z M68.7236328,39.1552734 L70.2519531,39.1552734 C70.7239607,39.1552734 71.0942369,39.1113286 71.362793,39.0234375 C71.631349,38.9355464 71.8453768,38.8118498 72.0048828,38.6523438 C72.2294933,38.4277333 72.404459,38.1258157 72.5297852,37.746582 C72.6551113,37.3673484 72.7177734,36.9075548 72.7177734,36.3671875 C72.7177734,35.6184858 72.5948906,35.0431335 72.3491211,34.6411133 C72.1033516,34.239093 71.8046893,33.9697272 71.453125,33.8330078 C71.1992175,33.7353511 70.7906929,33.6865234 70.2275391,33.6865234 L68.7236328,33.6865234 L68.7236328,39.1552734 Z M74.2119141,40 L76.9609375,32.8417969 L77.9814453,32.8417969 L80.9111328,40 L79.8320312,40 L78.9970703,37.8320312 L76.0039062,37.8320312 L75.2177734,40 L74.2119141,40 Z M76.2773438,37.0605469 L78.7041016,37.0605469 L77.9570312,35.078125 C77.7291655,34.4759084 77.5598964,33.9811217 77.4492188,33.59375 C77.3580725,34.0527367 77.229493,34.5084613 77.0634766,34.9609375 L76.2773438,37.0605469 Z M83.4892578,40 L83.4892578,33.6865234 L81.1308594,33.6865234 L81.1308594,32.8417969 L86.8046875,32.8417969 L86.8046875,33.6865234 L84.4365234,33.6865234 L84.4365234,40 L83.4892578,40 Z M86.9902344,40 L89.7392578,32.8417969 L90.7597656,32.8417969 L93.6894531,40 L92.6103516,40 L91.7753906,37.8320312 L88.7822266,37.8320312 L87.9960938,40 L86.9902344,40 Z M89.0556641,37.0605469 L91.4824219,37.0605469 L90.7353516,35.078125 C90.5074858,34.4759084 90.3382167,33.9811217 90.2275391,33.59375 C90.1363928,34.0527367 90.0078133,34.5084613 89.8417969,34.9609375 L89.0556641,37.0605469 Z M102.332031,37.4902344 L103.279297,37.7294922 C103.080728,38.5074909 102.723473,39.1007467 102.20752,39.5092773 C101.691566,39.917808 101.060876,40.1220703 100.31543,40.1220703 C99.5439415,40.1220703 98.9165063,39.9650081 98.4331055,39.6508789 C97.9497046,39.3367497 97.5818698,38.8818389 97.3295898,38.2861328 C97.0773099,37.6904267 96.9511719,37.0507847 96.9511719,36.3671875 C96.9511719,35.6217411 97.0935858,34.9715197 97.378418,34.4165039 C97.6632501,33.8614881 98.0685195,33.4399428 98.5942383,33.1518555 C99.1199571,32.8637681 99.6985646,32.7197266 100.330078,32.7197266 C101.046228,32.7197266 101.648435,32.9020164 102.136719,33.2666016 C102.625002,33.6311867 102.965168,34.1438769 103.157227,34.8046875 L102.224609,35.0244141 C102.058593,34.5035781 101.81771,34.1243501 101.501953,33.8867188 C101.186196,33.6490874 100.789065,33.5302734 100.310547,33.5302734 C99.7604139,33.5302734 99.3006203,33.6621081 98.9311523,33.9257812 C98.5616844,34.1894544 98.3020841,34.5434548 98.1523438,34.987793 C98.0026034,35.4321311 97.9277344,35.8902971 97.9277344,36.3623047 C97.9277344,36.9710317 98.0164379,37.5024391 98.1938477,37.956543 C98.3712574,38.4106468 98.6471335,38.7499989 99.0214844,38.9746094 C99.3958352,39.1992199 99.8011046,39.3115234 100.237305,39.3115234 C100.767906,39.3115234 101.217121,39.1585302 101.584961,38.8525391 C101.952801,38.5465479 102.201822,38.0924509 102.332031,37.4902344 Z M104.006836,37.4072266 C104.006836,36.4469353 104.27376,35.7356794 104.807617,35.2734375 C105.253583,34.889321 105.797197,34.6972656 106.438477,34.6972656 C107.151371,34.6972656 107.734047,34.9308245 108.186523,35.3979492 C108.639,35.865074 108.865234,36.5104125 108.865234,37.3339844 C108.865234,38.0013054 108.765138,38.5262025 108.564941,38.9086914 C108.364745,39.2911803 108.073407,39.5882151 107.690918,39.7998047 C107.308429,40.0113943 106.890953,40.1171875 106.438477,40.1171875 C105.712561,40.1171875 105.125816,39.8844424 104.678223,39.4189453 C104.230629,38.9534482 104.006836,38.282882 104.006836,37.4072266 Z M104.910156,37.4072266 C104.910156,38.0712924 105.055012,38.5685205 105.344727,38.8989258 C105.634442,39.2293311 105.999021,39.3945312 106.438477,39.3945312 C106.874677,39.3945312 107.237629,39.2285173 107.527344,38.8964844 C107.817059,38.5644515 107.961914,38.0582716 107.961914,37.3779297 C107.961914,36.7366504 107.816245,36.2508155 107.524902,35.9204102 C107.23356,35.5900049 106.871421,35.4248047 106.438477,35.4248047 C105.999021,35.4248047 105.634442,35.5891911 105.344727,35.9179688 C105.055012,36.2467464 104.910156,36.7431607 104.910156,37.4072266 Z M109.895508,40 L109.895508,34.8144531 L110.681641,34.8144531 L110.681641,35.5419922 C110.844402,35.2880847 111.060871,35.0838224 111.331055,34.9291992 C111.601238,34.774576 111.908852,34.6972656 112.253906,34.6972656 C112.638023,34.6972656 112.952961,34.7770174 113.19873,34.9365234 C113.4445,35.0960294 113.617838,35.319009 113.71875,35.6054688 C114.128908,34.999997 114.662757,34.6972656 115.320312,34.6972656 C115.834638,34.6972656 116.230142,34.8396796 116.506836,35.1245117 C116.78353,35.4093439 116.921875,35.8479788 116.921875,36.4404297 L116.921875,40 L116.047852,40 L116.047852,36.7333984 C116.047852,36.3818342 116.019369,36.1287443 115.962402,35.9741211 C115.905436,35.8194979 115.802084,35.6949875 115.652344,35.6005859 C115.502603,35.5061844 115.326824,35.4589844 115.125,35.4589844 C114.760415,35.4589844 114.457683,35.5802397 114.216797,35.8227539 C113.97591,36.0652681 113.855469,36.4534479 113.855469,36.9873047 L113.855469,40 L112.976562,40 L112.976562,36.6308594 C112.976562,36.2402324 112.904949,35.9472666 112.761719,35.7519531 C112.618489,35.5566396 112.384116,35.4589844 112.058594,35.4589844 C111.811197,35.4589844 111.582521,35.5240879 111.372559,35.6542969 C111.162597,35.7845059 111.010417,35.9749336 110.916016,36.2255859 C110.821614,36.4762382 110.774414,36.8375627 110.774414,37.3095703 L110.774414,40 L109.895508,40 Z M118.225586,41.9873047 L118.225586,34.8144531 L119.026367,34.8144531 L119.026367,35.4882812 C119.21517,35.2246081 119.428384,35.0268561 119.666016,34.8950195 C119.903647,34.7631829 120.19173,34.6972656 120.530273,34.6972656 C120.972984,34.6972656 121.363605,34.8111968 121.702148,35.0390625 C122.040692,35.2669282 122.296223,35.5883768 122.46875,36.003418 C122.641277,36.4184591 122.727539,36.8733699 122.727539,37.3681641 C122.727539,37.8987657 122.632325,38.3764627 122.441895,38.8012695 C122.251464,39.2260763 121.974774,39.5515939 121.611816,39.777832 C121.248859,40.0040701 120.86719,40.1171875 120.466797,40.1171875 C120.173827,40.1171875 119.910971,40.0553392 119.678223,39.9316406 C119.445474,39.8079421 119.254233,39.6516937 119.104492,39.4628906 L119.104492,41.9873047 L118.225586,41.9873047 Z M119.021484,37.4365234 C119.021484,38.1038445 119.156574,38.5970036 119.426758,38.9160156 C119.696941,39.2350276 120.024087,39.3945312 120.408203,39.3945312 C120.79883,39.3945312 121.133299,39.2293311 121.411621,38.8989258 C121.689943,38.5685205 121.829102,38.0566441 121.829102,37.3632812 C121.829102,36.7024707 121.693198,36.2076839 121.421387,35.8789062 C121.149575,35.5501286 120.824872,35.3857422 120.447266,35.3857422 C120.072915,35.3857422 119.741701,35.5607079 119.453613,35.9106445 C119.165526,36.2605812 119.021484,36.7692024 119.021484,37.4365234 Z M127.336914,38.3300781 L128.245117,38.4423828 C128.101887,38.9729844 127.83659,39.3847642 127.449219,39.6777344 C127.061847,39.9707046 126.56706,40.1171875 125.964844,40.1171875 C125.206376,40.1171875 124.604983,39.8836286 124.160645,39.4165039 C123.716306,38.9493792 123.494141,38.294275 123.494141,37.4511719 C123.494141,36.5787717 123.718748,35.9016951 124.167969,35.4199219 C124.61719,34.9381486 125.199866,34.6972656 125.916016,34.6972656 C126.609378,34.6972656 127.175779,34.9332659 127.615234,35.4052734 C128.05469,35.877281 128.274414,36.5413369 128.274414,37.3974609 L128.269531,37.6318359 L128.269531,37.6318359 L124.402344,37.6318359 C124.434896,38.2015002 124.596027,38.6376938 124.885742,38.9404297 C125.175457,39.2431656 125.536782,39.3945312 125.969727,39.3945312 C126.291994,39.3945312 126.567056,39.3098967 126.794922,39.140625 C127.022788,38.9713533 127.20345,38.7011737 127.336914,38.3300781 Z M124.451172,36.9091797 L127.34668,36.9091797 C127.307617,36.4729796 127.196941,36.1458344 127.014648,35.9277344 C126.734699,35.589191 126.371747,35.4199219 125.925781,35.4199219 C125.522133,35.4199219 125.182781,35.5550117 124.907715,35.8251953 C124.632648,36.095379 124.480469,36.4567035 124.451172,36.9091797 Z M131.267578,39.2138672 L131.394531,39.9902344 C131.147134,40.042318 130.925782,40.0683594 130.730469,40.0683594 C130.411457,40.0683594 130.164063,40.0179042 129.988281,39.9169922 C129.812499,39.8160802 129.688802,39.6834318 129.617188,39.519043 C129.545573,39.3546541 129.509766,39.0087917 129.509766,38.4814453 L129.509766,35.4980469 L128.865234,35.4980469 L128.865234,34.8144531 L129.509766,34.8144531 L129.509766,33.5302734 L130.383789,33.0029297 L130.383789,34.8144531 L131.267578,34.8144531 L131.267578,35.4980469 L130.383789,35.4980469 L130.383789,38.5302734 L130.388943,38.7510855 C130.395815,38.8784003 130.409559,38.9659286 130.430176,39.0136719 C130.4611,39.0852868 130.511556,39.1422524 130.581543,39.1845703 C130.65153,39.2268882 130.751627,39.2480469 130.881836,39.2480469 L131.051514,39.239502 C131.115804,39.2338054 131.187825,39.2252605 131.267578,39.2138672 Z M132.131836,33.8525391 L132.131836,32.8417969 L133.010742,32.8417969 L133.010742,33.8525391 L132.131836,33.8525391 Z M132.131836,40 L132.131836,34.8144531 L133.010742,34.8144531 L133.010742,40 L132.131836,40 Z M136.267578,39.2138672 L136.394531,39.9902344 C136.147134,40.042318 135.925782,40.0683594 135.730469,40.0683594 C135.411457,40.0683594 135.164063,40.0179042 134.988281,39.9169922 C134.812499,39.8160802 134.688802,39.6834318 134.617188,39.519043 C134.545573,39.3546541 134.509766,39.0087917 134.509766,38.4814453 L134.509766,35.4980469 L133.865234,35.4980469 L133.865234,34.8144531 L134.509766,34.8144531 L134.509766,33.5302734 L135.383789,33.0029297 L135.383789,34.8144531 L136.267578,34.8144531 L136.267578,35.4980469 L135.383789,35.4980469 L135.383789,38.5302734 L135.388943,38.7510855 C135.395815,38.8784003 135.409559,38.9659286 135.430176,39.0136719 C135.4611,39.0852868 135.511556,39.1422524 135.581543,39.1845703 C135.65153,39.2268882 135.751627,39.2480469 135.881836,39.2480469 L136.051514,39.239502 C136.115804,39.2338054 136.187825,39.2252605 136.267578,39.2138672 Z M137.131836,33.8525391 L137.131836,32.8417969 L138.010742,32.8417969 L138.010742,33.8525391 L137.131836,33.8525391 Z M137.131836,40 L137.131836,34.8144531 L138.010742,34.8144531 L138.010742,40 L137.131836,40 Z M139.021484,37.4072266 C139.021484,36.4469353 139.288409,35.7356794 139.822266,35.2734375 C140.268231,34.889321 140.811846,34.6972656 141.453125,34.6972656 C142.166019,34.6972656 142.748696,34.9308245 143.201172,35.3979492 C143.653648,35.865074 143.879883,36.5104125 143.879883,37.3339844 C143.879883,38.0013054 143.779786,38.5262025 143.57959,38.9086914 C143.379394,39.2911803 143.088055,39.5882151 142.705566,39.7998047 C142.323078,40.0113943 141.905601,40.1171875 141.453125,40.1171875 C140.72721,40.1171875 140.140464,39.8844424 139.692871,39.4189453 C139.245278,38.9534482 139.021484,38.282882 139.021484,37.4072266 Z M139.924805,37.4072266 C139.924805,38.0712924 140.06966,38.5685205 140.359375,38.8989258 C140.64909,39.2293311 141.01367,39.3945312 141.453125,39.3945312 C141.889325,39.3945312 142.252277,39.2285173 142.541992,38.8964844 C142.831707,38.5644515 142.976562,38.0582716 142.976562,37.3779297 C142.976562,36.7366504 142.830893,36.2508155 142.539551,35.9204102 C142.248208,35.5900049 141.88607,35.4248047 141.453125,35.4248047 C141.01367,35.4248047 140.64909,35.5891911 140.359375,35.9179688 C140.06966,36.2467464 139.924805,36.7431607 139.924805,37.4072266 Z M144.910156,40 L144.910156,34.8144531 L145.701172,34.8144531 L145.701172,35.5517578 C146.082033,34.9820935 146.632158,34.6972656 147.351562,34.6972656 C147.664064,34.6972656 147.951333,34.7534174 148.213379,34.8657227 C148.475424,34.9780279 148.671549,35.1253246 148.801758,35.3076172 C148.931967,35.4899098 149.023112,35.706379 149.075195,35.9570312 C149.107748,36.1197925 149.124023,36.4046204 149.124023,36.8115234 L149.124023,40 L148.245117,40 L148.245117,36.8457031 C148.245117,36.4876284 148.210938,36.2198902 148.142578,36.0424805 C148.074218,35.8650707 147.952963,35.7234706 147.778809,35.6176758 C147.604654,35.511881 147.400392,35.4589844 147.166016,35.4589844 C146.791665,35.4589844 146.468589,35.5777983 146.196777,35.8154297 C145.924966,36.0530611 145.789062,36.5039029 145.789062,37.1679688 L145.789062,40 L144.910156,40 Z M155.183594,40 L155.183594,33.6865234 L152.825195,33.6865234 L152.825195,32.8417969 L158.499023,32.8417969 L158.499023,33.6865234 L156.130859,33.6865234 L156.130859,40 L155.183594,40 Z M159.348633,40 L159.348633,34.8144531 L160.139648,34.8144531 L160.139648,35.6005859 C160.341472,35.2327456 160.527831,34.990235 160.69873,34.8730469 C160.86963,34.7558588 161.057616,34.6972656 161.262695,34.6972656 C161.558921,34.6972656 161.860025,34.7916657 162.166016,34.9804688 L161.863281,35.7958984 C161.648436,35.6689447 161.433595,35.6054688 161.21875,35.6054688 C161.026692,35.6054688 160.854167,35.6632481 160.701172,35.7788086 C160.548176,35.8943691 160.439128,36.0546865 160.374023,36.2597656 C160.276367,36.5722672 160.227539,36.9140606 160.227539,37.2851562 L160.227539,40 L159.348633,40 Z M166.072266,39.3603516 C165.746743,39.6370457 165.433432,39.8323562 165.132324,39.9462891 C164.831216,40.0602219 164.50814,40.1171875 164.163086,40.1171875 C163.593422,40.1171875 163.1556,39.9780287 162.849609,39.699707 C162.543618,39.4213853 162.390625,39.0657574 162.390625,38.6328125 C162.390625,38.378905 162.448404,38.1469737 162.563965,37.9370117 C162.679525,37.7270497 162.830891,37.5585944 163.018066,37.4316406 C163.205242,37.3046869 163.416014,37.2086592 163.650391,37.1435547 C163.822918,37.0979815 164.083332,37.0540367 164.431641,37.0117188 C165.14128,36.9270829 165.663735,36.8261725 165.999023,36.7089844 L166.003906,36.4794922 L166.003906,36.4794922 C166.003906,36.1214175 165.920899,35.8691414 165.754883,35.7226562 C165.530272,35.5240875 165.196617,35.4248047 164.753906,35.4248047 C164.340493,35.4248047 164.03532,35.4972323 163.838379,35.6420898 C163.641438,35.7869473 163.495769,36.0432924 163.401367,36.4111328 L162.541992,36.2939453 C162.620118,35.9261049 162.748697,35.6290701 162.927734,35.402832 C163.106772,35.1765939 163.365558,35.002442 163.704102,34.8803711 C164.042645,34.7583002 164.434894,34.6972656 164.880859,34.6972656 C165.32357,34.6972656 165.683267,34.7493484 165.959961,34.8535156 C166.236655,34.9576828 166.440104,35.0887036 166.570312,35.246582 C166.700521,35.4044604 166.791666,35.6038399 166.84375,35.8447266 C166.873047,35.9944669 166.887695,36.2646465 166.887695,36.6552734 L166.889552,38.2430363 C166.89512,38.8221954 166.913219,39.2003276 166.943848,39.3774414 C166.981283,39.5939138 167.055338,39.8014313 167.166016,40 L166.248047,40 C166.156901,39.8177074 166.098307,39.6044934 166.072266,39.3603516 Z M165.999023,37.3974609 C165.719888,37.5113938 165.318636,37.6103717 164.795258,37.6943969 L164.563477,37.7294922 C164.202147,37.7815758 163.946615,37.8401689 163.796875,37.9052734 C163.647135,37.9703779 163.531576,38.0655918 163.450195,38.190918 C163.368815,38.3162441 163.328125,38.4554029 163.328125,38.6083984 C163.328125,38.8427746 163.416829,39.0380852 163.594238,39.1943359 C163.771648,39.3505867 164.031248,39.4287109 164.373047,39.4287109 C164.71159,39.4287109 165.012694,39.3546557 165.276367,39.206543 C165.54004,39.0584302 165.733723,38.8557956 165.857422,38.5986328 C165.951823,38.4000641 165.999023,38.1070983 165.999023,37.7197266 L165.999023,37.3974609 Z M168.254883,33.8525391 L168.254883,32.8417969 L169.133789,32.8417969 L169.133789,33.8525391 L168.254883,33.8525391 Z M168.254883,40 L168.254883,34.8144531 L169.133789,34.8144531 L169.133789,40 L168.254883,40 Z M170.47168,40 L170.47168,34.8144531 L171.262695,34.8144531 L171.262695,35.5517578 C171.643557,34.9820935 172.193681,34.6972656 172.913086,34.6972656 C173.225588,34.6972656 173.512857,34.7534174 173.774902,34.8657227 C174.036948,34.9780279 174.233072,35.1253246 174.363281,35.3076172 C174.49349,35.4899098 174.584635,35.706379 174.636719,35.9570312 C174.669271,36.1197925 174.685547,36.4046204 174.685547,36.8115234 L174.685547,40 L173.806641,40 L173.806641,36.8457031 C173.806641,36.4876284 173.772461,36.2198902 173.704102,36.0424805 C173.635742,35.8650707 173.514487,35.7234706 173.340332,35.6176758 C173.166178,35.511881 172.961915,35.4589844 172.727539,35.4589844 C172.353188,35.4589844 172.030112,35.5777983 171.758301,35.8154297 C171.48649,36.0530611 171.350586,36.5039029 171.350586,37.1679688 L171.350586,40 L170.47168,40 Z M176.038086,33.8525391 L176.038086,32.8417969 L176.916992,32.8417969 L176.916992,33.8525391 L176.038086,33.8525391 Z M176.038086,40 L176.038086,34.8144531 L176.916992,34.8144531 L176.916992,40 L176.038086,40 Z M178.254883,40 L178.254883,34.8144531 L179.045898,34.8144531 L179.045898,35.5517578 C179.42676,34.9820935 179.976884,34.6972656 180.696289,34.6972656 C181.008791,34.6972656 181.29606,34.7534174 181.558105,34.8657227 C181.820151,34.9780279 182.016275,35.1253246 182.146484,35.3076172 C182.276693,35.4899098 182.367838,35.706379 182.419922,35.9570312 C182.452474,36.1197925 182.46875,36.4046204 182.46875,36.8115234 L182.46875,40 L181.589844,40 L181.589844,36.8457031 C181.589844,36.4876284 181.555664,36.2198902 181.487305,36.0424805 C181.418945,35.8650707 181.29769,35.7234706 181.123535,35.6176758 C180.949381,35.511881 180.745118,35.4589844 180.510742,35.4589844 C180.136391,35.4589844 179.813315,35.5777983 179.541504,35.8154297 C179.269693,36.0530611 179.133789,36.5039029 179.133789,37.1679688 L179.133789,40 L178.254883,40 Z M183.655273,40.4296875 L184.509766,40.5566406 C184.545573,40.8203138 184.644856,41.0123692 184.807617,41.1328125 C185.025717,41.2955737 185.323566,41.3769531 185.701172,41.3769531 C186.108075,41.3769531 186.422199,41.2955737 186.643555,41.1328125 C186.86491,40.9700513 187.014648,40.742189 187.092773,40.4492188 C187.138347,40.2701814 187.159505,39.8942086 187.15625,39.3212891 C186.772133,39.7737653 186.293623,40 185.720703,40 C185.007809,40 184.456057,39.7428411 184.06543,39.2285156 C183.674803,38.7141901 183.479492,38.0973343 183.479492,37.3779297 C183.479492,36.8831355 183.56901,36.4265971 183.748047,36.0083008 C183.927084,35.5900044 184.186684,35.2669282 184.526855,35.0390625 C184.867026,34.8111968 185.266599,34.6972656 185.725586,34.6972656 C186.337568,34.6972656 186.84212,34.944659 187.239258,35.4394531 L187.239258,34.8144531 L188.049805,34.8144531 L188.049805,39.296875 C188.049805,40.1041707 187.967611,40.6762678 187.803223,41.0131836 C187.638834,41.3500993 187.37842,41.61621 187.021973,41.8115234 C186.665526,42.0068369 186.226891,42.1044922 185.706055,42.1044922 C185.087562,42.1044922 184.587893,41.9653334 184.207031,41.6870117 C183.82617,41.40869 183.642253,40.9895861 183.655273,40.4296875 Z M184.382812,37.3144531 C184.382812,37.9947951 184.517902,38.4912094 184.788086,38.8037109 C185.05827,39.1162125 185.396808,39.2724609 185.803711,39.2724609 C186.207359,39.2724609 186.545897,39.1170263 186.819336,38.8061523 C187.092775,38.4952784 187.229492,38.0078158 187.229492,37.34375 C187.229492,36.7089812 187.088706,36.2304704 186.807129,35.9082031 C186.525552,35.5859359 186.1862,35.4248047 185.789062,35.4248047 C185.398436,35.4248047 185.066408,35.5834945 184.792969,35.9008789 C184.51953,36.2182633 184.382812,36.68945 184.382812,37.3144531 Z M192.268555,40 L192.268555,32.8417969 L194.96875,32.8417969 C195.444013,32.8417969 195.806965,32.8645831 196.057617,32.9101562 C196.409181,32.9687503 196.703775,33.0802401 196.941406,33.2446289 C197.179038,33.4090177 197.370279,33.6393214 197.515137,33.9355469 C197.659994,34.2317723 197.732422,34.5572899 197.732422,34.9121094 C197.732422,35.5208364 197.538739,36.0359679 197.151367,36.4575195 C196.763995,36.8790711 196.064133,37.0898438 195.051758,37.0898438 L193.21582,37.0898438 L193.21582,40 L192.268555,40 Z M193.21582,36.2451172 L195.066406,36.2451172 C195.678388,36.2451172 196.112954,36.131186 196.370117,35.9033203 C196.62728,35.6754546 196.755859,35.3548198 196.755859,34.9414062 C196.755859,34.6419256 196.680177,34.3855805 196.528809,34.1723633 C196.377441,33.9591461 196.178061,33.8183597 195.930664,33.75 C195.793945,33.7137275 195.557977,33.6930006 195.222757,33.6878189 L193.21582,33.6865234 L193.21582,36.2451172 Z M198.806641,40 L198.806641,32.8417969 L199.685547,32.8417969 L199.685547,40 L198.806641,40 Z M204.431641,39.3603516 C204.106118,39.6370457 203.792807,39.8323562 203.491699,39.9462891 C203.190591,40.0602219 202.867515,40.1171875 202.522461,40.1171875 C201.952797,40.1171875 201.514975,39.9780287 201.208984,39.699707 C200.902993,39.4213853 200.75,39.0657574 200.75,38.6328125 C200.75,38.378905 200.807779,38.1469737 200.92334,37.9370117 C201.0389,37.7270497 201.190266,37.5585944 201.377441,37.4316406 C201.564617,37.3046869 201.775389,37.2086592 202.009766,37.1435547 C202.147787,37.1070962 202.342056,37.0716798 202.592578,37.0373047 L202.791016,37.0117188 C203.500655,36.9270829 204.02311,36.8261725 204.358398,36.7089844 L204.363281,36.4794922 L204.363281,36.4794922 C204.363281,36.1214175 204.280274,35.8691414 204.114258,35.7226562 C203.889647,35.5240875 203.555992,35.4248047 203.113281,35.4248047 C202.699868,35.4248047 202.394695,35.4972323 202.197754,35.6420898 C202.000813,35.7869473 201.855144,36.0432924 201.760742,36.4111328 L200.901367,36.2939453 C200.979493,35.9261049 201.108072,35.6290701 201.287109,35.402832 C201.466147,35.1765939 201.724933,35.002442 202.063477,34.8803711 C202.40202,34.7583002 202.794269,34.6972656 203.240234,34.6972656 C203.682945,34.6972656 204.042642,34.7493484 204.319336,34.8535156 C204.59603,34.9576828 204.799479,35.0887036 204.929688,35.246582 C205.059896,35.4044604 205.151041,35.6038399 205.203125,35.8447266 C205.232422,35.9944669 205.24707,36.2646465 205.24707,36.6552734 L205.248927,38.2430363 C205.254495,38.8221954 205.272594,39.2003276 205.303223,39.3774414 C205.340658,39.5939138 205.414713,39.8014313 205.525391,40 L204.607422,40 C204.516276,39.8177074 204.457682,39.6044934 204.431641,39.3603516 Z M204.358398,37.3974609 C204.079263,37.5113938 203.678011,37.6103717 203.154633,37.6943969 L202.922852,37.7294922 C202.561522,37.7815758 202.30599,37.8401689 202.15625,37.9052734 C202.00651,37.9703779 201.890951,38.0655918 201.80957,38.190918 C201.72819,38.3162441 201.6875,38.4554029 201.6875,38.6083984 C201.6875,38.8427746 201.776204,39.0380852 201.953613,39.1943359 C202.131023,39.3505867 202.390623,39.4287109 202.732422,39.4287109 C203.070965,39.4287109 203.372069,39.3546557 203.635742,39.206543 C203.899415,39.0584302 204.093098,38.8557956 204.216797,38.5986328 C204.311198,38.4000641 204.358398,38.1070983 204.358398,37.7197266 L204.358398,37.3974609 Z M208.52832,39.2138672 L208.655273,39.9902344 C208.407876,40.042318 208.186524,40.0683594 207.991211,40.0683594 C207.672199,40.0683594 207.424806,40.0179042 207.249023,39.9169922 C207.073241,39.8160802 206.949545,39.6834318 206.87793,39.519043 C206.806315,39.3546541 206.770508,39.0087917 206.770508,38.4814453 L206.770508,35.4980469 L206.125977,35.4980469 L206.125977,34.8144531 L206.770508,34.8144531 L206.770508,33.5302734 L207.644531,33.0029297 L207.644531,34.8144531 L208.52832,34.8144531 L208.52832,35.4980469 L207.644531,35.4980469 L207.644531,38.5302734 C207.644531,38.7809257 207.659993,38.9420569 207.690918,39.0136719 C207.721843,39.0852868 207.772298,39.1422524 207.842285,39.1845703 C207.912272,39.2268882 208.012369,39.2480469 208.142578,39.2480469 L208.312256,39.239502 C208.376546,39.2338054 208.448567,39.2252605 208.52832,39.2138672 Z M209.597656,40 L209.597656,35.4980469 L208.821289,35.4980469 L208.821289,34.8144531 L209.597656,34.8144531 L209.597656,34.2626953 C209.597656,33.9143863 209.62858,33.6555998 209.69043,33.4863281 C209.775066,33.2584624 209.92399,33.0737312 210.137207,32.9321289 C210.350424,32.7905266 210.649087,32.7197266 211.033203,32.7197266 C211.2806,32.7197266 211.554035,32.7490231 211.853516,32.8076172 L211.72168,33.5742188 C211.539387,33.5416665 211.366863,33.5253906 211.204102,33.5253906 C210.937173,33.5253906 210.748373,33.5823562 210.637695,33.6962891 C210.527018,33.8102219 210.47168,34.0234359 210.47168,34.3359375 L210.47168,34.8144531 L211.482422,34.8144531 L211.482422,35.4980469 L210.47168,35.4980469 L210.47168,40 L209.597656,40 Z M211.838867,37.4072266 C211.838867,36.4469353 212.105792,35.7356794 212.639648,35.2734375 C213.085614,34.889321 213.629229,34.6972656 214.270508,34.6972656 C214.983402,34.6972656 215.566078,34.9308245 216.018555,35.3979492 C216.471031,35.865074 216.697266,36.5104125 216.697266,37.3339844 C216.697266,38.0013054 216.597169,38.5262025 216.396973,38.9086914 C216.196776,39.2911803 215.905438,39.5882151 215.522949,39.7998047 C215.14046,40.0113943 214.722984,40.1171875 214.270508,40.1171875 C213.544593,40.1171875 212.957847,39.8844424 212.510254,39.4189453 C212.062661,38.9534482 211.838867,38.282882 211.838867,37.4072266 Z M212.742188,37.4072266 C212.742188,38.0712924 212.887043,38.5685205 213.176758,38.8989258 C213.466473,39.2293311 213.831052,39.3945312 214.270508,39.3945312 C214.706708,39.3945312 215.06966,39.2285173 215.359375,38.8964844 C215.64909,38.5644515 215.793945,38.0582716 215.793945,37.3779297 C215.793945,36.7366504 215.648276,36.2508155 215.356934,35.9204102 C215.065591,35.5900049 214.703453,35.4248047 214.270508,35.4248047 C213.831052,35.4248047 213.466473,35.5891911 213.176758,35.9179688 C212.887043,36.2467464 212.742188,36.7431607 212.742188,37.4072266 Z M217.717773,40 L217.717773,34.8144531 L218.508789,34.8144531 L218.508789,35.6005859 C218.710613,35.2327456 218.896972,34.990235 219.067871,34.8730469 C219.23877,34.7558588 219.426757,34.6972656 219.631836,34.6972656 C219.928061,34.6972656 220.229165,34.7916657 220.535156,34.9804688 L220.232422,35.7958984 C220.017577,35.6689447 219.802735,35.6054688 219.587891,35.6054688 C219.395832,35.6054688 219.223308,35.6632481 219.070312,35.7788086 C218.917317,35.8943691 218.808269,36.0546865 218.743164,36.2597656 C218.645507,36.5722672 218.59668,36.9140606 218.59668,37.2851562 L218.59668,40 L217.717773,40 Z M221.057617,40 L221.057617,34.8144531 L221.84375,34.8144531 L221.84375,35.5419922 C222.006511,35.2880847 222.22298,35.0838224 222.493164,34.9291992 C222.763348,34.774576 223.070962,34.6972656 223.416016,34.6972656 C223.800132,34.6972656 224.11507,34.7770174 224.36084,34.9365234 C224.606609,35.0960294 224.779947,35.319009 224.880859,35.6054688 C225.291018,34.999997 225.824867,34.6972656 226.482422,34.6972656 C226.996747,34.6972656 227.392251,34.8396796 227.668945,35.1245117 C227.945639,35.4093439 228.083984,35.8479788 228.083984,36.4404297 L228.083984,40 L227.209961,40 L227.209961,36.7333984 C227.209961,36.3818342 227.181478,36.1287443 227.124512,35.9741211 C227.067545,35.8194979 226.964193,35.6949875 226.814453,35.6005859 C226.664713,35.5061844 226.488933,35.4589844 226.287109,35.4589844 C225.922524,35.4589844 225.619793,35.5802397 225.378906,35.8227539 C225.13802,36.0652681 225.017578,36.4534479 225.017578,36.9873047 L225.017578,40 L224.138672,40 L224.138672,36.6308594 C224.138672,36.2402324 224.067058,35.9472666 223.923828,35.7519531 C223.780598,35.5566396 223.546226,35.4589844 223.220703,35.4589844 C222.973306,35.4589844 222.74463,35.5240879 222.534668,35.6542969 C222.324706,35.7845059 222.172527,35.9749336 222.078125,36.2255859 C221.983723,36.4762382 221.936523,36.8375627 221.936523,37.3095703 L221.936523,40 L221.057617,40 Z" id="BIGDATACompetitionTrainingPlatform" fill="#FFFFFF" fill-rule="nonzero"></path>
                            <g id="logo" fill="#4C87FB">
                                <path d="M33.157215,17.5143 L17.67682,2.22213 C17.417925,1.96533 16.997925,1.96533 16.73896,2.22213 L1.25958,17.5143 C1.001735,17.7711 1.001735,18.18402 1.25958,18.44007 L5.890745,23.01447 C5.987345,23.09958 6.436185,23.43429 6.87883,22.94829 C6.88387,22.94241 6.885935,22.94241 6.894195,22.93704 L11.538765,18.34449 C11.797625,18.09075 12.21773,18.09075 12.47764,18.34449 L22.442455,28.19064 C22.58837,28.30002 22.97246,28.5144 23.36166,28.12167 L33.157215,18.44007 C33.41597,18.18402 33.41597,17.7711 33.157215,17.5143 Z" id="形状-357-拷贝"></path>
                                <path d="M32.5318,29.89527 L33.157215,30.51132 C33.41597,30.7671 33.41597,31.18107 33.157215,31.43787 L33.157215,31.43787 L17.67682,46.73001 C17.417925,46.98579 16.997925,46.98579 16.73896,46.73001 L16.73896,46.73001 L16.11561,46.11291 L32.5318,29.89527 Z M30.344055,27.73299 L31.423455,28.80162 L15.01045,45.02106 L13.92888,43.9527 L30.344055,27.73299 Z M27.723815,26.00181 C27.98369,25.78053 28.374045,25.78872 28.62146,26.03325 L28.62146,26.03325 L29.030365,26.43597 L29.235675,26.64192 L12.824735,42.85983 L11.74005,41.79123 Z M20.81044,28.51032 L21.653625,29.34027 C21.727545,29.43147 21.82117,29.61213 21.639205,29.82141 C21.631085,29.83035 21.629125,29.8365 21.6209,29.84568 L21.6209,29.84568 L10.634925,40.69938 L9.55241,39.63075 L20.81044,28.51032 Z M18.623815,26.3478 L19.70423,27.41538 L8.44816,38.53686 L7.366695,37.46748 L18.623815,26.3478 Z M16.43705,24.18528 L17.516485,25.25697 L6.262585,36.37743 L5.179965,35.30703 L16.43705,24.18528 Z M14.248255,22.02279 L15.32972,23.09445 L4.07274,34.21413 L2.99222,33.14655 L14.248255,22.02279 Z M11.760665,20.13855 C11.81607,20.08284 12.035905,19.88685 12.29578,20.10915 C12.31524,20.12628 12.33162,20.13855 12.350135,20.14773 L12.350135,20.14773 L13.141975,20.93118 L1.88706,32.0547 L1.25958,31.43787 C1.001735,31.18107 1.001735,30.7671 1.25958,30.51132 L1.25958,30.51132 L11.744075,20.15286 C11.744075,20.15361 11.75244,20.14773 11.756535,20.14341 L11.756535,20.14341 Z" id="Combined-shape-1077"></path>
                            </g>
                        </g>
                    </g>
                </g>
            </g>
        </g>
    </g>
</svg>