<svg xmlns="http://www.w3.org/2000/svg" viewBox="0 0 108.72 153.02"><defs><style>.cls-1{fill:#004ea2;}</style></defs><title>资源 1</title><g id="图层_2" data-name="图层 2"><g id="图层_1-2" data-name="图层 1"><rect class="cls-1" x="33.68" y="114.5" width="78.19" height="5.15" transform="translate(-61.47 85.75) rotate(-45)"/><path class="cls-1" d="M94.18,83.19h0L92.8,81.82a2.21,2.21,0,0,0-3-.11L36,135.53l3.64,3.65L94.87,83.89Z"/><path class="cls-1" d="M108.07,97.08,106,95,50.68,150.26l2.1,2.1a2.24,2.24,0,0,0,3.16,0l52.13-52.12A2.24,2.24,0,0,0,108.07,97.08Z"/><rect class="cls-1" x="0.45" y="86.35" width="53.61" height="5.15" transform="translate(-54.9 45.33) rotate(-45)"/><rect class="cls-1" x="7.82" y="93.72" width="53.61" height="5.15" transform="translate(-57.95 52.69) rotate(-45)"/><rect class="cls-1" x="15.18" y="101.09" width="53.61" height="5.15" transform="translate(-61 60.05) rotate(-45)"/><path class="cls-1" d="M108.07,52.78,55.94.65a2.24,2.24,0,0,0-3.16,0L.65,52.78a2.24,2.24,0,0,0,0,3.16l15.6,15.59a2.21,2.21,0,0,0,3.32-.23l.05,0L35.27,55.61a2.24,2.24,0,0,1,3.16,0L72,89.17a2.19,2.19,0,0,0,3.09-.24l33-33A2.24,2.24,0,0,0,108.07,52.78Z"/><path class="cls-1" d="M38,61.76a1.1,1.1,0,0,1-.18-.14,1.24,1.24,0,0,0-1.81.11h0l0,0h0L.65,97.08a2.24,2.24,0,0,0,0,3.16l2.11,2.1L40.67,64.43Z"/><path class="cls-1" d="M69.28,94.73a1.19,1.19,0,0,0,0-1.64l-2.84-2.83-37.91,37.9,3.64,3.65,37-37Z"/></g></g></svg>