<?xml version="1.0" encoding="UTF-8"?>
<svg width="234px" height="39px" viewBox="0 0 234 39" version="1.1" xmlns="http://www.w3.org/2000/svg" xmlns:xlink="http://www.w3.org/1999/xlink">
    <!-- Generator: Sketch 59.1 (86144) - https://sketch.com -->
    <title>logo</title>
    <desc>Created with Sketch.</desc>
    <g id="在线教学辅助平台（私有云）_课程中心" stroke="none" stroke-width="1" fill="none" fill-rule="evenodd">
        <g id="首页_未登录" transform="translate(-369.000000, -11.000000)" fill="#FFFFFF">
            <g id="banner-bg-一级页面">
                <g id="top/nav" transform="translate(369.000000, 10.000000)">
                    <g id="logo">
                        <text id="新大陆在线教育平台" font-family="FZZCHJW--GB1-0, FZZhengHeiS-B-GB" font-size="22" font-weight="normal">
                            <tspan x="37" y="28">新大陆在线教育平台</tspan>
                        </text>
                        <g>
                            <path d="M27.6310125,14.59525 L14.7306833,1.851775 C14.5149375,1.637775 14.1649375,1.637775 13.9491333,1.851775 L1.04965,14.59525 C0.834779167,14.80925 0.834779167,15.15335 1.04965,15.366725 L4.90895417,19.178725 C4.98945417,19.24965 5.3634875,19.528575 5.73235833,19.123575 C5.73655833,19.118675 5.73827917,19.118675 5.7451625,19.1142 L9.6156375,15.287075 C9.83135417,15.075625 10.1814417,15.075625 10.3980333,15.287075 L18.7020458,23.4922 C18.8236417,23.58335 19.1437167,23.762 19.46805,23.434725 L27.6310125,15.366725 C27.8466417,15.15335 27.8466417,14.80925 27.6310125,14.59525 Z" id="形状-357-拷贝"></path>
                            <path d="M27.1098333,24.912725 L27.6310125,25.4261 C27.8466417,25.63925 27.8466417,25.984225 27.6310125,26.198225 L27.6310125,26.198225 L14.7306833,38.941675 C14.5149375,39.154825 14.1649375,39.154825 13.9491333,38.941675 L13.9491333,38.941675 L13.429675,38.427425 L27.1098333,24.912725 Z M25.2867125,23.110825 L26.1862125,24.00135 L12.5087083,37.51755 L11.6074,36.62725 L25.2867125,23.110825 Z M23.1031792,21.668175 C23.3197417,21.483775 23.6450375,21.4906 23.8512167,21.694375 L23.8512167,21.694375 L24.1919708,22.029975 L24.3630625,22.2016 L10.6872792,35.716525 L9.783375,34.826025 Z M17.3420333,23.7586 L18.0446875,24.450225 C18.1062875,24.526225 18.1843083,24.676775 18.0326708,24.851175 C18.0259042,24.858625 18.0242708,24.86375 18.0174167,24.8714 L18.0174167,24.8714 L8.8624375,33.91615 L7.96034167,33.025625 L17.3420333,23.7586 Z M15.5198458,21.9565 L16.4201917,22.84615 L7.04013333,32.11405 L6.1389125,31.2229 L15.5198458,21.9565 Z M13.6975417,20.1544 L14.5970708,21.047475 L5.21882083,30.314525 L4.3166375,29.422525 L13.6975417,20.1544 Z M11.8735458,18.352325 L12.7747667,19.245375 L3.39395,28.511775 L2.49351667,27.622125 L11.8735458,18.352325 Z M9.80055417,16.782125 C9.846725,16.7357 10.0299208,16.572375 10.2464833,16.757625 C10.2627,16.7719 10.27635,16.782125 10.2917792,16.789775 L10.2917792,16.789775 L10.9516458,17.44265 L1.57255,26.71225 L1.04965,26.198225 C0.834779167,25.984225 0.834779167,25.63925 1.04965,25.4261 L1.04965,25.4261 L9.78672917,16.79405 L9.79064115,16.791775 L9.7971125,16.786175 Z" id="Combined-shape-1077"></path>
                        </g>
                    </g>
                </g>
            </g>
        </g>
    </g>
</svg>