<?xml version="1.0" encoding="UTF-8"?>
<svg width="227px" height="45px" viewBox="0 0 227 45" version="1.1" xmlns="http://www.w3.org/2000/svg" xmlns:xlink="http://www.w3.org/1999/xlink">
    <!-- Generator: Sketch 59.1 (86144) - https://sketch.com -->
    <title>大数据认证实训平台</title>
    <desc>Created with Sketch.</desc>
    <g id="UI规范" stroke="none" stroke-width="1" fill="none" fill-rule="evenodd">
        <g id="web-1920-0logo" transform="translate(-46.000000, -16.000000)">
            <g id="01-框架_-顶部">
                <g id="logo">
                    <g transform="translate(45.000000, 12.000000)">
                        <g id="大数据认证实训平台" transform="translate(0.000000, 2.000000)">
                            <path d="M47.14,14.6 L54.72,14.6 C54.853334,13.4933278 54.9266666,12.4200052 54.94,11.38 L54.94,9.58 L57.06,9.58 L57.06,10.9 C57.06,12.1533396 56.9866674,13.3866606 56.84,14.6 L64.86,14.6 L64.86,16.64 L57.32,16.64 C58.7600072,20.8133542 61.4266472,24.0399886 65.32,26.32 L64,28.04 C60.2266478,25.706655 57.5800076,22.4866872 56.06,18.38 C54.6999932,22.8333556 52.02002,26.1133228 48.02,28.22 L46.68,26.46 C50.7200202,24.4999902 53.2799946,21.2266896 54.36,16.64 L47.14,16.64 L47.14,14.6 Z M79.6857143,14.42 L79.4657143,15.22 C79.8923831,17.1266762 80.4457109,18.8399924 81.1257143,20.36 C81.6990505,18.6399914 82.0257139,16.6600112 82.1057143,14.42 L79.6857143,14.42 Z M80.1657143,22.56 C79.5257111,21.2799936 78.9590501,19.806675 78.4657143,18.14 C78.1857129,18.7666698 77.8723827,19.3866636 77.5257143,20 L76.2257143,18.38 C77.3323865,16.179989 78.0723791,13.2400184 78.4457143,9.56 L80.4857143,9.92 C80.3523803,10.9333384 80.2257143,11.7599968 80.1057143,12.4 L85.1057143,12.4 L85.1057143,14.42 L84.0257143,14.42 C83.9057137,17.6333494 83.3323861,20.3666554 82.3057143,22.62 C83.2523857,24.153341 84.3923743,25.3666622 85.7257143,26.26 L84.5257143,28.04 C83.2990415,27.1466622 82.2190523,25.9733406 81.2857143,24.52 C80.3257095,25.9733406 79.1590545,27.1933284 77.7857143,28.18 L76.6657143,26.38 C78.1057215,25.4333286 79.2723765,24.160008 80.1657143,22.56 Z M72.6857143,19.08 C72.5923805,19.3733348 72.4923815,19.653332 72.3857143,19.92 L76.3857143,19.92 L76.3857143,21.68 C76.0790461,22.813339 75.4857187,23.8266622 74.6057143,24.72 C75.3123845,25.0266682 76.0457105,25.379998 76.8057143,25.78 L75.6657143,27.46 C74.8523769,26.9799976 73.9457193,26.506669 72.9457143,26.04 C71.6657079,26.8533374 70.0190577,27.526664 68.0057143,28.06 L67.0057143,26.26 C68.4190547,25.9399984 69.6457091,25.5400024 70.6857143,25.06 L69.5310196,24.5922445 C69.0455784,24.397415 68.5971449,24.2200008 68.1857143,24.06 C68.6657167,23.259996 69.0857125,22.5000036 69.4457143,21.78 L67.4857143,21.78 L67.4857143,19.92 L70.2657143,19.92 L70.6689143,18.8273776 C70.6685588,18.8295703 70.6674921,18.8337777 70.6657143,18.84 L72.6857143,19.08 Z M72.6257143,23.92 C73.4523851,23.2666634 74.0657123,22.5533372 74.4657143,21.78 L71.5657143,21.78 C71.3923801,22.113335 71.1190495,22.5999968 70.7457143,23.24 C71.1723831,23.373334 71.7990435,23.5999984 72.6257143,23.92 Z M69.4257143,9.96 C69.8657165,10.6800036 70.2590459,11.4666624 70.6057143,12.32 L69.0057143,13.04 C68.6190457,12.106662 68.1857167,11.2666704 67.7057143,10.52 L69.4257143,9.96 Z M76.6057143,10.66 C76.1923789,11.526671 75.6857173,12.3466628 75.0857143,13.12 L73.5657143,12.32 C74.1257171,11.5066626 74.5923791,10.6866708 74.9657143,9.86 L76.6057143,10.66 Z M67.5457143,13.22 L71.2657143,13.22 L71.2657143,9.6 L73.1857143,9.6 L73.1857143,13.22 L76.5857143,13.22 L76.5857143,15.04 L73.1857143,15.04 L73.1857143,15.08 C74.2257195,15.4933354 75.2857089,15.9733306 76.3657143,16.52 L75.2857143,18.16 L74.7464537,17.7372828 C74.1415152,17.2694636 73.621272,16.8903718 73.1857143,16.6 L73.1857143,18.7 L71.2657143,18.7 L71.2657143,15.56 C70.5857109,16.9200068 69.5323881,18.1133282 68.1057143,19.14 L67.0657143,17.46 C68.3857209,16.7133296 69.3390447,15.906671 69.9257143,15.04 L67.5457143,15.04 L67.5457143,13.22 Z M88.1714286,27.9 L87.7314286,25.94 C88.3180982,26.0333338 88.7980934,26.08 89.1714286,26.08 C89.5980974,26.08 89.8114286,25.8266692 89.8114286,25.32 L89.8114286,21.28 L88.0552155,21.8930178 C87.9470501,21.9294674 87.8591212,21.9584614 87.7914286,21.98 L87.2514286,19.92 C88.131433,19.719999 88.9847578,19.4800014 89.8114286,19.2 L89.8114286,15.2 L87.6514286,15.2 L87.6514286,13.18 L89.8114286,13.18 L89.8114286,9.64 L91.8514286,9.64 L91.8514286,13.18 L93.5514286,13.18 L93.5514286,15.2 L91.8514286,15.2 L91.8514286,18.38 L92.6289803,18.0077548 C92.9468027,17.8521089 93.2276178,17.7095245 93.4714286,17.58 L93.4714286,19.62 L91.8514286,20.42 L91.8514286,25.84 C91.8514286,27.2133402 91.1914352,27.9 89.8714286,27.9 L88.1714286,27.9 Z M96.1914286,19.28 C95.9514274,22.6000166 95.1981016,25.5466538 93.9314286,28.12 L92.2914286,26.66 C93.5847684,24.126654 94.2447618,20.8533534 94.2714286,16.84 L94.2714286,10.2 L105.231429,10.2 L105.231429,15.5 L101.631429,15.5 L101.631429,17.38 L105.671429,17.38 L105.671429,19.28 L101.631429,19.28 L101.631429,21.2 L104.791429,21.2 L104.791429,28.08 L102.871429,28.08 L102.871429,27.26 L98.3714286,27.26 L98.3714286,28.08 L96.4514286,28.08 L96.4514286,21.2 L99.5914286,21.2 L99.5914286,19.28 L96.1914286,19.28 Z M99.5914286,15.5 L96.2914286,15.5 L96.2914286,17.1 L96.2714286,17.38 L99.5914286,17.38 L99.5914286,15.5 Z M98.3714286,25.42 L102.871429,25.42 L102.871429,23.04 L98.3714286,23.04 L98.3714286,25.42 Z M103.191429,12.1 L96.2914286,12.1 L96.2914286,13.66 L103.191429,13.66 L103.191429,12.1 Z M121.197143,9.72 C121.197143,11.4666754 121.137143,13.0799926 121.017143,14.56 C122.017148,19.4000242 123.803797,23.2799854 126.377143,26.2 L124.857143,27.94 C122.977133,25.473321 121.490482,22.4800176 120.397143,18.96 L120.297143,19.48 C119.603806,22.8933504 117.91049,25.733322 115.217143,28 L113.797143,26.26 C116.077154,24.2999902 117.557139,21.9000142 118.237143,19.06 C118.783812,16.659988 119.063809,13.5466858 119.077143,9.72 L121.197143,9.72 Z M110.417143,9.7 C111.657149,10.6600048 112.737138,11.6333284 113.657143,12.62 L112.217143,14.08 C111.470472,13.1733288 110.37715,12.1933386 108.937143,11.14 L110.417143,9.7 Z M107.637143,15.48 L112.397143,15.48 L112.397143,23.64 C112.970479,23.1599976 113.583806,22.6066698 114.237143,21.98 L114.797143,24.12 C113.53047,25.2933392 112.143817,26.3666618 110.637143,27.34 L109.837143,25.48 C110.197145,25.1999986 110.377143,24.8333356 110.377143,24.38 L110.377143,17.48 L107.637143,17.48 L107.637143,15.48 Z M140.122857,12.34 L134.702857,12.34 L134.702857,10.3 L146.102857,10.3 L146.102857,12.34 L142.242857,12.34 L142.242857,17.28 L145.822857,17.28 L145.822857,19.22 L142.242857,19.22 L142.242857,25.38 L146.522857,25.38 L146.522857,27.42 L134.102857,27.42 L134.102857,25.38 L135.922857,25.38 L135.922857,15.24 L137.962857,15.24 L137.962857,25.38 L140.122857,25.38 L140.122857,12.34 Z M130.762857,9.72 C131.976197,10.6800048 133.029519,11.6466618 133.922857,12.62 L132.502857,14.08 C131.716187,13.1066618 130.649531,12.1133384 129.302857,11.1 L130.762857,9.72 Z M127.902857,15.48 L132.602857,15.48 L132.602857,23.54 L133.24508,22.9422212 C133.639154,22.5718513 133.965078,22.2577791 134.222857,22 L134.762857,24.2 C133.536184,25.3733392 132.242864,26.426662 130.882857,27.36 L130.082857,25.46 C130.442859,25.1799986 130.622857,24.8200022 130.622857,24.38 L130.622857,17.48 L127.902857,17.48 L127.902857,15.48 Z M165.888571,11.44 L165.888571,15.84 L163.768571,15.84 L163.768571,13.38 L151.088571,13.38 L151.088571,15.92 L148.968571,15.92 L148.968571,11.44 L156.448571,11.44 C156.195237,10.7866634 155.948573,10.2200024 155.708571,9.74 L157.928571,9.38 C158.155239,10.0200032 158.355237,10.706663 158.528571,11.44 L165.888571,11.44 Z M151.948571,16.7 C153.428579,17.2733362 154.761899,17.9399962 155.948571,18.7 L154.868571,20.34 C153.615232,19.4599956 152.295245,18.753336 150.908571,18.22 L151.948571,16.7 Z M153.088571,13.72 C154.555245,14.253336 155.861899,14.8933296 157.008571,15.64 L155.948571,17.28 C154.721899,16.3866622 153.435245,15.6866692 152.088571,15.18 L153.088571,13.72 Z M158.668571,14.02 L160.768571,14.02 L160.768571,16.58 C160.688571,18.0333406 160.441907,19.3799938 160.028571,20.62 L166.188571,20.62 L166.188571,22.56 L159.128571,22.56 L158.788571,23.1 C161.508585,24.0866716 163.941894,25.1999938 166.088571,26.44 L164.908571,28.26 C162.535226,26.7533258 160.075251,25.5266714 157.528571,24.58 C155.83523,26.113341 153.321921,27.3066624 149.988571,28.16 L148.848571,26.38 C152.60859,25.3933284 155.148565,24.1733406 156.468571,22.72 C156.495238,22.6666664 156.535238,22.6133336 156.588571,22.56 L148.608571,22.56 L148.608571,20.62 L157.748571,20.62 C158.255241,19.4466608 158.561904,18.1000076 158.668571,16.58 L158.668571,14.02 Z M180.154286,10.96 L182.154286,10.96 L182.154286,26.76 L180.154286,26.76 L180.154286,10.96 Z M184.314286,9.98 L186.354286,9.98 L186.354286,28.12 L184.314286,28.12 L184.314286,9.98 Z M176.174286,10.04 L178.194286,10.04 L178.194286,18.92 C178.154286,23.1600212 177.267628,26.2666568 175.534286,28.24 L173.954286,26.84 C175.394293,25.1999918 176.134286,22.5600182 176.174286,18.92 L176.174286,10.04 Z M171.274286,9.7 C172.514292,10.6600048 173.594281,11.6333284 174.514286,12.62 L173.074286,14.08 C172.327615,13.1733288 171.234293,12.1933386 169.794286,11.14 L171.274286,9.7 Z M168.494286,15.48 L173.234286,15.48 L173.234286,23.38 L173.59873,22.9977782 C173.675767,22.9192598 173.760952,22.8333338 173.854286,22.74 L174.514286,22.06 L175.074286,24.22 C173.967614,25.3666724 172.774292,26.406662 171.494286,27.34 L170.694286,25.48 C171.067621,25.1866652 171.254286,24.8133356 171.254286,24.36 L171.254286,17.48 L168.494286,17.48 L168.494286,15.48 Z M189.86,10.28 L206.2,10.28 L206.2,12.32 L198.98,12.32 L198.98,19.2 L206.94,19.2 L206.94,21.22 L198.98,21.22 L198.98,28.06 L196.86,28.06 L196.86,21.22 L189.06,21.22 L189.06,19.2 L196.86,19.2 L196.86,12.32 L189.86,12.32 L189.86,10.28 Z M192.8,13.12 C193.480003,14.3733396 194.17333,15.8599914 194.88,17.58 L192.92,18.54 C192.306664,16.939992 191.620004,15.4466736 190.86,14.06 L192.8,13.12 Z M205.28,13.94 C204.719997,15.473341 203.986671,16.9666594 203.08,18.42 L201.2,17.46 C202.093338,16.0199928 202.819997,14.5466742 203.38,13.04 L205.28,13.94 Z M225.185714,19.54 L225.185714,28.12 L223.065714,28.12 L223.065714,27.36 L213.505714,27.36 L213.505714,28.12 L211.385714,28.12 L211.385714,19.54 L225.185714,19.54 Z M213.505714,25.36 L223.065714,25.36 L223.065714,21.54 L213.505714,21.54 L213.505714,25.36 Z M209.745714,15.78 C211.159055,15.5533322 213.225701,13.4533532 215.945714,9.48 L218.105714,10.24 C216.51904,12.4133442 214.932389,14.2399926 213.345714,15.72 C216.58573,15.5599992 219.745699,15.3400014 222.825714,15.06 C222.239045,14.193329 221.625717,13.360004 220.985714,12.56 L222.885714,11.66 C224.445722,13.6200098 225.95904,15.8266544 227.425714,18.28 L225.385714,19.28 L225.098214,18.7574992 C224.793214,18.2124998 224.435716,17.6000034 224.025714,16.92 C219.865693,17.2933352 215.232406,17.5733324 210.125714,17.76 L209.745714,15.78 Z" fill="#FFFFFF" fill-rule="nonzero"></path>
                            <path d="M47.7324219,40 L47.7324219,32.8417969 L50.4179688,32.8417969 C50.9648465,32.8417969 51.4034814,32.9142245 51.7338867,33.059082 C52.064292,33.2039395 52.3230785,33.4269191 52.5102539,33.7280273 C52.6974293,34.0291356 52.7910156,34.3440739 52.7910156,34.6728516 C52.7910156,34.9788427 52.7080086,35.2669257 52.5419922,35.5371094 C52.3759757,35.807293 52.1253272,36.0253898 51.7900391,36.1914062 C52.2229839,36.31836 52.5558257,36.5348292 52.7885742,36.8408203 C53.0213228,37.1468114 53.1376953,37.5081359 53.1376953,37.9248047 C53.1376953,38.2600928 53.0668952,38.5717759 52.925293,38.8598633 C52.7836907,39.1479507 52.608725,39.3701164 52.4003906,39.5263672 C52.1920563,39.682618 51.9308284,39.8006181 51.6166992,39.8803711 C51.30257,39.9601241 50.9176455,40 50.4619141,40 L47.7324219,40 Z M48.6796875,35.8496094 L50.2275391,35.8496094 C50.647463,35.8496094 50.9485668,35.8219404 51.1308594,35.7666016 C51.371746,35.6949866 51.553222,35.5761727 51.675293,35.4101562 C51.7973639,35.2441398 51.8583984,35.0358085 51.8583984,34.7851562 C51.8583984,34.5475249 51.8014329,34.3383798 51.6875,34.1577148 C51.5735671,33.9770499 51.4108083,33.8533532 51.1992188,33.7866211 C50.9876292,33.719889 50.6246771,33.6865234 50.1103516,33.6865234 L48.6796875,33.6865234 L48.6796875,35.8496094 Z M48.6796875,36.6943359 L48.6796875,39.1552734 L50.4619141,39.1552734 C50.7679052,39.1552734 50.9827468,39.1438803 51.1064453,39.1210938 C51.3245454,39.0820311 51.5068352,39.0169275 51.6533203,38.9257812 C51.7998054,38.834635 51.9202469,38.7019865 52.0146484,38.527832 C52.10905,38.3536775 52.15625,38.1526704 52.15625,37.9248047 C52.15625,37.6578763 52.0878913,37.425945 51.9511719,37.2290039 C51.8144524,37.0320628 51.6248385,36.8937178 51.3823242,36.8139648 C51.13981,36.7342118 50.7906924,36.6943359 50.3349609,36.6943359 L48.6796875,36.6943359 Z M54.6025391,40 L54.6025391,32.8417969 L55.5498047,32.8417969 L55.5498047,40 L54.6025391,40 Z M60.5693359,37.1923828 L60.5693359,36.3525391 L63.6015625,36.3476562 L63.6015625,39.0039062 C63.1360654,39.3750019 62.655927,39.6541332 62.1611328,39.8413086 C61.6663387,40.028484 61.1585312,40.1220703 60.6376953,40.1220703 C59.9345668,40.1220703 59.2957385,39.9715184 58.7211914,39.6704102 C58.1466443,39.3693019 57.7128921,38.9339221 57.4199219,38.3642578 C57.1269517,37.7945935 56.9804688,37.1582066 56.9804688,36.4550781 C56.9804688,35.7584601 57.1261379,35.1082387 57.4174805,34.5043945 C57.7088231,33.9005504 58.127927,33.4521499 58.6748047,33.1591797 C59.2216824,32.8662095 59.8515589,32.7197266 60.5644531,32.7197266 C61.0820338,32.7197266 61.5499654,32.8035473 61.9682617,32.9711914 C62.3865581,33.1388355 62.714517,33.3723943 62.9521484,33.671875 C63.1897798,33.9713557 63.3704421,34.3619768 63.4941406,34.84375 L62.6396484,35.078125 C62.532226,34.7135398 62.3987638,34.4270844 62.2392578,34.21875 C62.0797518,34.0104156 61.8518895,33.8435879 61.5556641,33.7182617 C61.2594386,33.5929356 60.9306659,33.5302734 60.5693359,33.5302734 C60.1363911,33.5302734 59.7620458,33.5961907 59.4462891,33.7280273 C59.1305323,33.8598639 58.8758148,34.0332021 58.6821289,34.2480469 C58.488443,34.4628917 58.3378912,34.6988919 58.2304688,34.9560547 C58.0481762,35.3987652 57.9570312,35.8789037 57.9570312,36.3964844 C57.9570312,37.0345084 58.0668934,37.5683572 58.2866211,37.9980469 C58.5063488,38.4277365 58.8261698,38.7467438 59.2460938,38.9550781 C59.6660177,39.1634125 60.1119768,39.2675781 60.5839844,39.2675781 C60.9941427,39.2675781 61.3945293,39.1886401 61.7851562,39.0307617 C62.1757832,38.8728833 62.4720042,38.704428 62.6738281,38.5253906 L62.6738281,37.1923828 L60.5693359,37.1923828 Z M67.7763672,40 L67.7763672,32.8417969 L70.2421875,32.8417969 C70.7988309,32.8417969 71.2236313,32.8759762 71.5166016,32.9443359 C71.9267599,33.0387375 72.2766913,33.2096342 72.5664062,33.4570312 C72.9440123,33.7760433 73.2263988,34.183754 73.4135742,34.6801758 C73.6007496,35.1765975 73.6943359,35.7438119 73.6943359,36.3818359 C73.6943359,36.9254584 73.63086,37.4072245 73.5039062,37.8271484 C73.3769525,38.2470724 73.2141937,38.5945624 73.015625,38.8696289 C72.8170563,39.1446954 72.5997733,39.3611646 72.3637695,39.519043 C72.1277657,39.6769214 71.8429379,39.7965491 71.5092773,39.8779297 C71.1756168,39.9593103 70.7923199,40 70.359375,40 L67.7763672,40 Z M68.7236328,39.1552734 L70.2519531,39.1552734 C70.7239607,39.1552734 71.0942369,39.1113286 71.362793,39.0234375 C71.631349,38.9355464 71.8453768,38.8118498 72.0048828,38.6523438 C72.2294933,38.4277333 72.404459,38.1258157 72.5297852,37.746582 C72.6551113,37.3673484 72.7177734,36.9075548 72.7177734,36.3671875 C72.7177734,35.6184858 72.5948906,35.0431335 72.3491211,34.6411133 C72.1033516,34.239093 71.8046893,33.9697272 71.453125,33.8330078 C71.1992175,33.7353511 70.7906929,33.6865234 70.2275391,33.6865234 L68.7236328,33.6865234 L68.7236328,39.1552734 Z M74.2119141,40 L76.9609375,32.8417969 L77.9814453,32.8417969 L80.9111328,40 L79.8320312,40 L78.9970703,37.8320312 L76.0039062,37.8320312 L75.2177734,40 L74.2119141,40 Z M76.2773438,37.0605469 L78.7041016,37.0605469 L77.9570312,35.078125 C77.7291655,34.4759084 77.5598964,33.9811217 77.4492188,33.59375 C77.3580725,34.0527367 77.229493,34.5084613 77.0634766,34.9609375 L76.2773438,37.0605469 Z M83.4892578,40 L83.4892578,33.6865234 L81.1308594,33.6865234 L81.1308594,32.8417969 L86.8046875,32.8417969 L86.8046875,33.6865234 L84.4365234,33.6865234 L84.4365234,40 L83.4892578,40 Z M86.9902344,40 L89.7392578,32.8417969 L90.7597656,32.8417969 L93.6894531,40 L92.6103516,40 L91.7753906,37.8320312 L88.7822266,37.8320312 L87.9960938,40 L86.9902344,40 Z M89.0556641,37.0605469 L91.4824219,37.0605469 L90.7353516,35.078125 C90.5074858,34.4759084 90.3382167,33.9811217 90.2275391,33.59375 C90.1363928,34.0527367 90.0078133,34.5084613 89.8417969,34.9609375 L89.0556641,37.0605469 Z M102.332031,37.4902344 L103.279297,37.7294922 C103.080728,38.5074909 102.723473,39.1007467 102.20752,39.5092773 C101.691566,39.917808 101.060876,40.1220703 100.31543,40.1220703 C99.5439415,40.1220703 98.9165063,39.9650081 98.4331055,39.6508789 C97.9497046,39.3367497 97.5818698,38.8818389 97.3295898,38.2861328 C97.0773099,37.6904267 96.9511719,37.0507847 96.9511719,36.3671875 C96.9511719,35.6217411 97.0935858,34.9715197 97.378418,34.4165039 C97.6632501,33.8614881 98.0685195,33.4399428 98.5942383,33.1518555 C99.1199571,32.8637681 99.6985646,32.7197266 100.330078,32.7197266 C101.046228,32.7197266 101.648435,32.9020164 102.136719,33.2666016 C102.625002,33.6311867 102.965168,34.1438769 103.157227,34.8046875 L102.224609,35.0244141 C102.058593,34.5035781 101.81771,34.1243501 101.501953,33.8867188 C101.186196,33.6490874 100.789065,33.5302734 100.310547,33.5302734 C99.7604139,33.5302734 99.3006203,33.6621081 98.9311523,33.9257812 C98.5616844,34.1894544 98.3020841,34.5434548 98.1523438,34.987793 C98.0026034,35.4321311 97.9277344,35.8902971 97.9277344,36.3623047 C97.9277344,36.9710317 98.0164379,37.5024391 98.1938477,37.956543 C98.3712574,38.4106468 98.6471335,38.7499989 99.0214844,38.9746094 C99.3958352,39.1992199 99.8011046,39.3115234 100.237305,39.3115234 C100.767906,39.3115234 101.217121,39.1585302 101.584961,38.8525391 C101.952801,38.5465479 102.201822,38.0924509 102.332031,37.4902344 Z M107.883789,38.3300781 L108.791992,38.4423828 C108.648762,38.9729844 108.383465,39.3847642 107.996094,39.6777344 C107.608722,39.9707046 107.113935,40.1171875 106.511719,40.1171875 C105.753251,40.1171875 105.151858,39.8836286 104.70752,39.4165039 C104.263181,38.9493792 104.041016,38.294275 104.041016,37.4511719 C104.041016,36.5787717 104.265623,35.9016951 104.714844,35.4199219 C105.164065,34.9381486 105.746741,34.6972656 106.462891,34.6972656 C107.156253,34.6972656 107.722654,34.9332659 108.162109,35.4052734 C108.601565,35.877281 108.821289,36.5413369 108.821289,37.3974609 L108.816406,37.6318359 L108.816406,37.6318359 L104.949219,37.6318359 C104.981771,38.2015002 105.142902,38.6376938 105.432617,38.9404297 C105.722332,39.2431656 106.083657,39.3945312 106.516602,39.3945312 C106.838869,39.3945312 107.113931,39.3098967 107.341797,39.140625 C107.569663,38.9713533 107.750325,38.7011737 107.883789,38.3300781 Z M104.998047,36.9091797 L107.893555,36.9091797 C107.854492,36.4729796 107.743816,36.1458344 107.561523,35.9277344 C107.281574,35.589191 106.918622,35.4199219 106.472656,35.4199219 C106.069008,35.4199219 105.729656,35.5550117 105.45459,35.8251953 C105.179523,36.095379 105.027344,36.4567035 104.998047,36.9091797 Z M109.885742,40 L109.885742,34.8144531 L110.676758,34.8144531 L110.676758,35.6005859 C110.878582,35.2327456 111.064941,34.990235 111.23584,34.8730469 C111.406739,34.7558588 111.594726,34.6972656 111.799805,34.6972656 C112.09603,34.6972656 112.397134,34.7916657 112.703125,34.9804688 L112.400391,35.7958984 C112.185546,35.6689447 111.970704,35.6054688 111.755859,35.6054688 C111.563801,35.6054688 111.391277,35.6632481 111.238281,35.7788086 C111.085286,35.8943691 110.976237,36.0546865 110.911133,36.2597656 C110.813476,36.5722672 110.764648,36.9140606 110.764648,37.2851562 L110.764648,40 L109.885742,40 Z M115.144531,39.2138672 L115.271484,39.9902344 C115.024087,40.042318 114.802735,40.0683594 114.607422,40.0683594 C114.28841,40.0683594 114.041017,40.0179042 113.865234,39.9169922 C113.689452,39.8160802 113.565756,39.6834318 113.494141,39.519043 C113.422526,39.3546541 113.386719,39.0087917 113.386719,38.4814453 L113.386719,35.4980469 L112.742188,35.4980469 L112.742188,34.8144531 L113.386719,34.8144531 L113.386719,33.5302734 L114.260742,33.0029297 L114.260742,34.8144531 L115.144531,34.8144531 L115.144531,35.4980469 L114.260742,35.4980469 L114.260742,38.5302734 L114.265896,38.7510855 C114.272768,38.8784003 114.286512,38.9659286 114.307129,39.0136719 C114.338054,39.0852868 114.388509,39.1422524 114.458496,39.1845703 C114.528483,39.2268882 114.62858,39.2480469 114.758789,39.2480469 L114.928467,39.239502 C114.992757,39.2338054 115.064778,39.2252605 115.144531,39.2138672 Z M116.008789,33.8525391 L116.008789,32.8417969 L116.887695,32.8417969 L116.887695,33.8525391 L116.008789,33.8525391 Z M116.008789,40 L116.008789,34.8144531 L116.887695,34.8144531 L116.887695,40 L116.008789,40 Z M118.435547,40 L118.435547,35.4980469 L117.65918,35.4980469 L117.65918,34.8144531 L118.435547,34.8144531 L118.435547,34.2626953 C118.435547,33.9143863 118.466471,33.6555998 118.52832,33.4863281 C118.612956,33.2584624 118.76188,33.0737312 118.975098,32.9321289 C119.188315,32.7905266 119.486977,32.7197266 119.871094,32.7197266 C120.118491,32.7197266 120.391926,32.7490231 120.691406,32.8076172 L120.55957,33.5742188 C120.377278,33.5416665 120.204753,33.5253906 120.041992,33.5253906 C119.775064,33.5253906 119.586264,33.5823562 119.475586,33.6962891 C119.364908,33.8102219 119.30957,34.0234359 119.30957,34.3359375 L119.30957,34.8144531 L120.320312,34.8144531 L120.320312,35.4980469 L119.30957,35.4980469 L119.30957,40 L118.435547,40 Z M121.008789,33.8525391 L121.008789,32.8417969 L121.887695,32.8417969 L121.887695,33.8525391 L121.008789,33.8525391 Z M121.008789,40 L121.008789,34.8144531 L121.887695,34.8144531 L121.887695,40 L121.008789,40 Z M126.609375,38.1005859 L127.473633,38.2128906 C127.379231,38.8085967 127.137534,39.2749007 126.748535,39.6118164 C126.359536,39.9487322 125.881839,40.1171875 125.31543,40.1171875 C124.605791,40.1171875 124.035321,39.8852562 123.604004,39.4213867 C123.172687,38.9575172 122.957031,38.2926476 122.957031,37.4267578 C122.957031,36.8668592 123.049804,36.3769552 123.235352,35.9570312 C123.420899,35.5371073 123.703286,35.222169 124.08252,35.012207 C124.461753,34.802245 124.874347,34.6972656 125.320312,34.6972656 C125.883466,34.6972656 126.344074,34.8396796 126.702148,35.1245117 C127.060223,35.4093439 127.289713,35.8137995 127.390625,36.3378906 L126.536133,36.4697266 C126.454752,36.1214175 126.310711,35.8593759 126.104004,35.6835938 C125.897297,35.5078116 125.647462,35.4199219 125.354492,35.4199219 C124.911782,35.4199219 124.552085,35.5786117 124.275391,35.8959961 C123.998697,36.2133805 123.860352,36.7154914 123.860352,37.4023438 C123.860352,38.0989618 123.993814,38.6051417 124.260742,38.9208984 C124.527671,39.2366552 124.875974,39.3945312 125.305664,39.3945312 C125.650718,39.3945312 125.938801,39.288738 126.169922,39.0771484 C126.401043,38.8655588 126.547526,38.5400413 126.609375,38.1005859 Z M131.609375,39.3603516 C131.283853,39.6370457 130.970542,39.8323562 130.669434,39.9462891 C130.368325,40.0602219 130.045249,40.1171875 129.700195,40.1171875 C129.130531,40.1171875 128.69271,39.9780287 128.386719,39.699707 C128.080728,39.4213853 127.927734,39.0657574 127.927734,38.6328125 C127.927734,38.378905 127.985514,38.1469737 128.101074,37.9370117 C128.216635,37.7270497 128.368,37.5585944 128.555176,37.4316406 C128.742351,37.3046869 128.953124,37.2086592 129.1875,37.1435547 C129.360027,37.0979815 129.620441,37.0540367 129.96875,37.0117188 C130.678389,36.9270829 131.200845,36.8261725 131.536133,36.7089844 L131.541016,36.4794922 L131.541016,36.4794922 C131.541016,36.1214175 131.458009,35.8691414 131.291992,35.7226562 C131.067382,35.5240875 130.733726,35.4248047 130.291016,35.4248047 C129.877602,35.4248047 129.572429,35.4972323 129.375488,35.6420898 C129.178547,35.7869473 129.032878,36.0432924 128.938477,36.4111328 L128.079102,36.2939453 C128.157227,35.9261049 128.285806,35.6290701 128.464844,35.402832 C128.643881,35.1765939 128.902668,35.002442 129.241211,34.8803711 C129.579754,34.7583002 129.972003,34.6972656 130.417969,34.6972656 C130.860679,34.6972656 131.220376,34.7493484 131.49707,34.8535156 C131.773764,34.9576828 131.977213,35.0887036 132.107422,35.246582 C132.237631,35.4044604 132.328776,35.6038399 132.380859,35.8447266 C132.410156,35.9944669 132.424805,36.2646465 132.424805,36.6552734 L132.426661,38.2430363 C132.43223,38.8221954 132.450328,39.2003276 132.480957,39.3774414 C132.518392,39.5939138 132.592447,39.8014313 132.703125,40 L131.785156,40 C131.69401,39.8177074 131.635417,39.6044934 131.609375,39.3603516 Z M131.536133,37.3974609 C131.256997,37.5113938 130.855746,37.6103717 130.332368,37.6943969 L130.100586,37.7294922 C129.739256,37.7815758 129.483725,37.8401689 129.333984,37.9052734 C129.184244,37.9703779 129.068685,38.0655918 128.987305,38.190918 C128.905924,38.3162441 128.865234,38.4554029 128.865234,38.6083984 C128.865234,38.8427746 128.953938,39.0380852 129.131348,39.1943359 C129.308757,39.3505867 129.568358,39.4287109 129.910156,39.4287109 C130.2487,39.4287109 130.549803,39.3546557 130.813477,39.206543 C131.07715,39.0584302 131.270833,38.8557956 131.394531,38.5986328 C131.488933,38.4000641 131.536133,38.1070983 131.536133,37.7197266 L131.536133,37.3974609 Z M135.706055,39.2138672 L135.833008,39.9902344 C135.585611,40.042318 135.364259,40.0683594 135.168945,40.0683594 C134.849933,40.0683594 134.60254,40.0179042 134.426758,39.9169922 C134.250976,39.8160802 134.127279,39.6834318 134.055664,39.519043 C133.993001,39.3752027 133.957753,39.0924218 133.949921,38.6706932 L133.948242,35.4980469 L133.303711,35.4980469 L133.303711,34.8144531 L133.948242,34.8144531 L133.948242,33.5302734 L134.822266,33.0029297 L134.822266,34.8144531 L135.706055,34.8144531 L135.706055,35.4980469 L134.822266,35.4980469 L134.822266,38.5302734 C134.822266,38.7809257 134.837728,38.9420569 134.868652,39.0136719 C134.899577,39.0852868 134.950032,39.1422524 135.02002,39.1845703 C135.090007,39.2268882 135.190104,39.2480469 135.320312,39.2480469 L135.48999,39.239502 C135.55428,39.2338054 135.626302,39.2252605 135.706055,39.2138672 Z M136.570312,33.8525391 L136.570312,32.8417969 L137.449219,32.8417969 L137.449219,33.8525391 L136.570312,33.8525391 Z M136.570312,40 L136.570312,34.8144531 L137.449219,34.8144531 L137.449219,40 L136.570312,40 Z M138.459961,37.4072266 C138.459961,36.4469353 138.726885,35.7356794 139.260742,35.2734375 C139.706708,34.889321 140.250322,34.6972656 140.891602,34.6972656 C141.604496,34.6972656 142.187172,34.9308245 142.639648,35.3979492 C143.092125,35.865074 143.318359,36.5104125 143.318359,37.3339844 C143.318359,38.0013054 143.218263,38.5262025 143.018066,38.9086914 C142.81787,39.2911803 142.526532,39.5882151 142.144043,39.7998047 C141.761554,40.0113943 141.344078,40.1171875 140.891602,40.1171875 C140.165686,40.1171875 139.578941,39.8844424 139.131348,39.4189453 C138.683754,38.9534482 138.459961,38.282882 138.459961,37.4072266 Z M139.363281,37.4072266 C139.363281,38.0712924 139.508137,38.5685205 139.797852,38.8989258 C140.087567,39.2293311 140.452146,39.3945312 140.891602,39.3945312 C141.327802,39.3945312 141.690754,39.2285173 141.980469,38.8964844 C142.270184,38.5644515 142.415039,38.0582716 142.415039,37.3779297 C142.415039,36.7366504 142.26937,36.2508155 141.978027,35.9204102 C141.686685,35.5900049 141.324546,35.4248047 140.891602,35.4248047 C140.452146,35.4248047 140.087567,35.5891911 139.797852,35.9179688 C139.508137,36.2467464 139.363281,36.7431607 139.363281,37.4072266 Z M144.348633,40 L144.348633,34.8144531 L145.139648,34.8144531 L145.139648,35.5517578 C145.52051,34.9820935 146.070634,34.6972656 146.790039,34.6972656 C147.102541,34.6972656 147.38981,34.7534174 147.651855,34.8657227 C147.913901,34.9780279 148.110025,35.1253246 148.240234,35.3076172 C148.370443,35.4899098 148.461588,35.706379 148.513672,35.9570312 C148.546224,36.1197925 148.5625,36.4046204 148.5625,36.8115234 L148.5625,40 L147.683594,40 L147.683594,36.8457031 C147.683594,36.4876284 147.649414,36.2198902 147.581055,36.0424805 C147.512695,35.8650707 147.39144,35.7234706 147.217285,35.6176758 C147.043131,35.511881 146.838868,35.4589844 146.604492,35.4589844 C146.230141,35.4589844 145.907065,35.5777983 145.635254,35.8154297 C145.363443,36.0530611 145.227539,36.5039029 145.227539,37.1679688 L145.227539,40 L144.348633,40 Z M154.62207,40 L154.62207,33.6865234 L152.263672,33.6865234 L152.263672,32.8417969 L157.9375,32.8417969 L157.9375,33.6865234 L155.569336,33.6865234 L155.569336,40 L154.62207,40 Z M158.787109,40 L158.787109,34.8144531 L159.578125,34.8144531 L159.578125,35.6005859 C159.779949,35.2327456 159.966308,34.990235 160.137207,34.8730469 C160.308106,34.7558588 160.496093,34.6972656 160.701172,34.6972656 C160.997397,34.6972656 161.298501,34.7916657 161.604492,34.9804688 L161.301758,35.7958984 C161.086913,35.6689447 160.872071,35.6054688 160.657227,35.6054688 C160.465168,35.6054688 160.292644,35.6632481 160.139648,35.7788086 C159.986653,35.8943691 159.877604,36.0546865 159.8125,36.2597656 C159.714843,36.5722672 159.666016,36.9140606 159.666016,37.2851562 L159.666016,40 L158.787109,40 Z M165.510742,39.3603516 C165.18522,39.6370457 164.871909,39.8323562 164.570801,39.9462891 C164.269693,40.0602219 163.946616,40.1171875 163.601562,40.1171875 C163.031898,40.1171875 162.594077,39.9780287 162.288086,39.699707 C161.982095,39.4213853 161.829102,39.0657574 161.829102,38.6328125 C161.829102,38.378905 161.886881,38.1469737 162.002441,37.9370117 C162.118002,37.7270497 162.269368,37.5585944 162.456543,37.4316406 C162.643718,37.3046869 162.854491,37.2086592 163.088867,37.1435547 C163.226889,37.1070962 163.421158,37.0716798 163.671679,37.0373047 L163.870117,37.0117188 C164.579756,36.9270829 165.102212,36.8261725 165.4375,36.7089844 L165.442383,36.4794922 L165.442383,36.4794922 C165.442383,36.1214175 165.359376,35.8691414 165.193359,35.7226562 C164.968749,35.5240875 164.635093,35.4248047 164.192383,35.4248047 C163.778969,35.4248047 163.473797,35.4972323 163.276855,35.6420898 C163.079914,35.7869473 162.934245,36.0432924 162.839844,36.4111328 L161.980469,36.2939453 C162.058594,35.9261049 162.187174,35.6290701 162.366211,35.402832 C162.545248,35.1765939 162.804035,35.002442 163.142578,34.8803711 C163.481121,34.7583002 163.87337,34.6972656 164.319336,34.6972656 C164.762046,34.6972656 165.121743,34.7493484 165.398438,34.8535156 C165.675132,34.9576828 165.87858,35.0887036 166.008789,35.246582 C166.138998,35.4044604 166.230143,35.6038399 166.282227,35.8447266 C166.307338,35.9730754 166.321688,36.1899103 166.325275,36.4952362 L166.326172,37.8271484 C166.326172,38.6442098 166.344889,39.160969 166.382324,39.3774414 C166.419759,39.5939138 166.493815,39.8014313 166.604492,40 L165.686523,40 C165.595377,39.8177074 165.536784,39.6044934 165.510742,39.3603516 Z M165.4375,37.3974609 C165.158364,37.5113938 164.757113,37.6103717 164.233735,37.6943969 L164.001953,37.7294922 C163.640623,37.7815758 163.385092,37.8401689 163.235352,37.9052734 C163.085611,37.9703779 162.970052,38.0655918 162.888672,38.190918 C162.807291,38.3162441 162.766602,38.4554029 162.766602,38.6083984 C162.766602,38.8427746 162.855305,39.0380852 163.032715,39.1943359 C163.210125,39.3505867 163.469725,39.4287109 163.811523,39.4287109 C164.150067,39.4287109 164.451171,39.3546557 164.714844,39.206543 C164.978517,39.0584302 165.1722,38.8557956 165.295898,38.5986328 C165.3903,38.4000641 165.4375,38.1070983 165.4375,37.7197266 L165.4375,37.3974609 Z M167.693359,33.8525391 L167.693359,32.8417969 L168.572266,32.8417969 L168.572266,33.8525391 L167.693359,33.8525391 Z M167.693359,40 L167.693359,34.8144531 L168.572266,34.8144531 L168.572266,40 L167.693359,40 Z M169.910156,40 L169.910156,34.8144531 L170.701172,34.8144531 L170.701172,35.5517578 C171.082033,34.9820935 171.632158,34.6972656 172.351562,34.6972656 C172.664064,34.6972656 172.951333,34.7534174 173.213379,34.8657227 C173.475424,34.9780279 173.671549,35.1253246 173.801758,35.3076172 C173.931967,35.4899098 174.023112,35.706379 174.075195,35.9570312 C174.107748,36.1197925 174.124023,36.4046204 174.124023,36.8115234 L174.124023,40 L173.245117,40 L173.245117,36.8457031 C173.245117,36.4876284 173.210938,36.2198902 173.142578,36.0424805 C173.074218,35.8650707 172.952963,35.7234706 172.778809,35.6176758 C172.604654,35.511881 172.400392,35.4589844 172.166016,35.4589844 C171.791665,35.4589844 171.468589,35.5777983 171.196777,35.8154297 C170.924966,36.0530611 170.789062,36.5039029 170.789062,37.1679688 L170.789062,40 L169.910156,40 Z M175.476562,33.8525391 L175.476562,32.8417969 L176.355469,32.8417969 L176.355469,33.8525391 L175.476562,33.8525391 Z M175.476562,40 L175.476562,34.8144531 L176.355469,34.8144531 L176.355469,40 L175.476562,40 Z M177.693359,40 L177.693359,34.8144531 L178.484375,34.8144531 L178.484375,35.5517578 C178.865236,34.9820935 179.415361,34.6972656 180.134766,34.6972656 C180.447267,34.6972656 180.734536,34.7534174 180.996582,34.8657227 C181.258628,34.9780279 181.454752,35.1253246 181.584961,35.3076172 C181.71517,35.4899098 181.806315,35.706379 181.858398,35.9570312 C181.890951,36.1197925 181.907227,36.4046204 181.907227,36.8115234 L181.907227,40 L181.02832,40 L181.02832,36.8457031 C181.02832,36.4876284 180.994141,36.2198902 180.925781,36.0424805 C180.857422,35.8650707 180.736166,35.7234706 180.562012,35.6176758 C180.387857,35.511881 180.183595,35.4589844 179.949219,35.4589844 C179.574868,35.4589844 179.251792,35.5777983 178.97998,35.8154297 C178.708169,36.0530611 178.572266,36.5039029 178.572266,37.1679688 L178.572266,40 L177.693359,40 Z M183.09375,40.4296875 L183.948242,40.5566406 C183.98405,40.8203138 184.083333,41.0123692 184.246094,41.1328125 C184.464194,41.2955737 184.762042,41.3769531 185.139648,41.3769531 C185.546552,41.3769531 185.860676,41.2955737 186.082031,41.1328125 C186.303387,40.9700513 186.453125,40.742189 186.53125,40.4492188 C186.576823,40.2701814 186.597982,39.8942086 186.594727,39.3212891 C186.21061,39.7737653 185.732099,40 185.15918,40 C184.446285,40 183.894533,39.7428411 183.503906,39.2285156 C183.113279,38.7141901 182.917969,38.0973343 182.917969,37.3779297 C182.917969,36.8831355 183.007486,36.4265971 183.186523,36.0083008 C183.365561,35.5900044 183.625161,35.2669282 183.965332,35.0390625 C184.305503,34.8111968 184.705076,34.6972656 185.164062,34.6972656 C185.776045,34.6972656 186.280597,34.944659 186.677734,35.4394531 L186.677734,34.8144531 L187.488281,34.8144531 L187.488281,39.296875 C187.488281,40.1041707 187.406088,40.6762678 187.241699,41.0131836 C187.07731,41.3500993 186.816896,41.61621 186.460449,41.8115234 C186.104002,42.0068369 185.665367,42.1044922 185.144531,42.1044922 C184.526039,42.1044922 184.026369,41.9653334 183.645508,41.6870117 C183.264647,41.40869 183.080729,40.9895861 183.09375,40.4296875 Z M183.821289,37.3144531 C183.821289,37.9947951 183.956379,38.4912094 184.226562,38.8037109 C184.496746,39.1162125 184.835284,39.2724609 185.242188,39.2724609 C185.645835,39.2724609 185.984374,39.1170263 186.257812,38.8061523 C186.531251,38.4952784 186.667969,38.0078158 186.667969,37.34375 C186.667969,36.7089812 186.527182,36.2304704 186.245605,35.9082031 C185.964029,35.5859359 185.624676,35.4248047 185.227539,35.4248047 C184.836912,35.4248047 184.504884,35.5834945 184.231445,35.9008789 C183.958006,36.2182633 183.821289,36.68945 183.821289,37.3144531 Z M191.707031,40 L191.707031,32.8417969 L194.407227,32.8417969 C194.882489,32.8417969 195.245441,32.8645831 195.496094,32.9101562 C195.847658,32.9687503 196.142251,33.0802401 196.379883,33.2446289 C196.617514,33.4090177 196.808756,33.6393214 196.953613,33.9355469 C197.098471,34.2317723 197.170898,34.5572899 197.170898,34.9121094 C197.170898,35.5208364 196.977215,36.0359679 196.589844,36.4575195 C196.202472,36.8790711 195.502609,37.0898438 194.490234,37.0898438 L192.654297,37.0898438 L192.654297,40 L191.707031,40 Z M192.654297,36.2451172 L194.504883,36.2451172 C195.116865,36.2451172 195.551431,36.131186 195.808594,35.9033203 C196.065756,35.6754546 196.194336,35.3548198 196.194336,34.9414062 C196.194336,34.6419256 196.118653,34.3855805 195.967285,34.1723633 C195.815917,33.9591461 195.616538,33.8183597 195.369141,33.75 C195.232421,33.7137275 194.996454,33.6930006 194.661233,33.6878189 L192.654297,33.6865234 L192.654297,36.2451172 Z M198.245117,40 L198.245117,32.8417969 L199.124023,32.8417969 L199.124023,40 L198.245117,40 Z M203.870117,39.3603516 C203.544595,39.6370457 203.231284,39.8323562 202.930176,39.9462891 C202.629068,40.0602219 202.305991,40.1171875 201.960938,40.1171875 C201.391273,40.1171875 200.953452,39.9780287 200.647461,39.699707 C200.34147,39.4213853 200.188477,39.0657574 200.188477,38.6328125 C200.188477,38.378905 200.246256,38.1469737 200.361816,37.9370117 C200.477377,37.7270497 200.628743,37.5585944 200.815918,37.4316406 C201.003093,37.3046869 201.213866,37.2086592 201.448242,37.1435547 C201.620769,37.0979815 201.881183,37.0540367 202.229492,37.0117188 C202.939131,36.9270829 203.461587,36.8261725 203.796875,36.7089844 L203.801758,36.4794922 L203.801758,36.4794922 C203.801758,36.1214175 203.718751,35.8691414 203.552734,35.7226562 C203.328124,35.5240875 202.994468,35.4248047 202.551758,35.4248047 C202.138344,35.4248047 201.833172,35.4972323 201.63623,35.6420898 C201.439289,35.7869473 201.29362,36.0432924 201.199219,36.4111328 L200.339844,36.2939453 C200.417969,35.9261049 200.546549,35.6290701 200.725586,35.402832 C200.904623,35.1765939 201.16341,35.002442 201.501953,34.8803711 C201.840496,34.7583002 202.232745,34.6972656 202.678711,34.6972656 C203.121421,34.6972656 203.481118,34.7493484 203.757812,34.8535156 C204.034507,34.9576828 204.237955,35.0887036 204.368164,35.246582 C204.498373,35.4044604 204.589518,35.6038399 204.641602,35.8447266 C204.670899,35.9944669 204.685547,36.2646465 204.685547,36.6552734 L204.687403,38.2430363 C204.692972,38.8221954 204.711071,39.2003276 204.741699,39.3774414 C204.779134,39.5939138 204.85319,39.8014313 204.963867,40 L204.045898,40 C203.954752,39.8177074 203.896159,39.6044934 203.870117,39.3603516 Z M203.796875,37.3974609 C203.517739,37.5113938 203.116488,37.6103717 202.59311,37.6943969 L202.361328,37.7294922 C201.999998,37.7815758 201.744467,37.8401689 201.594727,37.9052734 C201.444986,37.9703779 201.329427,38.0655918 201.248047,38.190918 C201.166666,38.3162441 201.125977,38.4554029 201.125977,38.6083984 C201.125977,38.8427746 201.21468,39.0380852 201.39209,39.1943359 C201.5695,39.3505867 201.8291,39.4287109 202.170898,39.4287109 C202.509442,39.4287109 202.810546,39.3546557 203.074219,39.206543 C203.337892,39.0584302 203.531575,38.8557956 203.655273,38.5986328 C203.749675,38.4000641 203.796875,38.1070983 203.796875,37.7197266 L203.796875,37.3974609 Z M207.966797,39.2138672 L208.09375,39.9902344 C207.846353,40.042318 207.625001,40.0683594 207.429688,40.0683594 C207.110675,40.0683594 206.863282,40.0179042 206.6875,39.9169922 C206.511718,39.8160802 206.388021,39.6834318 206.316406,39.519043 C206.244791,39.3546541 206.208984,39.0087917 206.208984,38.4814453 L206.208984,35.4980469 L205.564453,35.4980469 L205.564453,34.8144531 L206.208984,34.8144531 L206.208984,33.5302734 L207.083008,33.0029297 L207.083008,34.8144531 L207.966797,34.8144531 L207.966797,35.4980469 L207.083008,35.4980469 L207.083008,38.5302734 C207.083008,38.7809257 207.09847,38.9420569 207.129395,39.0136719 C207.160319,39.0852868 207.210774,39.1422524 207.280762,39.1845703 C207.350749,39.2268882 207.450846,39.2480469 207.581055,39.2480469 L207.750732,39.239502 C207.815023,39.2338054 207.887044,39.2252605 207.966797,39.2138672 Z M209.036133,40 L209.036133,35.4980469 L208.259766,35.4980469 L208.259766,34.8144531 L209.036133,34.8144531 L209.036133,34.2626953 C209.036133,33.9143863 209.067057,33.6555998 209.128906,33.4863281 C209.213542,33.2584624 209.362466,33.0737312 209.575684,32.9321289 C209.788901,32.7905266 210.087563,32.7197266 210.47168,32.7197266 C210.719077,32.7197266 210.992512,32.7490231 211.291992,32.8076172 L211.160156,33.5742188 C210.977864,33.5416665 210.805339,33.5253906 210.642578,33.5253906 C210.37565,33.5253906 210.18685,33.5823562 210.076172,33.6962891 C209.965494,33.8102219 209.910156,34.0234359 209.910156,34.3359375 L209.910156,34.8144531 L210.920898,34.8144531 L210.920898,35.4980469 L209.910156,35.4980469 L209.910156,40 L209.036133,40 Z M211.277344,37.4072266 C211.277344,36.4469353 211.544268,35.7356794 212.078125,35.2734375 C212.524091,34.889321 213.067705,34.6972656 213.708984,34.6972656 C214.421879,34.6972656 215.004555,34.9308245 215.457031,35.3979492 C215.909507,35.865074 216.135742,36.5104125 216.135742,37.3339844 C216.135742,38.0013054 216.035646,38.5262025 215.835449,38.9086914 C215.635253,39.2911803 215.343915,39.5882151 214.961426,39.7998047 C214.578937,40.0113943 214.161461,40.1171875 213.708984,40.1171875 C212.983069,40.1171875 212.396324,39.8844424 211.94873,39.4189453 C211.501137,38.9534482 211.277344,38.282882 211.277344,37.4072266 Z M212.180664,37.4072266 C212.180664,38.0712924 212.325519,38.5685205 212.615234,38.8989258 C212.904949,39.2293311 213.269529,39.3945312 213.708984,39.3945312 C214.145184,39.3945312 214.508137,39.2285173 214.797852,38.8964844 C215.087567,38.5644515 215.232422,38.0582716 215.232422,37.3779297 C215.232422,36.7366504 215.086753,36.2508155 214.79541,35.9204102 C214.504068,35.5900049 214.141929,35.4248047 213.708984,35.4248047 C213.269529,35.4248047 212.904949,35.5891911 212.615234,35.9179688 C212.325519,36.2467464 212.180664,36.7431607 212.180664,37.4072266 Z M217.15625,40 L217.15625,34.8144531 L217.947266,34.8144531 L217.947266,35.6005859 C218.14909,35.2327456 218.335448,34.990235 218.506348,34.8730469 C218.677247,34.7558588 218.865233,34.6972656 219.070312,34.6972656 C219.366538,34.6972656 219.667642,34.7916657 219.973633,34.9804688 L219.670898,35.7958984 C219.456054,35.6689447 219.241212,35.6054688 219.026367,35.6054688 C218.834309,35.6054688 218.661785,35.6632481 218.508789,35.7788086 C218.355794,35.8943691 218.246745,36.0546865 218.181641,36.2597656 C218.083984,36.5722672 218.035156,36.9140606 218.035156,37.2851562 L218.035156,40 L217.15625,40 Z M220.496094,40 L220.496094,34.8144531 L221.282227,34.8144531 L221.282227,35.5419922 C221.444988,35.2880847 221.661457,35.0838224 221.931641,34.9291992 C222.201824,34.774576 222.509438,34.6972656 222.854492,34.6972656 C223.238609,34.6972656 223.553547,34.7770174 223.799316,34.9365234 C224.045086,35.0960294 224.218424,35.319009 224.319336,35.6054688 C224.729494,34.999997 225.263343,34.6972656 225.920898,34.6972656 C226.435224,34.6972656 226.830728,34.8396796 227.107422,35.1245117 C227.384116,35.4093439 227.522461,35.8479788 227.522461,36.4404297 L227.522461,40 L226.648438,40 L226.648438,36.7333984 C226.648438,36.3818342 226.619955,36.1287443 226.562988,35.9741211 C226.506022,35.8194979 226.40267,35.6949875 226.25293,35.6005859 C226.103189,35.5061844 225.92741,35.4589844 225.725586,35.4589844 C225.361001,35.4589844 225.058269,35.5802397 224.817383,35.8227539 C224.576496,36.0652681 224.456055,36.4534479 224.456055,36.9873047 L224.456055,40 L223.577148,40 L223.577148,36.6308594 C223.577148,36.2402324 223.505535,35.9472666 223.362305,35.7519531 C223.219075,35.5566396 222.984702,35.4589844 222.65918,35.4589844 C222.411783,35.4589844 222.183107,35.5240879 221.973145,35.6542969 C221.763183,35.7845059 221.611003,35.9749336 221.516602,36.2255859 C221.4222,36.4762382 221.375,36.8375627 221.375,37.3095703 L221.375,40 L220.496094,40 Z" id="BIGDATACertificationTrainingPlatform" fill="#FFFFFF" fill-rule="nonzero"></path>
                            <g id="logo" fill="#4C87FB">
                                <path d="M33.157215,17.5143 L17.67682,2.22213 C17.417925,1.96533 16.997925,1.96533 16.73896,2.22213 L1.25958,17.5143 C1.001735,17.7711 1.001735,18.18402 1.25958,18.44007 L5.890745,23.01447 C5.987345,23.09958 6.436185,23.43429 6.87883,22.94829 C6.88387,22.94241 6.885935,22.94241 6.894195,22.93704 L11.538765,18.34449 C11.797625,18.09075 12.21773,18.09075 12.47764,18.34449 L22.442455,28.19064 C22.58837,28.30002 22.97246,28.5144 23.36166,28.12167 L33.157215,18.44007 C33.41597,18.18402 33.41597,17.7711 33.157215,17.5143 Z" id="形状-357-拷贝"></path>
                                <path d="M32.5318,29.89527 L33.157215,30.51132 C33.41597,30.7671 33.41597,31.18107 33.157215,31.43787 L33.157215,31.43787 L17.67682,46.73001 C17.417925,46.98579 16.997925,46.98579 16.73896,46.73001 L16.73896,46.73001 L16.11561,46.11291 L32.5318,29.89527 Z M30.344055,27.73299 L31.423455,28.80162 L15.01045,45.02106 L13.92888,43.9527 L30.344055,27.73299 Z M27.723815,26.00181 C27.98369,25.78053 28.374045,25.78872 28.62146,26.03325 L28.62146,26.03325 L29.030365,26.43597 L29.235675,26.64192 L12.824735,42.85983 L11.74005,41.79123 Z M20.81044,28.51032 L21.653625,29.34027 C21.727545,29.43147 21.82117,29.61213 21.639205,29.82141 C21.631085,29.83035 21.629125,29.8365 21.6209,29.84568 L21.6209,29.84568 L10.634925,40.69938 L9.55241,39.63075 L20.81044,28.51032 Z M18.623815,26.3478 L19.70423,27.41538 L8.44816,38.53686 L7.366695,37.46748 L18.623815,26.3478 Z M16.43705,24.18528 L17.516485,25.25697 L6.262585,36.37743 L5.179965,35.30703 L16.43705,24.18528 Z M14.248255,22.02279 L15.32972,23.09445 L4.07274,34.21413 L2.99222,33.14655 L14.248255,22.02279 Z M11.760665,20.13855 C11.81607,20.08284 12.035905,19.88685 12.29578,20.10915 C12.31524,20.12628 12.33162,20.13855 12.350135,20.14773 L12.350135,20.14773 L13.141975,20.93118 L1.88706,32.0547 L1.25958,31.43787 C1.001735,31.18107 1.001735,30.7671 1.25958,30.51132 L1.25958,30.51132 L11.744075,20.15286 C11.744075,20.15361 11.75244,20.14773 11.756535,20.14341 L11.756535,20.14341 Z" id="Combined-shape-1077"></path>
                            </g>
                        </g>
                    </g>
                </g>
            </g>
        </g>
    </g>
</svg>