<?xml version="1.0" encoding="UTF-8"?>
<svg width="189px" height="45px" viewBox="0 0 189 45" version="1.1" xmlns="http://www.w3.org/2000/svg" xmlns:xlink="http://www.w3.org/1999/xlink">
    <!-- Generator: Sketch 59.1 (86144) - https://sketch.com -->
    <title>大数据竞赛平台</title>
    <desc>Created with Sketch.</desc>
    <g id="UI规范" stroke="none" stroke-width="1" fill="none" fill-rule="evenodd">
        <g id="web-1920-0logo" transform="translate(-46.000000, -16.000000)">
            <g id="01-框架_-顶部">
                <g id="logo">
                    <g transform="translate(45.000000, 12.000000)">
                        <g id="大数据竞赛平台" transform="translate(0.000000, 2.000000)">
                            <path d="M47.14,14.6 L54.72,14.6 C54.853334,13.4933278 54.9266666,12.4200052 54.94,11.38 L54.94,9.58 L57.06,9.58 L57.06,10.9 C57.06,12.1533396 56.9866674,13.3866606 56.84,14.6 L64.86,14.6 L64.86,16.64 L57.32,16.64 C58.7600072,20.8133542 61.4266472,24.0399886 65.32,26.32 L64,28.04 C60.2266478,25.706655 57.5800076,22.4866872 56.06,18.38 C54.6999932,22.8333556 52.02002,26.1133228 48.02,28.22 L46.68,26.46 C50.7200202,24.4999902 53.2799946,21.2266896 54.36,16.64 L47.14,16.64 L47.14,14.6 Z M79.6857143,14.42 L79.4657143,15.22 C79.8923831,17.1266762 80.4457109,18.8399924 81.1257143,20.36 C81.6990505,18.6399914 82.0257139,16.6600112 82.1057143,14.42 L79.6857143,14.42 Z M80.1657143,22.56 C79.5257111,21.2799936 78.9590501,19.806675 78.4657143,18.14 C78.1857129,18.7666698 77.8723827,19.3866636 77.5257143,20 L76.2257143,18.38 C77.3323865,16.179989 78.0723791,13.2400184 78.4457143,9.56 L80.4857143,9.92 C80.3523803,10.9333384 80.2257143,11.7599968 80.1057143,12.4 L85.1057143,12.4 L85.1057143,14.42 L84.0257143,14.42 C83.9057137,17.6333494 83.3323861,20.3666554 82.3057143,22.62 C83.2523857,24.153341 84.3923743,25.3666622 85.7257143,26.26 L84.5257143,28.04 C83.2990415,27.1466622 82.2190523,25.9733406 81.2857143,24.52 C80.3257095,25.9733406 79.1590545,27.1933284 77.7857143,28.18 L76.6657143,26.38 C78.1057215,25.4333286 79.2723765,24.160008 80.1657143,22.56 Z M72.6857143,19.08 C72.5923805,19.3733348 72.4923815,19.653332 72.3857143,19.92 L76.3857143,19.92 L76.3857143,21.68 C76.0790461,22.813339 75.4857187,23.8266622 74.6057143,24.72 C75.3123845,25.0266682 76.0457105,25.379998 76.8057143,25.78 L75.6657143,27.46 C74.8523769,26.9799976 73.9457193,26.506669 72.9457143,26.04 C71.6657079,26.8533374 70.0190577,27.526664 68.0057143,28.06 L67.0057143,26.26 C68.4190547,25.9399984 69.6457091,25.5400024 70.6857143,25.06 L69.5310196,24.5922445 C69.0455784,24.397415 68.5971449,24.2200008 68.1857143,24.06 C68.6657167,23.259996 69.0857125,22.5000036 69.4457143,21.78 L67.4857143,21.78 L67.4857143,19.92 L70.2657143,19.92 L70.6689143,18.8273776 C70.6685588,18.8295703 70.6674921,18.8337777 70.6657143,18.84 L72.6857143,19.08 Z M72.6257143,23.92 C73.4523851,23.2666634 74.0657123,22.5533372 74.4657143,21.78 L71.5657143,21.78 C71.3923801,22.113335 71.1190495,22.5999968 70.7457143,23.24 C71.1723831,23.373334 71.7990435,23.5999984 72.6257143,23.92 Z M69.4257143,9.96 C69.8657165,10.6800036 70.2590459,11.4666624 70.6057143,12.32 L69.0057143,13.04 C68.6190457,12.106662 68.1857167,11.2666704 67.7057143,10.52 L69.4257143,9.96 Z M76.6057143,10.66 C76.1923789,11.526671 75.6857173,12.3466628 75.0857143,13.12 L73.5657143,12.32 C74.1257171,11.5066626 74.5923791,10.6866708 74.9657143,9.86 L76.6057143,10.66 Z M67.5457143,13.22 L71.2657143,13.22 L71.2657143,9.6 L73.1857143,9.6 L73.1857143,13.22 L76.5857143,13.22 L76.5857143,15.04 L73.1857143,15.04 L73.1857143,15.08 C74.2257195,15.4933354 75.2857089,15.9733306 76.3657143,16.52 L75.2857143,18.16 L74.7464537,17.7372828 C74.1415152,17.2694636 73.621272,16.8903718 73.1857143,16.6 L73.1857143,18.7 L71.2657143,18.7 L71.2657143,15.56 C70.5857109,16.9200068 69.5323881,18.1133282 68.1057143,19.14 L67.0657143,17.46 C68.3857209,16.7133296 69.3390447,15.906671 69.9257143,15.04 L67.5457143,15.04 L67.5457143,13.22 Z M88.1714286,27.9 L87.7314286,25.94 C88.3180982,26.0333338 88.7980934,26.08 89.1714286,26.08 C89.5980974,26.08 89.8114286,25.8266692 89.8114286,25.32 L89.8114286,21.28 L88.0552155,21.8930178 C87.9470501,21.9294674 87.8591212,21.9584614 87.7914286,21.98 L87.2514286,19.92 C88.131433,19.719999 88.9847578,19.4800014 89.8114286,19.2 L89.8114286,15.2 L87.6514286,15.2 L87.6514286,13.18 L89.8114286,13.18 L89.8114286,9.64 L91.8514286,9.64 L91.8514286,13.18 L93.5514286,13.18 L93.5514286,15.2 L91.8514286,15.2 L91.8514286,18.38 L92.6289803,18.0077548 C92.9468027,17.8521089 93.2276178,17.7095245 93.4714286,17.58 L93.4714286,19.62 L91.8514286,20.42 L91.8514286,25.84 C91.8514286,27.2133402 91.1914352,27.9 89.8714286,27.9 L88.1714286,27.9 Z M96.1914286,19.28 C95.9514274,22.6000166 95.1981016,25.5466538 93.9314286,28.12 L92.2914286,26.66 C93.5847684,24.126654 94.2447618,20.8533534 94.2714286,16.84 L94.2714286,10.2 L105.231429,10.2 L105.231429,15.5 L101.631429,15.5 L101.631429,17.38 L105.671429,17.38 L105.671429,19.28 L101.631429,19.28 L101.631429,21.2 L104.791429,21.2 L104.791429,28.08 L102.871429,28.08 L102.871429,27.26 L98.3714286,27.26 L98.3714286,28.08 L96.4514286,28.08 L96.4514286,21.2 L99.5914286,21.2 L99.5914286,19.28 L96.1914286,19.28 Z M99.5914286,15.5 L96.2914286,15.5 L96.2914286,17.1 L96.2714286,17.38 L99.5914286,17.38 L99.5914286,15.5 Z M98.3714286,25.42 L102.871429,25.42 L102.871429,23.04 L98.3714286,23.04 L98.3714286,25.42 Z M103.191429,12.1 L96.2914286,12.1 L96.2914286,13.66 L103.191429,13.66 L103.191429,12.1 Z M119.997143,27.66 C118.583802,27.66 117.877143,27.0066732 117.877143,25.7 L117.877143,23.14 L116.017143,23.14 C115.510474,24.4200064 114.903813,25.4133298 114.197143,26.12 C113.237138,27.0400046 111.343824,27.7399976 108.517143,28.22 L107.677143,26.26 C110.010488,26.02 111.623805,25.5533368 112.517143,24.86 C112.983812,24.5133316 113.417141,23.940004 113.817143,23.14 L110.397143,23.14 L110.397143,17.52 L123.337143,17.52 L123.337143,23.14 L119.977143,23.14 L119.977143,25.26 C119.977143,25.6200018 120.183807,25.8 120.597143,25.8 L123.277143,25.8 C123.530477,25.8 123.723809,25.6933344 123.857143,25.48 C124.00381,25.2266654 124.097143,24.533339 124.137143,23.4 L126.077143,24.02 C125.917142,25.7933422 125.650478,26.846665 125.277143,27.18 C124.943808,27.5000016 124.41048,27.66 123.677143,27.66 L119.997143,27.66 Z M112.117143,12.78 L109.057143,12.78 L109.057143,11.02 L115.797143,11.02 C115.623809,10.6333314 115.397144,10.2200022 115.117143,9.78 L117.417143,9.42 L117.586032,9.88222246 C117.70455,10.2140736 117.83492,10.5933312 117.977143,11.02 L124.537143,11.02 L124.537143,12.78 L121.597143,12.78 L120.877143,14.58 L125.597143,14.58 L125.597143,16.38 L108.117143,16.38 L108.117143,14.58 L112.797143,14.58 L112.117143,12.78 Z M114.977143,14.58 L118.697143,14.58 L119.417143,12.78 L114.297143,12.78 L114.977143,14.58 Z M121.317143,21.34 L121.317143,19.3 L112.417143,19.3 L112.417143,21.34 L121.317143,21.34 Z M140.642857,19.96 C140.242855,19.6533318 139.936192,19.3733346 139.722857,19.12 L134.462857,19.12 C134.182856,19.4000014 133.882859,19.6799986 133.562857,19.96 L140.642857,19.96 Z M142.082857,19.12 C143.096196,19.6800028 144.469515,20.1399982 146.202857,20.5 L145.362857,22.28 C144.562857,22.0266654 143.769528,21.7200018 142.982857,21.36 L142.982857,24.78 L140.942857,24.78 L140.942857,21.6 L133.542857,21.6 L133.542857,24.78 L131.522857,24.78 L131.522857,21.24 C130.82952,21.6000018 130.029528,21.946665 129.122857,22.28 L128.062857,20.54 C129.782866,20.1266646 131.122852,19.653336 132.082857,19.12 L128.602857,19.12 L128.602857,17.48 L133.802857,17.48 L133.802857,16.7 L131.502857,16.7 L131.502857,15.22 L133.802857,15.22 L133.802857,14.48 L131.102857,14.48 L131.102857,12.96 L133.802857,12.96 L133.802857,12.26 L130.722857,12.26 L130.722857,14.12 L128.722857,14.12 L128.722857,10.54 L135.982857,10.54 L135.382857,9.72 L137.602857,9.36 C137.842858,9.7733354 138.042856,10.1666648 138.202857,10.54 L145.562857,10.54 L145.562857,14.12 L143.562857,14.12 L143.562857,12.26 L140.462857,12.26 L140.462857,12.96 L143.182857,12.96 L143.182857,14.48 L140.462857,14.48 L140.462857,15.22 L142.802857,15.22 L142.802857,16.7 L140.462857,16.7 L140.462857,17.48 L145.722857,17.48 L145.722857,19.12 L142.082857,19.12 Z M138.422857,12.26 L135.842857,12.26 L135.842857,12.96 L138.422857,12.96 L138.422857,12.26 Z M135.842857,17.48 L138.422857,17.48 L138.422857,16.7 L135.842857,16.7 L135.842857,17.48 Z M138.422857,15.22 L138.422857,14.48 L135.842857,14.48 L135.842857,15.22 L138.422857,15.22 Z M138.642857,24.4 C140.776201,24.9866696 142.756181,25.7199956 144.582857,26.6 L143.522857,28.24 C141.642848,27.2666618 139.669534,26.4933362 137.602857,25.92 L138.642857,24.4 Z M138.002857,22.18 C137.750224,24.2389577 137.270229,25.6337376 136.562858,26.3643763 L136.442857,26.48 C135.616186,27.3733378 133.556207,27.9599986 130.262857,28.24 L129.462857,26.44 C132.129537,26.3199994 133.896186,25.9400032 134.762857,25.3 C135.536194,24.6599968 135.969523,23.5600078 136.062857,22 L138.002857,22.18 Z M149.288571,10.28 L165.628571,10.28 L165.628571,12.32 L158.408571,12.32 L158.408571,19.2 L166.368571,19.2 L166.368571,21.22 L158.408571,21.22 L158.408571,28.06 L156.288571,28.06 L156.288571,21.22 L148.488571,21.22 L148.488571,19.2 L156.288571,19.2 L156.288571,12.32 L149.288571,12.32 L149.288571,10.28 Z M152.228571,13.12 C152.908575,14.3733396 153.601901,15.8599914 154.308571,17.58 L152.348571,18.54 C151.735235,16.939992 151.048575,15.4466736 150.288571,14.06 L152.228571,13.12 Z M164.708571,13.94 C164.148569,15.473341 163.415243,16.9666594 162.508571,18.42 L160.628571,17.46 C161.521909,16.0199928 162.248569,14.5466742 162.808571,13.04 L164.708571,13.94 Z M184.614286,19.54 L184.614286,28.12 L182.494286,28.12 L182.494286,27.36 L172.934286,27.36 L172.934286,28.12 L170.814286,28.12 L170.814286,19.54 L184.614286,19.54 Z M172.934286,25.36 L182.494286,25.36 L182.494286,21.54 L172.934286,21.54 L172.934286,25.36 Z M169.174286,15.78 C170.587626,15.5533322 172.654272,13.4533532 175.374286,9.48 L177.534286,10.24 C175.947611,12.4133442 174.36096,14.2399926 172.774286,15.72 C176.014302,15.5599992 179.17427,15.3400014 182.254286,15.06 C181.667616,14.193329 181.054289,13.360004 180.414286,12.56 L182.314286,11.66 C183.874294,13.6200098 185.387612,15.8266544 186.854286,18.28 L184.814286,19.28 L184.526785,18.7574992 C184.221786,18.2124998 183.864288,17.6000034 183.454286,16.92 C179.294265,17.2933352 174.660978,17.5733324 169.554286,17.76 L169.174286,15.78 Z" fill="#FFFFFF" fill-rule="nonzero"></path>
                            <path d="M47.7324219,40 L47.7324219,32.8417969 L50.4179688,32.8417969 C50.9648465,32.8417969 51.4034814,32.9142245 51.7338867,33.059082 C52.064292,33.2039395 52.3230785,33.4269191 52.5102539,33.7280273 C52.6974293,34.0291356 52.7910156,34.3440739 52.7910156,34.6728516 C52.7910156,34.9788427 52.7080086,35.2669257 52.5419922,35.5371094 C52.3759757,35.807293 52.1253272,36.0253898 51.7900391,36.1914062 C52.2229839,36.31836 52.5558257,36.5348292 52.7885742,36.8408203 C53.0213228,37.1468114 53.1376953,37.5081359 53.1376953,37.9248047 C53.1376953,38.2600928 53.0668952,38.5717759 52.925293,38.8598633 C52.7836907,39.1479507 52.608725,39.3701164 52.4003906,39.5263672 C52.1920563,39.682618 51.9308284,39.8006181 51.6166992,39.8803711 C51.30257,39.9601241 50.9176455,40 50.4619141,40 L47.7324219,40 Z M48.6796875,35.8496094 L50.2275391,35.8496094 C50.647463,35.8496094 50.9485668,35.8219404 51.1308594,35.7666016 C51.371746,35.6949866 51.553222,35.5761727 51.675293,35.4101562 C51.7973639,35.2441398 51.8583984,35.0358085 51.8583984,34.7851562 C51.8583984,34.5475249 51.8014329,34.3383798 51.6875,34.1577148 C51.5735671,33.9770499 51.4108083,33.8533532 51.1992188,33.7866211 C50.9876292,33.719889 50.6246771,33.6865234 50.1103516,33.6865234 L48.6796875,33.6865234 L48.6796875,35.8496094 Z M48.6796875,36.6943359 L48.6796875,39.1552734 L50.4619141,39.1552734 C50.7679052,39.1552734 50.9827468,39.1438803 51.1064453,39.1210938 C51.3245454,39.0820311 51.5068352,39.0169275 51.6533203,38.9257812 C51.7998054,38.834635 51.9202469,38.7019865 52.0146484,38.527832 C52.10905,38.3536775 52.15625,38.1526704 52.15625,37.9248047 C52.15625,37.6578763 52.0878913,37.425945 51.9511719,37.2290039 C51.8144524,37.0320628 51.6248385,36.8937178 51.3823242,36.8139648 C51.13981,36.7342118 50.7906924,36.6943359 50.3349609,36.6943359 L48.6796875,36.6943359 Z M54.6025391,40 L54.6025391,32.8417969 L55.5498047,32.8417969 L55.5498047,40 L54.6025391,40 Z M60.5693359,37.1923828 L60.5693359,36.3525391 L63.6015625,36.3476562 L63.6015625,39.0039062 C63.1360654,39.3750019 62.655927,39.6541332 62.1611328,39.8413086 C61.6663387,40.028484 61.1585312,40.1220703 60.6376953,40.1220703 C59.9345668,40.1220703 59.2957385,39.9715184 58.7211914,39.6704102 C58.1466443,39.3693019 57.7128921,38.9339221 57.4199219,38.3642578 C57.1269517,37.7945935 56.9804688,37.1582066 56.9804688,36.4550781 C56.9804688,35.7584601 57.1261379,35.1082387 57.4174805,34.5043945 C57.7088231,33.9005504 58.127927,33.4521499 58.6748047,33.1591797 C59.2216824,32.8662095 59.8515589,32.7197266 60.5644531,32.7197266 C61.0820338,32.7197266 61.5499654,32.8035473 61.9682617,32.9711914 C62.3865581,33.1388355 62.714517,33.3723943 62.9521484,33.671875 C63.1897798,33.9713557 63.3704421,34.3619768 63.4941406,34.84375 L62.6396484,35.078125 C62.532226,34.7135398 62.3987638,34.4270844 62.2392578,34.21875 C62.0797518,34.0104156 61.8518895,33.8435879 61.5556641,33.7182617 C61.2594386,33.5929356 60.9306659,33.5302734 60.5693359,33.5302734 C60.1363911,33.5302734 59.7620458,33.5961907 59.4462891,33.7280273 C59.1305323,33.8598639 58.8758148,34.0332021 58.6821289,34.2480469 C58.488443,34.4628917 58.3378912,34.6988919 58.2304688,34.9560547 C58.0481762,35.3987652 57.9570312,35.8789037 57.9570312,36.3964844 C57.9570312,37.0345084 58.0668934,37.5683572 58.2866211,37.9980469 C58.5063488,38.4277365 58.8261698,38.7467438 59.2460938,38.9550781 C59.6660177,39.1634125 60.1119768,39.2675781 60.5839844,39.2675781 C60.9941427,39.2675781 61.3945293,39.1886401 61.7851562,39.0307617 C62.1757832,38.8728833 62.4720042,38.704428 62.6738281,38.5253906 L62.6738281,37.1923828 L60.5693359,37.1923828 Z M67.7763672,40 L67.7763672,32.8417969 L70.2421875,32.8417969 C70.7988309,32.8417969 71.2236313,32.8759762 71.5166016,32.9443359 C71.9267599,33.0387375 72.2766913,33.2096342 72.5664062,33.4570312 C72.9440123,33.7760433 73.2263988,34.183754 73.4135742,34.6801758 C73.6007496,35.1765975 73.6943359,35.7438119 73.6943359,36.3818359 C73.6943359,36.9254584 73.63086,37.4072245 73.5039062,37.8271484 C73.3769525,38.2470724 73.2141937,38.5945624 73.015625,38.8696289 C72.8170563,39.1446954 72.5997733,39.3611646 72.3637695,39.519043 C72.1277657,39.6769214 71.8429379,39.7965491 71.5092773,39.8779297 C71.1756168,39.9593103 70.7923199,40 70.359375,40 L67.7763672,40 Z M68.7236328,39.1552734 L70.2519531,39.1552734 C70.7239607,39.1552734 71.0942369,39.1113286 71.362793,39.0234375 C71.631349,38.9355464 71.8453768,38.8118498 72.0048828,38.6523438 C72.2294933,38.4277333 72.404459,38.1258157 72.5297852,37.746582 C72.6551113,37.3673484 72.7177734,36.9075548 72.7177734,36.3671875 C72.7177734,35.6184858 72.5948906,35.0431335 72.3491211,34.6411133 C72.1033516,34.239093 71.8046893,33.9697272 71.453125,33.8330078 C71.1992175,33.7353511 70.7906929,33.6865234 70.2275391,33.6865234 L68.7236328,33.6865234 L68.7236328,39.1552734 Z M74.2119141,40 L76.9609375,32.8417969 L77.9814453,32.8417969 L80.9111328,40 L79.8320312,40 L78.9970703,37.8320312 L76.0039062,37.8320312 L75.2177734,40 L74.2119141,40 Z M76.2773438,37.0605469 L78.7041016,37.0605469 L77.9570312,35.078125 C77.7291655,34.4759084 77.5598964,33.9811217 77.4492188,33.59375 C77.3580725,34.0527367 77.229493,34.5084613 77.0634766,34.9609375 L76.2773438,37.0605469 Z M83.4892578,40 L83.4892578,33.6865234 L81.1308594,33.6865234 L81.1308594,32.8417969 L86.8046875,32.8417969 L86.8046875,33.6865234 L84.4365234,33.6865234 L84.4365234,40 L83.4892578,40 Z M86.9902344,40 L89.7392578,32.8417969 L90.7597656,32.8417969 L93.6894531,40 L92.6103516,40 L91.7753906,37.8320312 L88.7822266,37.8320312 L87.9960938,40 L86.9902344,40 Z M89.0556641,37.0605469 L91.4824219,37.0605469 L90.7353516,35.078125 C90.5074858,34.4759084 90.3382167,33.9811217 90.2275391,33.59375 C90.1363928,34.0527367 90.0078133,34.5084613 89.8417969,34.9609375 L89.0556641,37.0605469 Z M102.332031,37.4902344 L103.279297,37.7294922 C103.080728,38.5074909 102.723473,39.1007467 102.20752,39.5092773 C101.691566,39.917808 101.060876,40.1220703 100.31543,40.1220703 C99.5439415,40.1220703 98.9165063,39.9650081 98.4331055,39.6508789 C97.9497046,39.3367497 97.5818698,38.8818389 97.3295898,38.2861328 C97.0773099,37.6904267 96.9511719,37.0507847 96.9511719,36.3671875 C96.9511719,35.6217411 97.0935858,34.9715197 97.378418,34.4165039 C97.6632501,33.8614881 98.0685195,33.4399428 98.5942383,33.1518555 C99.1199571,32.8637681 99.6985646,32.7197266 100.330078,32.7197266 C101.046228,32.7197266 101.648435,32.9020164 102.136719,33.2666016 C102.625002,33.6311867 102.965168,34.1438769 103.157227,34.8046875 L102.224609,35.0244141 C102.058593,34.5035781 101.81771,34.1243501 101.501953,33.8867188 C101.186196,33.6490874 100.789065,33.5302734 100.310547,33.5302734 C99.7604139,33.5302734 99.3006203,33.6621081 98.9311523,33.9257812 C98.5616844,34.1894544 98.3020841,34.5434548 98.1523438,34.987793 C98.0026034,35.4321311 97.9277344,35.8902971 97.9277344,36.3623047 C97.9277344,36.9710317 98.0164379,37.5024391 98.1938477,37.956543 C98.3712574,38.4106468 98.6471335,38.7499989 99.0214844,38.9746094 C99.3958352,39.1992199 99.8011046,39.3115234 100.237305,39.3115234 C100.767906,39.3115234 101.217121,39.1585302 101.584961,38.8525391 C101.952801,38.5465479 102.201822,38.0924509 102.332031,37.4902344 Z M104.006836,37.4072266 C104.006836,36.4469353 104.27376,35.7356794 104.807617,35.2734375 C105.253583,34.889321 105.797197,34.6972656 106.438477,34.6972656 C107.151371,34.6972656 107.734047,34.9308245 108.186523,35.3979492 C108.639,35.865074 108.865234,36.5104125 108.865234,37.3339844 C108.865234,38.0013054 108.765138,38.5262025 108.564941,38.9086914 C108.364745,39.2911803 108.073407,39.5882151 107.690918,39.7998047 C107.308429,40.0113943 106.890953,40.1171875 106.438477,40.1171875 C105.712561,40.1171875 105.125816,39.8844424 104.678223,39.4189453 C104.230629,38.9534482 104.006836,38.282882 104.006836,37.4072266 Z M104.910156,37.4072266 C104.910156,38.0712924 105.055012,38.5685205 105.344727,38.8989258 C105.634442,39.2293311 105.999021,39.3945312 106.438477,39.3945312 C106.874677,39.3945312 107.237629,39.2285173 107.527344,38.8964844 C107.817059,38.5644515 107.961914,38.0582716 107.961914,37.3779297 C107.961914,36.7366504 107.816245,36.2508155 107.524902,35.9204102 C107.23356,35.5900049 106.871421,35.4248047 106.438477,35.4248047 C105.999021,35.4248047 105.634442,35.5891911 105.344727,35.9179688 C105.055012,36.2467464 104.910156,36.7431607 104.910156,37.4072266 Z M109.895508,40 L109.895508,34.8144531 L110.681641,34.8144531 L110.681641,35.5419922 C110.844402,35.2880847 111.060871,35.0838224 111.331055,34.9291992 C111.601238,34.774576 111.908852,34.6972656 112.253906,34.6972656 C112.638023,34.6972656 112.952961,34.7770174 113.19873,34.9365234 C113.4445,35.0960294 113.617838,35.319009 113.71875,35.6054688 C114.128908,34.999997 114.662757,34.6972656 115.320312,34.6972656 C115.834638,34.6972656 116.230142,34.8396796 116.506836,35.1245117 C116.78353,35.4093439 116.921875,35.8479788 116.921875,36.4404297 L116.921875,40 L116.047852,40 L116.047852,36.7333984 C116.047852,36.3818342 116.019369,36.1287443 115.962402,35.9741211 C115.905436,35.8194979 115.802084,35.6949875 115.652344,35.6005859 C115.502603,35.5061844 115.326824,35.4589844 115.125,35.4589844 C114.760415,35.4589844 114.457683,35.5802397 114.216797,35.8227539 C113.97591,36.0652681 113.855469,36.4534479 113.855469,36.9873047 L113.855469,40 L112.976562,40 L112.976562,36.6308594 C112.976562,36.2402324 112.904949,35.9472666 112.761719,35.7519531 C112.618489,35.5566396 112.384116,35.4589844 112.058594,35.4589844 C111.811197,35.4589844 111.582521,35.5240879 111.372559,35.6542969 C111.162597,35.7845059 111.010417,35.9749336 110.916016,36.2255859 C110.821614,36.4762382 110.774414,36.8375627 110.774414,37.3095703 L110.774414,40 L109.895508,40 Z M118.225586,41.9873047 L118.225586,34.8144531 L119.026367,34.8144531 L119.026367,35.4882812 C119.21517,35.2246081 119.428384,35.0268561 119.666016,34.8950195 C119.903647,34.7631829 120.19173,34.6972656 120.530273,34.6972656 C120.972984,34.6972656 121.363605,34.8111968 121.702148,35.0390625 C122.040692,35.2669282 122.296223,35.5883768 122.46875,36.003418 C122.641277,36.4184591 122.727539,36.8733699 122.727539,37.3681641 C122.727539,37.8987657 122.632325,38.3764627 122.441895,38.8012695 C122.251464,39.2260763 121.974774,39.5515939 121.611816,39.777832 C121.248859,40.0040701 120.86719,40.1171875 120.466797,40.1171875 C120.173827,40.1171875 119.910971,40.0553392 119.678223,39.9316406 C119.445474,39.8079421 119.254233,39.6516937 119.104492,39.4628906 L119.104492,41.9873047 L118.225586,41.9873047 Z M119.021484,37.4365234 C119.021484,38.1038445 119.156574,38.5970036 119.426758,38.9160156 C119.696941,39.2350276 120.024087,39.3945312 120.408203,39.3945312 C120.79883,39.3945312 121.133299,39.2293311 121.411621,38.8989258 C121.689943,38.5685205 121.829102,38.0566441 121.829102,37.3632812 C121.829102,36.7024707 121.693198,36.2076839 121.421387,35.8789062 C121.149575,35.5501286 120.824872,35.3857422 120.447266,35.3857422 C120.072915,35.3857422 119.741701,35.5607079 119.453613,35.9106445 C119.165526,36.2605812 119.021484,36.7692024 119.021484,37.4365234 Z M127.336914,38.3300781 L128.245117,38.4423828 C128.101887,38.9729844 127.83659,39.3847642 127.449219,39.6777344 C127.061847,39.9707046 126.56706,40.1171875 125.964844,40.1171875 C125.206376,40.1171875 124.604983,39.8836286 124.160645,39.4165039 C123.716306,38.9493792 123.494141,38.294275 123.494141,37.4511719 C123.494141,36.5787717 123.718748,35.9016951 124.167969,35.4199219 C124.61719,34.9381486 125.199866,34.6972656 125.916016,34.6972656 C126.609378,34.6972656 127.175779,34.9332659 127.615234,35.4052734 C128.05469,35.877281 128.274414,36.5413369 128.274414,37.3974609 L128.269531,37.6318359 L128.269531,37.6318359 L124.402344,37.6318359 C124.434896,38.2015002 124.596027,38.6376938 124.885742,38.9404297 C125.175457,39.2431656 125.536782,39.3945312 125.969727,39.3945312 C126.291994,39.3945312 126.567056,39.3098967 126.794922,39.140625 C127.022788,38.9713533 127.20345,38.7011737 127.336914,38.3300781 Z M124.451172,36.9091797 L127.34668,36.9091797 C127.307617,36.4729796 127.196941,36.1458344 127.014648,35.9277344 C126.734699,35.589191 126.371747,35.4199219 125.925781,35.4199219 C125.522133,35.4199219 125.182781,35.5550117 124.907715,35.8251953 C124.632648,36.095379 124.480469,36.4567035 124.451172,36.9091797 Z M131.267578,39.2138672 L131.394531,39.9902344 C131.147134,40.042318 130.925782,40.0683594 130.730469,40.0683594 C130.411457,40.0683594 130.164063,40.0179042 129.988281,39.9169922 C129.812499,39.8160802 129.688802,39.6834318 129.617188,39.519043 C129.545573,39.3546541 129.509766,39.0087917 129.509766,38.4814453 L129.509766,35.4980469 L128.865234,35.4980469 L128.865234,34.8144531 L129.509766,34.8144531 L129.509766,33.5302734 L130.383789,33.0029297 L130.383789,34.8144531 L131.267578,34.8144531 L131.267578,35.4980469 L130.383789,35.4980469 L130.383789,38.5302734 L130.388943,38.7510855 C130.395815,38.8784003 130.409559,38.9659286 130.430176,39.0136719 C130.4611,39.0852868 130.511556,39.1422524 130.581543,39.1845703 C130.65153,39.2268882 130.751627,39.2480469 130.881836,39.2480469 L131.051514,39.239502 C131.115804,39.2338054 131.187825,39.2252605 131.267578,39.2138672 Z M132.131836,33.8525391 L132.131836,32.8417969 L133.010742,32.8417969 L133.010742,33.8525391 L132.131836,33.8525391 Z M132.131836,40 L132.131836,34.8144531 L133.010742,34.8144531 L133.010742,40 L132.131836,40 Z M136.267578,39.2138672 L136.394531,39.9902344 C136.147134,40.042318 135.925782,40.0683594 135.730469,40.0683594 C135.411457,40.0683594 135.164063,40.0179042 134.988281,39.9169922 C134.812499,39.8160802 134.688802,39.6834318 134.617188,39.519043 C134.545573,39.3546541 134.509766,39.0087917 134.509766,38.4814453 L134.509766,35.4980469 L133.865234,35.4980469 L133.865234,34.8144531 L134.509766,34.8144531 L134.509766,33.5302734 L135.383789,33.0029297 L135.383789,34.8144531 L136.267578,34.8144531 L136.267578,35.4980469 L135.383789,35.4980469 L135.383789,38.5302734 L135.388943,38.7510855 C135.395815,38.8784003 135.409559,38.9659286 135.430176,39.0136719 C135.4611,39.0852868 135.511556,39.1422524 135.581543,39.1845703 C135.65153,39.2268882 135.751627,39.2480469 135.881836,39.2480469 L136.051514,39.239502 C136.115804,39.2338054 136.187825,39.2252605 136.267578,39.2138672 Z M137.131836,33.8525391 L137.131836,32.8417969 L138.010742,32.8417969 L138.010742,33.8525391 L137.131836,33.8525391 Z M137.131836,40 L137.131836,34.8144531 L138.010742,34.8144531 L138.010742,40 L137.131836,40 Z M139.021484,37.4072266 C139.021484,36.4469353 139.288409,35.7356794 139.822266,35.2734375 C140.268231,34.889321 140.811846,34.6972656 141.453125,34.6972656 C142.166019,34.6972656 142.748696,34.9308245 143.201172,35.3979492 C143.653648,35.865074 143.879883,36.5104125 143.879883,37.3339844 C143.879883,38.0013054 143.779786,38.5262025 143.57959,38.9086914 C143.379394,39.2911803 143.088055,39.5882151 142.705566,39.7998047 C142.323078,40.0113943 141.905601,40.1171875 141.453125,40.1171875 C140.72721,40.1171875 140.140464,39.8844424 139.692871,39.4189453 C139.245278,38.9534482 139.021484,38.282882 139.021484,37.4072266 Z M139.924805,37.4072266 C139.924805,38.0712924 140.06966,38.5685205 140.359375,38.8989258 C140.64909,39.2293311 141.01367,39.3945312 141.453125,39.3945312 C141.889325,39.3945312 142.252277,39.2285173 142.541992,38.8964844 C142.831707,38.5644515 142.976562,38.0582716 142.976562,37.3779297 C142.976562,36.7366504 142.830893,36.2508155 142.539551,35.9204102 C142.248208,35.5900049 141.88607,35.4248047 141.453125,35.4248047 C141.01367,35.4248047 140.64909,35.5891911 140.359375,35.9179688 C140.06966,36.2467464 139.924805,36.7431607 139.924805,37.4072266 Z M144.910156,40 L144.910156,34.8144531 L145.701172,34.8144531 L145.701172,35.5517578 C146.082033,34.9820935 146.632158,34.6972656 147.351562,34.6972656 C147.664064,34.6972656 147.951333,34.7534174 148.213379,34.8657227 C148.475424,34.9780279 148.671549,35.1253246 148.801758,35.3076172 C148.931967,35.4899098 149.023112,35.706379 149.075195,35.9570312 C149.107748,36.1197925 149.124023,36.4046204 149.124023,36.8115234 L149.124023,40 L148.245117,40 L148.245117,36.8457031 C148.245117,36.4876284 148.210938,36.2198902 148.142578,36.0424805 C148.074218,35.8650707 147.952963,35.7234706 147.778809,35.6176758 C147.604654,35.511881 147.400392,35.4589844 147.166016,35.4589844 C146.791665,35.4589844 146.468589,35.5777983 146.196777,35.8154297 C145.924966,36.0530611 145.789062,36.5039029 145.789062,37.1679688 L145.789062,40 L144.910156,40 Z M153.362305,40 L153.362305,32.8417969 L156.0625,32.8417969 C156.537763,32.8417969 156.900715,32.8645831 157.151367,32.9101562 C157.502931,32.9687503 157.797525,33.0802401 158.035156,33.2446289 C158.272788,33.4090177 158.464029,33.6393214 158.608887,33.9355469 C158.753744,34.2317723 158.826172,34.5572899 158.826172,34.9121094 C158.826172,35.5208364 158.632489,36.0359679 158.245117,36.4575195 C157.857745,36.8790711 157.157883,37.0898438 156.145508,37.0898438 L154.30957,37.0898438 L154.30957,40 L153.362305,40 Z M154.30957,36.2451172 L156.160156,36.2451172 C156.772138,36.2451172 157.206704,36.131186 157.463867,35.9033203 C157.72103,35.6754546 157.849609,35.3548198 157.849609,34.9414062 C157.849609,34.6419256 157.773927,34.3855805 157.622559,34.1723633 C157.471191,33.9591461 157.271811,33.8183597 157.024414,33.75 C156.887695,33.7137275 156.651727,33.6930006 156.316507,33.6878189 L154.30957,33.6865234 L154.30957,36.2451172 Z M159.900391,40 L159.900391,32.8417969 L160.779297,32.8417969 L160.779297,40 L159.900391,40 Z M165.525391,39.3603516 C165.199868,39.6370457 164.886557,39.8323562 164.585449,39.9462891 C164.284341,40.0602219 163.961265,40.1171875 163.616211,40.1171875 C163.046547,40.1171875 162.608725,39.9780287 162.302734,39.699707 C161.996743,39.4213853 161.84375,39.0657574 161.84375,38.6328125 C161.84375,38.378905 161.901529,38.1469737 162.01709,37.9370117 C162.13265,37.7270497 162.284016,37.5585944 162.471191,37.4316406 C162.658367,37.3046869 162.869139,37.2086592 163.103516,37.1435547 C163.276043,37.0979815 163.536457,37.0540367 163.884766,37.0117188 C164.594405,36.9270829 165.11686,36.8261725 165.452148,36.7089844 L165.457031,36.4794922 L165.457031,36.4794922 C165.457031,36.1214175 165.374024,35.8691414 165.208008,35.7226562 C164.983397,35.5240875 164.649742,35.4248047 164.207031,35.4248047 C163.793618,35.4248047 163.488445,35.4972323 163.291504,35.6420898 C163.094563,35.7869473 162.948894,36.0432924 162.854492,36.4111328 L161.995117,36.2939453 C162.073243,35.9261049 162.201822,35.6290701 162.380859,35.402832 C162.559897,35.1765939 162.818683,35.002442 163.157227,34.8803711 C163.49577,34.7583002 163.888019,34.6972656 164.333984,34.6972656 C164.776695,34.6972656 165.136392,34.7493484 165.413086,34.8535156 C165.68978,34.9576828 165.893229,35.0887036 166.023438,35.246582 C166.153646,35.4044604 166.244791,35.6038399 166.296875,35.8447266 C166.326172,35.9944669 166.34082,36.2646465 166.34082,36.6552734 L166.342677,38.2430363 C166.348245,38.8221954 166.366344,39.2003276 166.396973,39.3774414 C166.434408,39.5939138 166.508463,39.8014313 166.619141,40 L165.701172,40 C165.610026,39.8177074 165.551432,39.6044934 165.525391,39.3603516 Z M165.452148,37.3974609 C165.173013,37.5113938 164.771761,37.6103717 164.248383,37.6943969 L164.016602,37.7294922 C163.655272,37.7815758 163.39974,37.8401689 163.25,37.9052734 C163.10026,37.9703779 162.984701,38.0655918 162.90332,38.190918 C162.82194,38.3162441 162.78125,38.4554029 162.78125,38.6083984 C162.78125,38.8427746 162.869954,39.0380852 163.047363,39.1943359 C163.224773,39.3505867 163.484373,39.4287109 163.826172,39.4287109 C164.164715,39.4287109 164.465819,39.3546557 164.729492,39.206543 C164.993165,39.0584302 165.186848,38.8557956 165.310547,38.5986328 C165.404948,38.4000641 165.452148,38.1070983 165.452148,37.7197266 L165.452148,37.3974609 Z M169.62207,39.2138672 L169.749023,39.9902344 C169.501626,40.042318 169.280274,40.0683594 169.084961,40.0683594 C168.765949,40.0683594 168.518556,40.0179042 168.342773,39.9169922 C168.166991,39.8160802 168.043295,39.6834318 167.97168,39.519043 C167.909017,39.3752027 167.873769,39.0924218 167.865936,38.6706932 L167.864258,35.4980469 L167.219727,35.4980469 L167.219727,34.8144531 L167.864258,34.8144531 L167.864258,33.5302734 L168.738281,33.0029297 L168.738281,34.8144531 L169.62207,34.8144531 L169.62207,35.4980469 L168.738281,35.4980469 L168.738281,38.5302734 C168.738281,38.7809257 168.753743,38.9420569 168.784668,39.0136719 C168.815593,39.0852868 168.866048,39.1422524 168.936035,39.1845703 C169.006022,39.2268882 169.106119,39.2480469 169.236328,39.2480469 L169.406006,39.239502 C169.470296,39.2338054 169.542317,39.2252605 169.62207,39.2138672 Z M170.691406,40 L170.691406,35.4980469 L169.915039,35.4980469 L169.915039,34.8144531 L170.691406,34.8144531 L170.691406,34.2626953 C170.691406,33.9143863 170.72233,33.6555998 170.78418,33.4863281 C170.868816,33.2584624 171.01774,33.0737312 171.230957,32.9321289 C171.444174,32.7905266 171.742837,32.7197266 172.126953,32.7197266 C172.37435,32.7197266 172.647785,32.7490231 172.947266,32.8076172 L172.81543,33.5742188 C172.633137,33.5416665 172.460613,33.5253906 172.297852,33.5253906 C172.030923,33.5253906 171.842123,33.5823562 171.731445,33.6962891 C171.620768,33.8102219 171.56543,34.0234359 171.56543,34.3359375 L171.56543,34.8144531 L172.576172,34.8144531 L172.576172,35.4980469 L171.56543,35.4980469 L171.56543,40 L170.691406,40 Z M172.932617,37.4072266 C172.932617,36.4469353 173.199542,35.7356794 173.733398,35.2734375 C174.179364,34.889321 174.722979,34.6972656 175.364258,34.6972656 C176.077152,34.6972656 176.659828,34.9308245 177.112305,35.3979492 C177.564781,35.865074 177.791016,36.5104125 177.791016,37.3339844 C177.791016,38.0013054 177.690919,38.5262025 177.490723,38.9086914 C177.290526,39.2911803 176.999188,39.5882151 176.616699,39.7998047 C176.23421,40.0113943 175.816734,40.1171875 175.364258,40.1171875 C174.638343,40.1171875 174.051597,39.8844424 173.604004,39.4189453 C173.156411,38.9534482 172.932617,38.282882 172.932617,37.4072266 Z M173.835938,37.4072266 C173.835938,38.0712924 173.980793,38.5685205 174.270508,38.8989258 C174.560223,39.2293311 174.924802,39.3945312 175.364258,39.3945312 C175.800458,39.3945312 176.16341,39.2285173 176.453125,38.8964844 C176.74284,38.5644515 176.887695,38.0582716 176.887695,37.3779297 C176.887695,36.7366504 176.742026,36.2508155 176.450684,35.9204102 C176.159341,35.5900049 175.797203,35.4248047 175.364258,35.4248047 C174.924802,35.4248047 174.560223,35.5891911 174.270508,35.9179688 C173.980793,36.2467464 173.835938,36.7431607 173.835938,37.4072266 Z M178.811523,40 L178.811523,34.8144531 L179.602539,34.8144531 L179.602539,35.6005859 C179.804363,35.2327456 179.990722,34.990235 180.161621,34.8730469 C180.33252,34.7558588 180.520507,34.6972656 180.725586,34.6972656 C181.021811,34.6972656 181.322915,34.7916657 181.628906,34.9804688 L181.326172,35.7958984 C181.111327,35.6689447 180.896485,35.6054688 180.681641,35.6054688 C180.489582,35.6054688 180.317058,35.6632481 180.164062,35.7788086 C180.011067,35.8943691 179.902019,36.0546865 179.836914,36.2597656 C179.739257,36.5722672 179.69043,36.9140606 179.69043,37.2851562 L179.69043,40 L178.811523,40 Z M182.151367,40 L182.151367,34.8144531 L182.9375,34.8144531 L182.9375,35.5419922 C183.100261,35.2880847 183.31673,35.0838224 183.586914,34.9291992 C183.857098,34.774576 184.164712,34.6972656 184.509766,34.6972656 C184.893882,34.6972656 185.20882,34.7770174 185.45459,34.9365234 C185.700359,35.0960294 185.873697,35.319009 185.974609,35.6054688 C186.384768,34.999997 186.918617,34.6972656 187.576172,34.6972656 C188.090497,34.6972656 188.486001,34.8396796 188.762695,35.1245117 C189.039389,35.4093439 189.177734,35.8479788 189.177734,36.4404297 L189.177734,40 L188.303711,40 L188.303711,36.7333984 C188.303711,36.3818342 188.275228,36.1287443 188.218262,35.9741211 C188.161295,35.8194979 188.057943,35.6949875 187.908203,35.6005859 C187.758463,35.5061844 187.582683,35.4589844 187.380859,35.4589844 C187.016274,35.4589844 186.713543,35.5802397 186.472656,35.8227539 C186.23177,36.0652681 186.111328,36.4534479 186.111328,36.9873047 L186.111328,40 L185.232422,40 L185.232422,36.6308594 C185.232422,36.2402324 185.160808,35.9472666 185.017578,35.7519531 C184.874348,35.5566396 184.639976,35.4589844 184.314453,35.4589844 C184.067056,35.4589844 183.83838,35.5240879 183.628418,35.6542969 C183.418456,35.7845059 183.266277,35.9749336 183.171875,36.2255859 C183.077473,36.4762382 183.030273,36.8375627 183.030273,37.3095703 L183.030273,40 L182.151367,40 Z" id="BIGDATACompetitionPlatform" fill="#FFFFFF" fill-rule="nonzero"></path>
                            <g id="logo" fill="#4C87FB">
                                <path d="M33.157215,17.5143 L17.67682,2.22213 C17.417925,1.96533 16.997925,1.96533 16.73896,2.22213 L1.25958,17.5143 C1.001735,17.7711 1.001735,18.18402 1.25958,18.44007 L5.890745,23.01447 C5.987345,23.09958 6.436185,23.43429 6.87883,22.94829 C6.88387,22.94241 6.885935,22.94241 6.894195,22.93704 L11.538765,18.34449 C11.797625,18.09075 12.21773,18.09075 12.47764,18.34449 L22.442455,28.19064 C22.58837,28.30002 22.97246,28.5144 23.36166,28.12167 L33.157215,18.44007 C33.41597,18.18402 33.41597,17.7711 33.157215,17.5143 Z" id="形状-357-拷贝"></path>
                                <path d="M32.5318,29.89527 L33.157215,30.51132 C33.41597,30.7671 33.41597,31.18107 33.157215,31.43787 L33.157215,31.43787 L17.67682,46.73001 C17.417925,46.98579 16.997925,46.98579 16.73896,46.73001 L16.73896,46.73001 L16.11561,46.11291 L32.5318,29.89527 Z M30.344055,27.73299 L31.423455,28.80162 L15.01045,45.02106 L13.92888,43.9527 L30.344055,27.73299 Z M27.723815,26.00181 C27.98369,25.78053 28.374045,25.78872 28.62146,26.03325 L28.62146,26.03325 L29.030365,26.43597 L29.235675,26.64192 L12.824735,42.85983 L11.74005,41.79123 Z M20.81044,28.51032 L21.653625,29.34027 C21.727545,29.43147 21.82117,29.61213 21.639205,29.82141 C21.631085,29.83035 21.629125,29.8365 21.6209,29.84568 L21.6209,29.84568 L10.634925,40.69938 L9.55241,39.63075 L20.81044,28.51032 Z M18.623815,26.3478 L19.70423,27.41538 L8.44816,38.53686 L7.366695,37.46748 L18.623815,26.3478 Z M16.43705,24.18528 L17.516485,25.25697 L6.262585,36.37743 L5.179965,35.30703 L16.43705,24.18528 Z M14.248255,22.02279 L15.32972,23.09445 L4.07274,34.21413 L2.99222,33.14655 L14.248255,22.02279 Z M11.760665,20.13855 C11.81607,20.08284 12.035905,19.88685 12.29578,20.10915 C12.31524,20.12628 12.33162,20.13855 12.350135,20.14773 L12.350135,20.14773 L13.141975,20.93118 L1.88706,32.0547 L1.25958,31.43787 C1.001735,31.18107 1.001735,30.7671 1.25958,30.51132 L1.25958,30.51132 L11.744075,20.15286 C11.744075,20.15361 11.75244,20.14773 11.756535,20.14341 L11.756535,20.14341 Z" id="Combined-shape-1077"></path>
                            </g>
                        </g>
                    </g>
                </g>
            </g>
        </g>
    </g>
</svg>