<?xml version="1.0" encoding="UTF-8"?>
<svg width="227px" height="45px" viewBox="0 0 227 45" version="1.1" xmlns="http://www.w3.org/2000/svg" xmlns:xlink="http://www.w3.org/1999/xlink">
    <!-- Generator: Sketch 59.1 (86144) - https://sketch.com -->
    <title>大数据认证考试平台</title>
    <desc>Created with Sketch.</desc>
    <g id="UI规范" stroke="none" stroke-width="1" fill="none" fill-rule="evenodd">
        <g id="web-1920-0logo" transform="translate(-46.000000, -16.000000)">
            <g id="01-框架_-顶部">
                <g id="logo">
                    <g transform="translate(45.000000, 12.000000)">
                        <g id="大数据认证考试平台" transform="translate(0.000000, 2.000000)">
                            <path d="M47.14,14.6 L54.72,14.6 C54.853334,13.4933278 54.9266666,12.4200052 54.94,11.38 L54.94,9.58 L57.06,9.58 L57.06,10.9 C57.06,12.1533396 56.9866674,13.3866606 56.84,14.6 L64.86,14.6 L64.86,16.64 L57.32,16.64 C58.7600072,20.8133542 61.4266472,24.0399886 65.32,26.32 L64,28.04 C60.2266478,25.706655 57.5800076,22.4866872 56.06,18.38 C54.6999932,22.8333556 52.02002,26.1133228 48.02,28.22 L46.68,26.46 C50.7200202,24.4999902 53.2799946,21.2266896 54.36,16.64 L47.14,16.64 L47.14,14.6 Z M79.6857143,14.42 L79.4657143,15.22 C79.8923831,17.1266762 80.4457109,18.8399924 81.1257143,20.36 C81.6990505,18.6399914 82.0257139,16.6600112 82.1057143,14.42 L79.6857143,14.42 Z M80.1657143,22.56 C79.5257111,21.2799936 78.9590501,19.806675 78.4657143,18.14 C78.1857129,18.7666698 77.8723827,19.3866636 77.5257143,20 L76.2257143,18.38 C77.3323865,16.179989 78.0723791,13.2400184 78.4457143,9.56 L80.4857143,9.92 C80.3523803,10.9333384 80.2257143,11.7599968 80.1057143,12.4 L85.1057143,12.4 L85.1057143,14.42 L84.0257143,14.42 C83.9057137,17.6333494 83.3323861,20.3666554 82.3057143,22.62 C83.2523857,24.153341 84.3923743,25.3666622 85.7257143,26.26 L84.5257143,28.04 C83.2990415,27.1466622 82.2190523,25.9733406 81.2857143,24.52 C80.3257095,25.9733406 79.1590545,27.1933284 77.7857143,28.18 L76.6657143,26.38 C78.1057215,25.4333286 79.2723765,24.160008 80.1657143,22.56 Z M72.6857143,19.08 C72.5923805,19.3733348 72.4923815,19.653332 72.3857143,19.92 L76.3857143,19.92 L76.3857143,21.68 C76.0790461,22.813339 75.4857187,23.8266622 74.6057143,24.72 C75.3123845,25.0266682 76.0457105,25.379998 76.8057143,25.78 L75.6657143,27.46 C74.8523769,26.9799976 73.9457193,26.506669 72.9457143,26.04 C71.6657079,26.8533374 70.0190577,27.526664 68.0057143,28.06 L67.0057143,26.26 C68.4190547,25.9399984 69.6457091,25.5400024 70.6857143,25.06 L69.5310196,24.5922445 C69.0455784,24.397415 68.5971449,24.2200008 68.1857143,24.06 C68.6657167,23.259996 69.0857125,22.5000036 69.4457143,21.78 L67.4857143,21.78 L67.4857143,19.92 L70.2657143,19.92 L70.6689143,18.8273776 C70.6685588,18.8295703 70.6674921,18.8337777 70.6657143,18.84 L72.6857143,19.08 Z M72.6257143,23.92 C73.4523851,23.2666634 74.0657123,22.5533372 74.4657143,21.78 L71.5657143,21.78 C71.3923801,22.113335 71.1190495,22.5999968 70.7457143,23.24 C71.1723831,23.373334 71.7990435,23.5999984 72.6257143,23.92 Z M69.4257143,9.96 C69.8657165,10.6800036 70.2590459,11.4666624 70.6057143,12.32 L69.0057143,13.04 C68.6190457,12.106662 68.1857167,11.2666704 67.7057143,10.52 L69.4257143,9.96 Z M76.6057143,10.66 C76.1923789,11.526671 75.6857173,12.3466628 75.0857143,13.12 L73.5657143,12.32 C74.1257171,11.5066626 74.5923791,10.6866708 74.9657143,9.86 L76.6057143,10.66 Z M67.5457143,13.22 L71.2657143,13.22 L71.2657143,9.6 L73.1857143,9.6 L73.1857143,13.22 L76.5857143,13.22 L76.5857143,15.04 L73.1857143,15.04 L73.1857143,15.08 C74.2257195,15.4933354 75.2857089,15.9733306 76.3657143,16.52 L75.2857143,18.16 L74.7464537,17.7372828 C74.1415152,17.2694636 73.621272,16.8903718 73.1857143,16.6 L73.1857143,18.7 L71.2657143,18.7 L71.2657143,15.56 C70.5857109,16.9200068 69.5323881,18.1133282 68.1057143,19.14 L67.0657143,17.46 C68.3857209,16.7133296 69.3390447,15.906671 69.9257143,15.04 L67.5457143,15.04 L67.5457143,13.22 Z M88.1714286,27.9 L87.7314286,25.94 C88.3180982,26.0333338 88.7980934,26.08 89.1714286,26.08 C89.5980974,26.08 89.8114286,25.8266692 89.8114286,25.32 L89.8114286,21.28 L88.0552155,21.8930178 C87.9470501,21.9294674 87.8591212,21.9584614 87.7914286,21.98 L87.2514286,19.92 C88.131433,19.719999 88.9847578,19.4800014 89.8114286,19.2 L89.8114286,15.2 L87.6514286,15.2 L87.6514286,13.18 L89.8114286,13.18 L89.8114286,9.64 L91.8514286,9.64 L91.8514286,13.18 L93.5514286,13.18 L93.5514286,15.2 L91.8514286,15.2 L91.8514286,18.38 L92.6289803,18.0077548 C92.9468027,17.8521089 93.2276178,17.7095245 93.4714286,17.58 L93.4714286,19.62 L91.8514286,20.42 L91.8514286,25.84 C91.8514286,27.2133402 91.1914352,27.9 89.8714286,27.9 L88.1714286,27.9 Z M96.1914286,19.28 C95.9514274,22.6000166 95.1981016,25.5466538 93.9314286,28.12 L92.2914286,26.66 C93.5847684,24.126654 94.2447618,20.8533534 94.2714286,16.84 L94.2714286,10.2 L105.231429,10.2 L105.231429,15.5 L101.631429,15.5 L101.631429,17.38 L105.671429,17.38 L105.671429,19.28 L101.631429,19.28 L101.631429,21.2 L104.791429,21.2 L104.791429,28.08 L102.871429,28.08 L102.871429,27.26 L98.3714286,27.26 L98.3714286,28.08 L96.4514286,28.08 L96.4514286,21.2 L99.5914286,21.2 L99.5914286,19.28 L96.1914286,19.28 Z M99.5914286,15.5 L96.2914286,15.5 L96.2914286,17.1 L96.2714286,17.38 L99.5914286,17.38 L99.5914286,15.5 Z M98.3714286,25.42 L102.871429,25.42 L102.871429,23.04 L98.3714286,23.04 L98.3714286,25.42 Z M103.191429,12.1 L96.2914286,12.1 L96.2914286,13.66 L103.191429,13.66 L103.191429,12.1 Z M121.197143,9.72 C121.197143,11.4666754 121.137143,13.0799926 121.017143,14.56 C122.017148,19.4000242 123.803797,23.2799854 126.377143,26.2 L124.857143,27.94 C122.977133,25.473321 121.490482,22.4800176 120.397143,18.96 L120.297143,19.48 C119.603806,22.8933504 117.91049,25.733322 115.217143,28 L113.797143,26.26 C116.077154,24.2999902 117.557139,21.9000142 118.237143,19.06 C118.783812,16.659988 119.063809,13.5466858 119.077143,9.72 L121.197143,9.72 Z M110.417143,9.7 C111.657149,10.6600048 112.737138,11.6333284 113.657143,12.62 L112.217143,14.08 C111.470472,13.1733288 110.37715,12.1933386 108.937143,11.14 L110.417143,9.7 Z M107.637143,15.48 L112.397143,15.48 L112.397143,23.64 C112.970479,23.1599976 113.583806,22.6066698 114.237143,21.98 L114.797143,24.12 C113.53047,25.2933392 112.143817,26.3666618 110.637143,27.34 L109.837143,25.48 C110.197145,25.1999986 110.377143,24.8333356 110.377143,24.38 L110.377143,17.48 L107.637143,17.48 L107.637143,15.48 Z M140.122857,12.34 L134.702857,12.34 L134.702857,10.3 L146.102857,10.3 L146.102857,12.34 L142.242857,12.34 L142.242857,17.28 L145.822857,17.28 L145.822857,19.22 L142.242857,19.22 L142.242857,25.38 L146.522857,25.38 L146.522857,27.42 L134.102857,27.42 L134.102857,25.38 L135.922857,25.38 L135.922857,15.24 L137.962857,15.24 L137.962857,25.38 L140.122857,25.38 L140.122857,12.34 Z M130.762857,9.72 C131.976197,10.6800048 133.029519,11.6466618 133.922857,12.62 L132.502857,14.08 C131.716187,13.1066618 130.649531,12.1133384 129.302857,11.1 L130.762857,9.72 Z M127.902857,15.48 L132.602857,15.48 L132.602857,23.54 L133.24508,22.9422212 C133.639154,22.5718513 133.965078,22.2577791 134.222857,22 L134.762857,24.2 C133.536184,25.3733392 132.242864,26.426662 130.882857,27.36 L130.082857,25.46 C130.442859,25.1799986 130.622857,24.8200022 130.622857,24.38 L130.622857,17.48 L127.902857,17.48 L127.902857,15.48 Z M150.388571,11.36 L155.528571,11.36 L155.528571,9.54 L157.608571,9.54 L157.608571,11.36 L161.988571,11.36 L161.988571,12.32 C162.721908,11.5599962 163.401902,10.7666708 164.028571,9.94 L165.568571,11.08 C164.555233,12.4666736 163.435244,13.7199944 162.208571,14.84 L166.308571,14.84 L166.308571,16.82 L159.788571,16.82 L159.13482,17.2750011 C158.50732,17.7050011 157.958574,18.0599986 157.488571,18.34 L165.228571,18.34 L165.228571,20.2 L155.288571,20.2 L154.788571,21.68 L164.308571,21.68 L164.26869,22.3475769 C164.097328,24.9312549 163.783958,26.4753821 163.328571,26.98 C162.821902,27.5266694 161.848579,27.8 160.408571,27.8 C159.515234,27.8 158.675242,27.7466672 157.888571,27.64 L157.228571,25.82 L157.998573,25.8900002 C158.738573,25.9500003 159.388569,25.98 159.948571,25.98 C160.92191,25.98 161.52857,25.8400014 161.768571,25.56 C161.981906,25.2533318 162.135238,24.566672 162.228571,23.5 L152.308571,23.5 L153.148571,20.54 C151.695231,21.1533364 150.295245,21.659998 148.948571,22.06 L148.088571,20.18 C151.088586,19.2999956 153.76856,18.1800068 156.128571,16.82 L148.908571,16.82 L148.908571,14.84 L155.528571,14.84 L155.528571,13.28 L150.388571,13.28 L150.388571,11.36 Z M159.108571,14.84 C159.748575,14.3599976 160.375235,13.8400028 160.988571,13.28 L157.608571,13.28 L157.608571,14.84 L159.108571,14.84 Z M176.794286,19.44 L175.154286,19.44 L175.154286,17.5 L180.494286,17.5 L180.494286,19.44 L178.834286,19.44 L178.834286,24.16 L179.368886,24.0424 C179.836485,23.9341336 180.424949,23.7866676 181.134286,23.6 L181.134286,25.54 C179.334277,26.0333358 177.480962,26.446665 175.574286,26.78 L175.054286,24.78 L176.794286,24.54 L176.794286,19.44 Z M184.694286,27.96 C183.934282,27.96 183.274289,27.426672 182.714286,26.36 C182.047616,25.0666602 181.574287,23.4066768 181.294286,21.38 C181.054285,19.646658 180.894286,17.513346 180.814286,14.98 L174.694286,14.98 L174.694286,12.94 L180.754286,12.94 L180.737954,12.359171 C180.722175,11.6428013 180.714286,10.6897495 180.714286,9.5 L182.754286,9.5 L182.761633,11.2877573 C182.768163,11.9778239 182.779048,12.5285694 182.794286,12.94 L186.534286,12.94 L186.534286,14.98 L182.834286,14.98 C182.914286,17.8333476 183.087618,20.1999906 183.354286,22.08 C183.754288,24.3600114 184.20095,25.5599994 184.694286,25.68 C184.974287,25.613333 185.274284,24.4666778 185.594286,22.24 L187.234286,23.56 C186.514282,26.493348 185.667624,27.96 184.694286,27.96 Z M184.414286,9.48 C185.240957,10.4000046 185.88095,11.1999966 186.334286,11.88 L184.894286,12.88 C184.414283,12.1066628 183.780956,11.2733378 182.994286,10.38 L184.414286,9.48 Z M171.274286,9.7 C172.447625,10.6600048 173.467615,11.6333284 174.334286,12.62 L172.914286,14.08 C172.180949,13.1599954 171.140959,12.1800052 169.794286,11.14 L171.274286,9.7 Z M168.434286,15.48 L173.054286,15.48 L173.054286,23.52 L173.662927,22.8669143 C173.863091,22.6548983 174.093544,22.412594 174.354286,22.14 L174.894286,24.34 C173.81428,25.5000058 172.620959,26.5666618 171.314286,27.54 L170.514286,25.66 C170.874288,25.3799986 171.054286,25.0333354 171.054286,24.62 L171.054286,17.48 L168.434286,17.48 L168.434286,15.48 Z M189.86,10.28 L206.2,10.28 L206.2,12.32 L198.98,12.32 L198.98,19.2 L206.94,19.2 L206.94,21.22 L198.98,21.22 L198.98,28.06 L196.86,28.06 L196.86,21.22 L189.06,21.22 L189.06,19.2 L196.86,19.2 L196.86,12.32 L189.86,12.32 L189.86,10.28 Z M192.8,13.12 C193.480003,14.3733396 194.17333,15.8599914 194.88,17.58 L192.92,18.54 C192.306664,16.939992 191.620004,15.4466736 190.86,14.06 L192.8,13.12 Z M205.28,13.94 C204.719997,15.473341 203.986671,16.9666594 203.08,18.42 L201.2,17.46 C202.093338,16.0199928 202.819997,14.5466742 203.38,13.04 L205.28,13.94 Z M225.185714,19.54 L225.185714,28.12 L223.065714,28.12 L223.065714,27.36 L213.505714,27.36 L213.505714,28.12 L211.385714,28.12 L211.385714,19.54 L225.185714,19.54 Z M213.505714,25.36 L223.065714,25.36 L223.065714,21.54 L213.505714,21.54 L213.505714,25.36 Z M209.745714,15.78 C211.159055,15.5533322 213.225701,13.4533532 215.945714,9.48 L218.105714,10.24 C216.51904,12.4133442 214.932389,14.2399926 213.345714,15.72 C216.58573,15.5599992 219.745699,15.3400014 222.825714,15.06 C222.239045,14.193329 221.625717,13.360004 220.985714,12.56 L222.885714,11.66 C224.445722,13.6200098 225.95904,15.8266544 227.425714,18.28 L225.385714,19.28 L225.098214,18.7574992 C224.793214,18.2124998 224.435716,17.6000034 224.025714,16.92 C219.865693,17.2933352 215.232406,17.5733324 210.125714,17.76 L209.745714,15.78 Z" fill="#FFFFFF" fill-rule="nonzero"></path>
                            <path d="M47.7324219,40 L47.7324219,32.8417969 L50.4179688,32.8417969 C50.9648465,32.8417969 51.4034814,32.9142245 51.7338867,33.059082 C52.064292,33.2039395 52.3230785,33.4269191 52.5102539,33.7280273 C52.6974293,34.0291356 52.7910156,34.3440739 52.7910156,34.6728516 C52.7910156,34.9788427 52.7080086,35.2669257 52.5419922,35.5371094 C52.3759757,35.807293 52.1253272,36.0253898 51.7900391,36.1914062 C52.2229839,36.31836 52.5558257,36.5348292 52.7885742,36.8408203 C53.0213228,37.1468114 53.1376953,37.5081359 53.1376953,37.9248047 C53.1376953,38.2600928 53.0668952,38.5717759 52.925293,38.8598633 C52.7836907,39.1479507 52.608725,39.3701164 52.4003906,39.5263672 C52.1920563,39.682618 51.9308284,39.8006181 51.6166992,39.8803711 C51.30257,39.9601241 50.9176455,40 50.4619141,40 L47.7324219,40 Z M48.6796875,35.8496094 L50.2275391,35.8496094 C50.647463,35.8496094 50.9485668,35.8219404 51.1308594,35.7666016 C51.371746,35.6949866 51.553222,35.5761727 51.675293,35.4101562 C51.7973639,35.2441398 51.8583984,35.0358085 51.8583984,34.7851562 C51.8583984,34.5475249 51.8014329,34.3383798 51.6875,34.1577148 C51.5735671,33.9770499 51.4108083,33.8533532 51.1992188,33.7866211 C50.9876292,33.719889 50.6246771,33.6865234 50.1103516,33.6865234 L48.6796875,33.6865234 L48.6796875,35.8496094 Z M48.6796875,36.6943359 L48.6796875,39.1552734 L50.4619141,39.1552734 C50.7679052,39.1552734 50.9827468,39.1438803 51.1064453,39.1210938 C51.3245454,39.0820311 51.5068352,39.0169275 51.6533203,38.9257812 C51.7998054,38.834635 51.9202469,38.7019865 52.0146484,38.527832 C52.10905,38.3536775 52.15625,38.1526704 52.15625,37.9248047 C52.15625,37.6578763 52.0878913,37.425945 51.9511719,37.2290039 C51.8144524,37.0320628 51.6248385,36.8937178 51.3823242,36.8139648 C51.13981,36.7342118 50.7906924,36.6943359 50.3349609,36.6943359 L48.6796875,36.6943359 Z M54.9025391,40 L54.9025391,32.8417969 L55.8498047,32.8417969 L55.8498047,40 L54.9025391,40 Z M61.1693359,37.1923828 L61.1693359,36.3525391 L64.2015625,36.3476562 L64.2015625,39.0039062 C63.7360654,39.3750019 63.255927,39.6541332 62.7611328,39.8413086 C62.2663387,40.028484 61.7585312,40.1220703 61.2376953,40.1220703 C60.5345668,40.1220703 59.8957385,39.9715184 59.3211914,39.6704102 C58.7466443,39.3693019 58.3128921,38.9339221 58.0199219,38.3642578 C57.7269517,37.7945935 57.5804688,37.1582066 57.5804688,36.4550781 C57.5804688,35.7584601 57.7261379,35.1082387 58.0174805,34.5043945 C58.3088231,33.9005504 58.727927,33.4521499 59.2748047,33.1591797 C59.8216824,32.8662095 60.4515589,32.7197266 61.1644531,32.7197266 C61.6820338,32.7197266 62.1499654,32.8035473 62.5682617,32.9711914 C62.9865581,33.1388355 63.314517,33.3723943 63.5521484,33.671875 C63.7897798,33.9713557 63.9704421,34.3619768 64.0941406,34.84375 L63.2396484,35.078125 C63.132226,34.7135398 62.9987638,34.4270844 62.8392578,34.21875 C62.6797518,34.0104156 62.4518895,33.8435879 62.1556641,33.7182617 C61.8594386,33.5929356 61.5306659,33.5302734 61.1693359,33.5302734 C60.7363911,33.5302734 60.3620458,33.5961907 60.0462891,33.7280273 C59.7305323,33.8598639 59.4758148,34.0332021 59.2821289,34.2480469 C59.088443,34.4628917 58.9378912,34.6988919 58.8304688,34.9560547 C58.6481762,35.3987652 58.5570313,35.8789037 58.5570313,36.3964844 C58.5570313,37.0345084 58.6668934,37.5683572 58.8866211,37.9980469 C59.1063488,38.4277365 59.4261698,38.7467438 59.8460938,38.9550781 C60.2660177,39.1634125 60.7119768,39.2675781 61.1839844,39.2675781 C61.5941427,39.2675781 61.9945293,39.1886401 62.3851563,39.0307617 C62.7757832,38.8728833 63.0720042,38.704428 63.2738281,38.5253906 L63.2738281,37.1923828 L61.1693359,37.1923828 Z M68.9763672,40 L68.9763672,32.8417969 L71.4421875,32.8417969 C71.9988309,32.8417969 72.4236313,32.8759762 72.7166016,32.9443359 C73.1267599,33.0387375 73.4766913,33.2096342 73.7664063,33.4570312 C74.1440123,33.7760433 74.4263988,34.183754 74.6135742,34.6801758 C74.8007496,35.1765975 74.8943359,35.7438119 74.8943359,36.3818359 C74.8943359,36.9254584 74.83086,37.4072245 74.7039063,37.8271484 C74.5769525,38.2470724 74.4141937,38.5945624 74.215625,38.8696289 C74.0170563,39.1446954 73.7997733,39.3611646 73.5637695,39.519043 C73.3277657,39.6769214 73.0429379,39.7965491 72.7092773,39.8779297 C72.3756168,39.9593103 71.9923199,40 71.559375,40 L68.9763672,40 Z M69.9236328,39.1552734 L71.4519531,39.1552734 C71.9239607,39.1552734 72.2942369,39.1113286 72.562793,39.0234375 C72.831349,38.9355464 73.0453768,38.8118498 73.2048828,38.6523438 C73.4294933,38.4277333 73.604459,38.1258157 73.7297852,37.746582 C73.8551113,37.3673484 73.9177734,36.9075548 73.9177734,36.3671875 C73.9177734,35.6184858 73.7948906,35.0431335 73.5491211,34.6411133 C73.3033516,34.239093 73.0046893,33.9697272 72.653125,33.8330078 C72.3992175,33.7353511 71.9906929,33.6865234 71.4275391,33.6865234 L69.9236328,33.6865234 L69.9236328,39.1552734 Z M75.7119141,40 L78.4609375,32.8417969 L79.4814453,32.8417969 L82.4111328,40 L81.3320312,40 L80.4970703,37.8320312 L77.5039062,37.8320312 L76.7177734,40 L75.7119141,40 Z M77.7773438,37.0605469 L80.2041016,37.0605469 L79.4570312,35.078125 C79.2291655,34.4759084 79.0598964,33.9811217 78.9492188,33.59375 C78.8580725,34.0527367 78.729493,34.5084613 78.5634766,34.9609375 L77.7773438,37.0605469 Z M84.5470703,40 L84.5470703,33.6865234 L82.1886719,33.6865234 L82.1886719,32.8417969 L87.8625,32.8417969 L87.8625,33.6865234 L85.4943359,33.6865234 L85.4943359,40 L84.5470703,40 Z M87.6058594,40 L90.3548828,32.8417969 L91.3753906,32.8417969 L94.3050781,40 L93.2259766,40 L92.3910156,37.8320312 L89.3978516,37.8320312 L88.6117187,40 L87.6058594,40 Z M89.6712891,37.0605469 L92.0980469,37.0605469 L91.3509766,35.078125 C91.1231108,34.4759084 90.9538417,33.9811217 90.8431641,33.59375 C90.7520178,34.0527367 90.6234383,34.5084613 90.4574219,34.9609375 L89.6712891,37.0605469 Z M102.995898,37.4902344 L103.943164,37.7294922 C103.744595,38.5074909 103.38734,39.1007467 102.871387,39.5092773 C102.355434,39.917808 101.724743,40.1220703 100.979297,40.1220703 C100.207809,40.1220703 99.5803735,39.9650081 99.0969727,39.6508789 C98.6135718,39.3367497 98.2457369,38.8818389 97.993457,38.2861328 C97.7411771,37.6904267 97.6150391,37.0507847 97.6150391,36.3671875 C97.6150391,35.6217411 97.757453,34.9715197 98.0422852,34.4165039 C98.3271173,33.8614881 98.7323867,33.4399428 99.2581055,33.1518555 C99.7838242,32.8637681 100.362432,32.7197266 100.993945,32.7197266 C101.710095,32.7197266 102.312302,32.9020164 102.800586,33.2666016 C103.28887,33.6311867 103.629035,34.1438769 103.821094,34.8046875 L102.888477,35.0244141 C102.72246,34.5035781 102.481577,34.1243501 102.16582,33.8867188 C101.850064,33.6490874 101.452932,33.5302734 100.974414,33.5302734 C100.424281,33.5302734 99.9644875,33.6621081 99.5950195,33.9257812 C99.2255515,34.1894544 98.9659513,34.5434548 98.8162109,34.987793 C98.6664706,35.4321311 98.5916016,35.8902971 98.5916016,36.3623047 C98.5916016,36.9710317 98.6803051,37.5024391 98.8577148,37.956543 C99.0351246,38.4106468 99.3110007,38.7499989 99.6853516,38.9746094 C100.059702,39.1992199 100.464972,39.3115234 100.901172,39.3115234 C101.431773,39.3115234 101.880988,39.1585302 102.248828,38.8525391 C102.616669,38.5465479 102.865689,38.0924509 102.995898,37.4902344 Z M108.847656,38.3300781 L109.755859,38.4423828 C109.612629,38.9729844 109.347333,39.3847642 108.959961,39.6777344 C108.572589,39.9707046 108.077802,40.1171875 107.475586,40.1171875 C106.717119,40.1171875 106.115725,39.8836286 105.671387,39.4165039 C105.227049,38.9493792 105.004883,38.294275 105.004883,37.4511719 C105.004883,36.5787717 105.22949,35.9016951 105.678711,35.4199219 C106.127932,34.9381486 106.710608,34.6972656 107.426758,34.6972656 C108.120121,34.6972656 108.686521,34.9332659 109.125977,35.4052734 C109.565432,35.877281 109.785156,36.5413369 109.785156,37.3974609 L109.780273,37.6318359 L109.780273,37.6318359 L105.913086,37.6318359 C105.945638,38.2015002 106.106769,38.6376938 106.396484,38.9404297 C106.686199,39.2431656 107.047524,39.3945312 107.480469,39.3945312 C107.802736,39.3945312 108.077798,39.3098967 108.305664,39.140625 C108.53353,38.9713533 108.714192,38.7011737 108.847656,38.3300781 Z M105.961914,36.9091797 L108.857422,36.9091797 C108.818359,36.4729796 108.707683,36.1458344 108.525391,35.9277344 C108.245441,35.589191 107.882489,35.4199219 107.436523,35.4199219 C107.032876,35.4199219 106.693524,35.5550117 106.418457,35.8251953 C106.143391,36.095379 105.991211,36.4567035 105.961914,36.9091797 Z M111.149609,40 L111.149609,34.8144531 L111.940625,34.8144531 L111.940625,35.6005859 C112.142449,35.2327456 112.328808,34.990235 112.499707,34.8730469 C112.670606,34.7558588 112.858593,34.6972656 113.063672,34.6972656 C113.359897,34.6972656 113.661001,34.7916657 113.966992,34.9804688 L113.664258,35.7958984 C113.449413,35.6689447 113.234571,35.6054688 113.019727,35.6054688 C112.827668,35.6054688 112.655144,35.6632481 112.502148,35.7788086 C112.349153,35.8943691 112.240104,36.0546865 112.175,36.2597656 C112.077343,36.5722672 112.028516,36.9140606 112.028516,37.2851562 L112.028516,40 L111.149609,40 Z M116.708398,39.2138672 L116.835352,39.9902344 C116.587954,40.042318 116.366603,40.0683594 116.171289,40.0683594 C115.852277,40.0683594 115.604884,40.0179042 115.429102,39.9169922 C115.253319,39.8160802 115.129623,39.6834318 115.058008,39.519043 C114.986393,39.3546541 114.950586,39.0087917 114.950586,38.4814453 L114.950586,35.4980469 L114.306055,35.4980469 L114.306055,34.8144531 L114.950586,34.8144531 L114.950586,33.5302734 L115.824609,33.0029297 L115.824609,34.8144531 L116.708398,34.8144531 L116.708398,35.4980469 L115.824609,35.4980469 L115.824609,38.5302734 C115.824609,38.7809257 115.840071,38.9420569 115.870996,39.0136719 C115.901921,39.0852868 115.952376,39.1422524 116.022363,39.1845703 C116.092351,39.2268882 116.192447,39.2480469 116.322656,39.2480469 L116.492334,39.239502 C116.556624,39.2338054 116.628645,39.2252605 116.708398,39.2138672 Z M117.872656,33.8525391 L117.872656,32.8417969 L118.751562,32.8417969 L118.751562,33.8525391 L117.872656,33.8525391 Z M117.872656,40 L117.872656,34.8144531 L118.751562,34.8144531 L118.751562,40 L117.872656,40 Z M120.599414,40 L120.599414,35.4980469 L119.823047,35.4980469 L119.823047,34.8144531 L120.599414,34.8144531 L120.599414,34.2626953 C120.599414,33.9143863 120.630338,33.6555998 120.692187,33.4863281 C120.776823,33.2584624 120.925748,33.0737312 121.138965,32.9321289 C121.352182,32.7905266 121.650844,32.7197266 122.034961,32.7197266 C122.282358,32.7197266 122.555793,32.7490231 122.855273,32.8076172 L122.723437,33.5742188 C122.541145,33.5416665 122.368621,33.5253906 122.205859,33.5253906 C121.938931,33.5253906 121.750131,33.5823562 121.639453,33.6962891 C121.528775,33.8102219 121.473437,34.0234359 121.473437,34.3359375 L121.473437,34.8144531 L122.48418,34.8144531 L122.48418,35.4980469 L121.473437,35.4980469 L121.473437,40 L120.599414,40 Z M123.472656,33.8525391 L123.472656,32.8417969 L124.351562,32.8417969 L124.351562,33.8525391 L123.472656,33.8525391 Z M123.472656,40 L123.472656,34.8144531 L124.351562,34.8144531 L124.351562,40 L123.472656,40 Z M129.373242,38.1005859 L130.2375,38.2128906 C130.143098,38.8085967 129.901402,39.2749007 129.512402,39.6118164 C129.123403,39.9487322 128.645706,40.1171875 128.079297,40.1171875 C127.369658,40.1171875 126.799188,39.8852562 126.367871,39.4213867 C125.936554,38.9575172 125.720898,38.2926476 125.720898,37.4267578 C125.720898,36.8668592 125.813671,36.3769552 125.999219,35.9570312 C126.184767,35.5371073 126.467153,35.222169 126.846387,35.012207 C127.22562,34.802245 127.638214,34.6972656 128.08418,34.6972656 C128.647334,34.6972656 129.107941,34.8396796 129.466016,35.1245117 C129.82409,35.4093439 130.05358,35.8137995 130.154492,36.3378906 L129.3,36.4697266 C129.218619,36.1214175 129.074578,35.8593759 128.867871,35.6835938 C128.661164,35.5078116 128.41133,35.4199219 128.118359,35.4199219 C127.675649,35.4199219 127.315952,35.5786117 127.039258,35.8959961 C126.762564,36.2133805 126.624219,36.7154914 126.624219,37.4023438 C126.624219,38.0989618 126.757681,38.6051417 127.024609,38.9208984 C127.291538,39.2366552 127.639842,39.3945312 128.069531,39.3945312 C128.414585,39.3945312 128.702668,39.288738 128.933789,39.0771484 C129.16491,38.8655588 129.311393,38.5400413 129.373242,38.1005859 Z M134.673242,39.3603516 C134.34772,39.6370457 134.034409,39.8323562 133.733301,39.9462891 C133.432193,40.0602219 133.109116,40.1171875 132.764062,40.1171875 C132.194398,40.1171875 131.756577,39.9780287 131.450586,39.699707 C131.144595,39.4213853 130.991602,39.0657574 130.991602,38.6328125 C130.991602,38.378905 131.049381,38.1469737 131.164941,37.9370117 C131.280502,37.7270497 131.431868,37.5585944 131.619043,37.4316406 C131.806218,37.3046869 132.016991,37.2086592 132.251367,37.1435547 C132.423894,37.0979815 132.684308,37.0540367 133.032617,37.0117188 C133.742256,36.9270829 134.264712,36.8261725 134.6,36.7089844 L134.604883,36.4794922 L134.604883,36.4794922 C134.604883,36.1214175 134.521876,35.8691414 134.355859,35.7226562 C134.131249,35.5240875 133.797593,35.4248047 133.354883,35.4248047 C132.941469,35.4248047 132.636297,35.4972323 132.439355,35.6420898 C132.242414,35.7869473 132.096745,36.0432924 132.002344,36.4111328 L131.142969,36.2939453 C131.221094,35.9261049 131.349674,35.6290701 131.528711,35.402832 C131.707748,35.1765939 131.966535,35.002442 132.305078,34.8803711 C132.643621,34.7583002 133.03587,34.6972656 133.481836,34.6972656 C133.924546,34.6972656 134.284243,34.7493484 134.560937,34.8535156 C134.837632,34.9576828 135.04108,35.0887036 135.171289,35.246582 C135.301498,35.4044604 135.392643,35.6038399 135.444727,35.8447266 C135.474024,35.9944669 135.488672,36.2646465 135.488672,36.6552734 L135.490528,38.2430363 C135.496097,38.8221954 135.514196,39.2003276 135.544824,39.3774414 C135.582259,39.5939138 135.656315,39.8014313 135.766992,40 L134.849023,40 C134.757877,39.8177074 134.699284,39.6044934 134.673242,39.3603516 Z M134.6,37.3974609 C134.320864,37.5113938 133.919613,37.6103717 133.396235,37.6943969 L133.164453,37.7294922 C132.803123,37.7815758 132.547592,37.8401689 132.397852,37.9052734 C132.248111,37.9703779 132.132552,38.0655918 132.051172,38.190918 C131.969791,38.3162441 131.929102,38.4554029 131.929102,38.6083984 C131.929102,38.8427746 132.017805,39.0380852 132.195215,39.1943359 C132.372625,39.3505867 132.632225,39.4287109 132.974023,39.4287109 C133.312567,39.4287109 133.613671,39.3546557 133.877344,39.206543 C134.141017,39.0584302 134.3347,38.8557956 134.458398,38.5986328 C134.5528,38.4000641 134.6,38.1070983 134.6,37.7197266 L134.6,37.3974609 Z M139.069922,39.2138672 L139.196875,39.9902344 C138.949478,40.042318 138.728126,40.0683594 138.532812,40.0683594 C138.2138,40.0683594 137.966407,40.0179042 137.790625,39.9169922 C137.614843,39.8160802 137.491146,39.6834318 137.419531,39.519043 C137.356868,39.3752027 137.321621,39.0924218 137.313788,38.6706932 L137.312109,35.4980469 L136.667578,35.4980469 L136.667578,34.8144531 L137.312109,34.8144531 L137.312109,33.5302734 L138.186133,33.0029297 L138.186133,34.8144531 L139.069922,34.8144531 L139.069922,35.4980469 L138.186133,35.4980469 L138.186133,38.5302734 C138.186133,38.7809257 138.201595,38.9420569 138.23252,39.0136719 C138.263444,39.0852868 138.313899,39.1422524 138.383887,39.1845703 C138.453874,39.2268882 138.553971,39.2480469 138.68418,39.2480469 L138.853857,39.239502 C138.918148,39.2338054 138.990169,39.2252605 139.069922,39.2138672 Z M140.23418,33.8525391 L140.23418,32.8417969 L141.113086,32.8417969 L141.113086,33.8525391 L140.23418,33.8525391 Z M140.23418,40 L140.23418,34.8144531 L141.113086,34.8144531 L141.113086,40 L140.23418,40 Z M142.423828,37.4072266 C142.423828,36.4469353 142.690753,35.7356794 143.224609,35.2734375 C143.670575,34.889321 144.21419,34.6972656 144.855469,34.6972656 C145.568363,34.6972656 146.151039,34.9308245 146.603516,35.3979492 C147.055992,35.865074 147.282227,36.5104125 147.282227,37.3339844 C147.282227,38.0013054 147.18213,38.5262025 146.981934,38.9086914 C146.781737,39.2911803 146.490399,39.5882151 146.10791,39.7998047 C145.725421,40.0113943 145.307945,40.1171875 144.855469,40.1171875 C144.129554,40.1171875 143.542808,39.8844424 143.095215,39.4189453 C142.647621,38.9534482 142.423828,38.282882 142.423828,37.4072266 Z M143.327148,37.4072266 C143.327148,38.0712924 143.472004,38.5685205 143.761719,38.8989258 C144.051434,39.2293311 144.416013,39.3945312 144.855469,39.3945312 C145.291669,39.3945312 145.654621,39.2285173 145.944336,38.8964844 C146.234051,38.5644515 146.378906,38.0582716 146.378906,37.3779297 C146.378906,36.7366504 146.233237,36.2508155 145.941895,35.9204102 C145.650552,35.5900049 145.288414,35.4248047 144.855469,35.4248047 C144.416013,35.4248047 144.051434,35.5891911 143.761719,35.9179688 C143.472004,36.2467464 143.327148,36.7431607 143.327148,37.4072266 Z M148.6125,40 L148.6125,34.8144531 L149.403516,34.8144531 L149.403516,35.5517578 C149.784377,34.9820935 150.334502,34.6972656 151.053906,34.6972656 C151.366408,34.6972656 151.653677,34.7534174 151.915723,34.8657227 C152.177768,34.9780279 152.373893,35.1253246 152.504102,35.3076172 C152.634311,35.4899098 152.725455,35.706379 152.777539,35.9570312 C152.810091,36.1197925 152.826367,36.4046204 152.826367,36.8115234 L152.826367,40 L151.947461,40 L151.947461,36.8457031 C151.947461,36.4876284 151.913282,36.2198902 151.844922,36.0424805 C151.776562,35.8650707 151.655307,35.7234706 151.481152,35.6176758 C151.306998,35.511881 151.102736,35.4589844 150.868359,35.4589844 C150.494009,35.4589844 150.170932,35.5777983 149.899121,35.8154297 C149.62731,36.0530611 149.491406,36.5039029 149.491406,37.1679688 L149.491406,40 L148.6125,40 Z M157.68418,40 L157.68418,32.8417969 L162.859961,32.8417969 L162.859961,33.6865234 L158.631445,33.6865234 L158.631445,35.8789062 L162.591406,35.8789062 L162.591406,36.71875 L158.631445,36.71875 L158.631445,39.1552734 L163.025977,39.1552734 L163.025977,40 L157.68418,40 Z M163.936328,40 L165.830859,37.3046875 L164.07793,34.8144531 L165.176562,34.8144531 L165.972461,36.0302734 C166.122201,36.2613944 166.242643,36.4550773 166.333789,36.6113281 C166.477019,36.3964833 166.608854,36.2060555 166.729297,36.0400391 L167.60332,34.8144531 L168.653125,34.8144531 L166.861133,37.2558594 L168.789844,40 L167.710742,40 L166.646289,38.3886719 L166.363086,37.9541016 L165.000781,40 L163.936328,40 Z M173.206055,39.3603516 C172.880532,39.6370457 172.567222,39.8323562 172.266113,39.9462891 C171.965005,40.0602219 171.641929,40.1171875 171.296875,40.1171875 C170.727211,40.1171875 170.28939,39.9780287 169.983398,39.699707 C169.677407,39.4213853 169.524414,39.0657574 169.524414,38.6328125 C169.524414,38.378905 169.582193,38.1469737 169.697754,37.9370117 C169.813314,37.7270497 169.96468,37.5585944 170.151855,37.4316406 C170.339031,37.3046869 170.549804,37.2086592 170.78418,37.1435547 C170.922201,37.1070962 171.116471,37.0716798 171.366992,37.0373047 L171.56543,37.0117188 C172.275069,36.9270829 172.797524,36.8261725 173.132812,36.7089844 L173.137695,36.4794922 L173.137695,36.4794922 C173.137695,36.1214175 173.054688,35.8691414 172.888672,35.7226562 C172.664061,35.5240875 172.330406,35.4248047 171.887695,35.4248047 C171.474282,35.4248047 171.169109,35.4972323 170.972168,35.6420898 C170.775227,35.7869473 170.629558,36.0432924 170.535156,36.4111328 L169.675781,36.2939453 C169.753907,35.9261049 169.882486,35.6290701 170.061523,35.402832 C170.240561,35.1765939 170.499347,35.002442 170.837891,34.8803711 C171.176434,34.7583002 171.568683,34.6972656 172.014648,34.6972656 C172.457359,34.6972656 172.817056,34.7493484 173.09375,34.8535156 C173.370444,34.9576828 173.573893,35.0887036 173.704102,35.246582 C173.834311,35.4044604 173.925455,35.6038399 173.977539,35.8447266 C174.006836,35.9944669 174.021484,36.2646465 174.021484,36.6552734 L174.021484,37.8271484 C174.021484,38.6442098 174.040202,39.160969 174.077637,39.3774414 C174.115072,39.5939138 174.189127,39.8014313 174.299805,40 L173.381836,40 C173.29069,39.8177074 173.232096,39.6044934 173.206055,39.3603516 Z M173.132812,37.3974609 C172.853677,37.5113938 172.452425,37.6103717 171.929047,37.6943969 L171.697266,37.7294922 C171.335936,37.7815758 171.080404,37.8401689 170.930664,37.9052734 C170.780924,37.9703779 170.665365,38.0655918 170.583984,38.190918 C170.502604,38.3162441 170.461914,38.4554029 170.461914,38.6083984 C170.461914,38.8427746 170.550618,39.0380852 170.728027,39.1943359 C170.905437,39.3505867 171.165037,39.4287109 171.506836,39.4287109 C171.845379,39.4287109 172.146483,39.3546557 172.410156,39.206543 C172.673829,39.0584302 172.867512,38.8557956 172.991211,38.5986328 C173.085612,38.4000641 173.132812,38.1070983 173.132812,37.7197266 L173.132812,37.3974609 Z M175.683789,40 L175.683789,34.8144531 L176.469922,34.8144531 L176.469922,35.5419922 C176.632683,35.2880847 176.849152,35.0838224 177.119336,34.9291992 C177.38952,34.774576 177.697134,34.6972656 178.042187,34.6972656 C178.426304,34.6972656 178.741242,34.7770174 178.987012,34.9365234 C179.232781,35.0960294 179.406119,35.319009 179.507031,35.6054688 C179.91719,34.999997 180.451038,34.6972656 181.108594,34.6972656 C181.622919,34.6972656 182.018423,34.8396796 182.295117,35.1245117 C182.571811,35.4093439 182.710156,35.8479788 182.710156,36.4404297 L182.710156,40 L181.836133,40 L181.836133,36.7333984 C181.836133,36.3818342 181.80765,36.1287443 181.750684,35.9741211 C181.693717,35.8194979 181.590365,35.6949875 181.440625,35.6005859 C181.290885,35.5061844 181.115105,35.4589844 180.913281,35.4589844 C180.548696,35.4589844 180.245965,35.5802397 180.005078,35.8227539 C179.764192,36.0652681 179.64375,36.4534479 179.64375,36.9873047 L179.64375,40 L178.764844,40 L178.764844,36.6308594 C178.764844,36.2402324 178.69323,35.9472666 178.55,35.7519531 C178.40677,35.5566396 178.172397,35.4589844 177.846875,35.4589844 C177.599478,35.4589844 177.370802,35.5240879 177.16084,35.6542969 C176.950878,35.7845059 176.798698,35.9749336 176.704297,36.2255859 C176.609895,36.4762382 176.562695,36.8375627 176.562695,37.3095703 L176.562695,40 L175.683789,40 Z M187.504492,40 L187.504492,32.8417969 L190.204687,32.8417969 C190.67995,32.8417969 191.042902,32.8645831 191.293555,32.9101562 C191.645119,32.9687503 191.939712,33.0802401 192.177344,33.2446289 C192.414975,33.4090177 192.606217,33.6393214 192.751074,33.9355469 C192.895932,34.2317723 192.968359,34.5572899 192.968359,34.9121094 C192.968359,35.5208364 192.774676,36.0359679 192.387305,36.4575195 C191.999933,36.8790711 191.30007,37.0898438 190.287695,37.0898438 L188.451758,37.0898438 L188.451758,40 L187.504492,40 Z M188.451758,36.2451172 L190.302344,36.2451172 C190.914326,36.2451172 191.348892,36.131186 191.606055,35.9033203 C191.863217,35.6754546 191.991797,35.3548198 191.991797,34.9414062 C191.991797,34.6419256 191.916114,34.3855805 191.764746,34.1723633 C191.613378,33.9591461 191.413999,33.8183597 191.166602,33.75 C191.029882,33.7137275 190.793915,33.6930006 190.458694,33.6878189 L188.451758,33.6865234 L188.451758,36.2451172 Z M194.342578,40 L194.342578,32.8417969 L195.221484,32.8417969 L195.221484,40 L194.342578,40 Z M200.267578,39.3603516 C199.942056,39.6370457 199.628745,39.8323562 199.327637,39.9462891 C199.026528,40.0602219 198.703452,40.1171875 198.358398,40.1171875 C197.788734,40.1171875 197.350913,39.9780287 197.044922,39.699707 C196.738931,39.4213853 196.585938,39.0657574 196.585938,38.6328125 C196.585938,38.378905 196.643717,38.1469737 196.759277,37.9370117 C196.874838,37.7270497 197.026203,37.5585944 197.213379,37.4316406 C197.400554,37.3046869 197.611327,37.2086592 197.845703,37.1435547 C197.983725,37.1070962 198.177994,37.0716798 198.428515,37.0373047 L198.626953,37.0117188 C199.336592,36.9270829 199.859048,36.8261725 200.194336,36.7089844 L200.199219,36.4794922 L200.199219,36.4794922 C200.199219,36.1214175 200.116212,35.8691414 199.950195,35.7226562 C199.725585,35.5240875 199.391929,35.4248047 198.949219,35.4248047 C198.535805,35.4248047 198.230632,35.4972323 198.033691,35.6420898 C197.83675,35.7869473 197.691081,36.0432924 197.59668,36.4111328 L196.737305,36.2939453 C196.81543,35.9261049 196.94401,35.6290701 197.123047,35.402832 C197.302084,35.1765939 197.560871,35.002442 197.899414,34.8803711 C198.237957,34.7583002 198.630206,34.6972656 199.076172,34.6972656 C199.518882,34.6972656 199.878579,34.7493484 200.155273,34.8535156 C200.431968,34.9576828 200.635416,35.0887036 200.765625,35.246582 C200.895834,35.4044604 200.986979,35.6038399 201.039062,35.8447266 C201.06836,35.9944669 201.083008,36.2646465 201.083008,36.6552734 L201.084864,38.2430363 C201.090433,38.8221954 201.108531,39.2003276 201.13916,39.3774414 C201.176595,39.5939138 201.25065,39.8014313 201.361328,40 L200.443359,40 C200.352213,39.8177074 200.29362,39.6044934 200.267578,39.3603516 Z M200.194336,37.3974609 C199.9152,37.5113938 199.513949,37.6103717 198.990571,37.6943969 L198.758789,37.7294922 C198.397459,37.7815758 198.141928,37.8401689 197.992188,37.9052734 C197.842447,37.9703779 197.726888,38.0655918 197.645508,38.190918 C197.564127,38.3162441 197.523438,38.4554029 197.523438,38.6083984 C197.523438,38.8427746 197.612141,39.0380852 197.789551,39.1943359 C197.966961,39.3505867 198.226561,39.4287109 198.568359,39.4287109 C198.906903,39.4287109 199.208006,39.3546557 199.47168,39.206543 C199.735353,39.0584302 199.929036,38.8557956 200.052734,38.5986328 C200.147136,38.4000641 200.194336,38.1070983 200.194336,37.7197266 L200.194336,37.3974609 Z M204.664258,39.2138672 L204.791211,39.9902344 C204.543814,40.042318 204.322462,40.0683594 204.127148,40.0683594 C203.808136,40.0683594 203.560743,40.0179042 203.384961,39.9169922 C203.209179,39.8160802 203.085482,39.6834318 203.013867,39.519043 C202.942252,39.3546541 202.906445,39.0087917 202.906445,38.4814453 L202.906445,35.4980469 L202.261914,35.4980469 L202.261914,34.8144531 L202.906445,34.8144531 L202.906445,33.5302734 L203.780469,33.0029297 L203.780469,34.8144531 L204.664258,34.8144531 L204.664258,35.4980469 L203.780469,35.4980469 L203.780469,38.5302734 C203.780469,38.7809257 203.795931,38.9420569 203.826855,39.0136719 C203.85778,39.0852868 203.908235,39.1422524 203.978223,39.1845703 C204.04821,39.2268882 204.148307,39.2480469 204.278516,39.2480469 L204.448193,39.239502 C204.512483,39.2338054 204.584505,39.2252605 204.664258,39.2138672 Z M206.033594,40 L206.033594,35.4980469 L205.257227,35.4980469 L205.257227,34.8144531 L206.033594,34.8144531 L206.033594,34.2626953 C206.033594,33.9143863 206.064518,33.6555998 206.126367,33.4863281 C206.211003,33.2584624 206.359927,33.0737312 206.573145,32.9321289 C206.786362,32.7905266 207.085024,32.7197266 207.469141,32.7197266 C207.716538,32.7197266 207.989972,32.7490231 208.289453,32.8076172 L208.157617,33.5742188 C207.975325,33.5416665 207.8028,33.5253906 207.640039,33.5253906 C207.373111,33.5253906 207.18431,33.5823562 207.073633,33.6962891 C206.962955,33.8102219 206.907617,34.0234359 206.907617,34.3359375 L206.907617,34.8144531 L207.918359,34.8144531 L207.918359,35.4980469 L206.907617,35.4980469 L206.907617,40 L206.033594,40 Z M208.574805,37.4072266 C208.574805,36.4469353 208.841729,35.7356794 209.375586,35.2734375 C209.821552,34.889321 210.365166,34.6972656 211.006445,34.6972656 C211.71934,34.6972656 212.302016,34.9308245 212.754492,35.3979492 C213.206968,35.865074 213.433203,36.5104125 213.433203,37.3339844 C213.433203,38.0013054 213.333106,38.5262025 213.13291,38.9086914 C212.932714,39.2911803 212.641376,39.5882151 212.258887,39.7998047 C211.876398,40.0113943 211.458922,40.1171875 211.006445,40.1171875 C210.28053,40.1171875 209.693785,39.8844424 209.246191,39.4189453 C208.798598,38.9534482 208.574805,38.282882 208.574805,37.4072266 Z M209.478125,37.4072266 C209.478125,38.0712924 209.62298,38.5685205 209.912695,38.8989258 C210.20241,39.2293311 210.56699,39.3945312 211.006445,39.3945312 C211.442645,39.3945312 211.805598,39.2285173 212.095313,38.8964844 C212.385027,38.5644515 212.529883,38.0582716 212.529883,37.3779297 C212.529883,36.7366504 212.384214,36.2508155 212.092871,35.9204102 C211.801528,35.5900049 211.43939,35.4248047 211.006445,35.4248047 C210.56699,35.4248047 210.20241,35.5891911 209.912695,35.9179688 C209.62298,36.2467464 209.478125,36.7431607 209.478125,37.4072266 Z M214.753711,40 L214.753711,34.8144531 L215.544727,34.8144531 L215.544727,35.6005859 C215.74655,35.2327456 215.932909,34.990235 216.103809,34.8730469 C216.274708,34.7558588 216.462694,34.6972656 216.667773,34.6972656 C216.963999,34.6972656 217.265103,34.7916657 217.571094,34.9804688 L217.268359,35.7958984 C217.053515,35.6689447 216.838673,35.6054688 216.623828,35.6054688 C216.43177,35.6054688 216.259246,35.6632481 216.10625,35.7788086 C215.953254,35.8943691 215.844206,36.0546865 215.779102,36.2597656 C215.681445,36.5722672 215.632617,36.9140606 215.632617,37.2851562 L215.632617,40 L214.753711,40 Z M218.393555,40 L218.393555,34.8144531 L219.179688,34.8144531 L219.179688,35.5419922 C219.342449,35.2880847 219.558918,35.0838224 219.829102,34.9291992 C220.099285,34.774576 220.406899,34.6972656 220.751953,34.6972656 C221.13607,34.6972656 221.451008,34.7770174 221.696777,34.9365234 C221.942547,35.0960294 222.115885,35.319009 222.216797,35.6054688 C222.626955,34.999997 223.160804,34.6972656 223.818359,34.6972656 C224.332685,34.6972656 224.728189,34.8396796 225.004883,35.1245117 C225.281577,35.4093439 225.419922,35.8479788 225.419922,36.4404297 L225.419922,40 L224.545898,40 L224.545898,36.7333984 C224.545898,36.3818342 224.517416,36.1287443 224.460449,35.9741211 C224.403483,35.8194979 224.300131,35.6949875 224.150391,35.6005859 C224.00065,35.5061844 223.824871,35.4589844 223.623047,35.4589844 C223.258462,35.4589844 222.95573,35.5802397 222.714844,35.8227539 C222.473957,36.0652681 222.353516,36.4534479 222.353516,36.9873047 L222.353516,40 L221.474609,40 L221.474609,36.6308594 C221.474609,36.2402324 221.402996,35.9472666 221.259766,35.7519531 C221.116536,35.5566396 220.882163,35.4589844 220.556641,35.4589844 C220.309244,35.4589844 220.080567,35.5240879 219.870605,35.6542969 C219.660643,35.7845059 219.508464,35.9749336 219.414063,36.2255859 C219.319661,36.4762382 219.272461,36.8375627 219.272461,37.3095703 L219.272461,40 L218.393555,40 Z" id="BIGDATACertificationExamPlatform" fill="#FFFFFF" fill-rule="nonzero"></path>
                            <g id="logo" fill="#4C87FB">
                                <path d="M33.157215,17.5143 L17.67682,2.22213 C17.417925,1.96533 16.997925,1.96533 16.73896,2.22213 L1.25958,17.5143 C1.001735,17.7711 1.001735,18.18402 1.25958,18.44007 L5.890745,23.01447 C5.987345,23.09958 6.436185,23.43429 6.87883,22.94829 C6.88387,22.94241 6.885935,22.94241 6.894195,22.93704 L11.538765,18.34449 C11.797625,18.09075 12.21773,18.09075 12.47764,18.34449 L22.442455,28.19064 C22.58837,28.30002 22.97246,28.5144 23.36166,28.12167 L33.157215,18.44007 C33.41597,18.18402 33.41597,17.7711 33.157215,17.5143 Z" id="形状-357-拷贝"></path>
                                <path d="M32.5318,29.89527 L33.157215,30.51132 C33.41597,30.7671 33.41597,31.18107 33.157215,31.43787 L33.157215,31.43787 L17.67682,46.73001 C17.417925,46.98579 16.997925,46.98579 16.73896,46.73001 L16.73896,46.73001 L16.11561,46.11291 L32.5318,29.89527 Z M30.344055,27.73299 L31.423455,28.80162 L15.01045,45.02106 L13.92888,43.9527 L30.344055,27.73299 Z M27.723815,26.00181 C27.98369,25.78053 28.374045,25.78872 28.62146,26.03325 L28.62146,26.03325 L29.030365,26.43597 L29.235675,26.64192 L12.824735,42.85983 L11.74005,41.79123 Z M20.81044,28.51032 L21.653625,29.34027 C21.727545,29.43147 21.82117,29.61213 21.639205,29.82141 C21.631085,29.83035 21.629125,29.8365 21.6209,29.84568 L21.6209,29.84568 L10.634925,40.69938 L9.55241,39.63075 L20.81044,28.51032 Z M18.623815,26.3478 L19.70423,27.41538 L8.44816,38.53686 L7.366695,37.46748 L18.623815,26.3478 Z M16.43705,24.18528 L17.516485,25.25697 L6.262585,36.37743 L5.179965,35.30703 L16.43705,24.18528 Z M14.248255,22.02279 L15.32972,23.09445 L4.07274,34.21413 L2.99222,33.14655 L14.248255,22.02279 Z M11.760665,20.13855 C11.81607,20.08284 12.035905,19.88685 12.29578,20.10915 C12.31524,20.12628 12.33162,20.13855 12.350135,20.14773 L12.350135,20.14773 L13.141975,20.93118 L1.88706,32.0547 L1.25958,31.43787 C1.001735,31.18107 1.001735,30.7671 1.25958,30.51132 L1.25958,30.51132 L11.744075,20.15286 C11.744075,20.15361 11.75244,20.14773 11.756535,20.14341 L11.756535,20.14341 Z" id="Combined-shape-1077"></path>
                            </g>
                        </g>
                    </g>
                </g>
            </g>
        </g>
    </g>
</svg>