<?xml version="1.0" encoding="UTF-8"?>
<svg width="230px" height="45px" viewBox="0 0 230 45" version="1.1" xmlns="http://www.w3.org/2000/svg" xmlns:xlink="http://www.w3.org/1999/xlink">
    <!-- Generator: Sketch 59.1 (86144) - https://sketch.com -->
    <title>大数据教学实验平台</title>
    <desc>Created with Sketch.</desc>
    <g id="UI规范" stroke="none" stroke-width="1" fill="none" fill-rule="evenodd">
        <g id="web-1920-0logo" transform="translate(-46.000000, -16.000000)">
            <g id="01-框架_-顶部">
                <g id="logo">
                    <g transform="translate(45.000000, 12.000000)">
                        <g id="大数据教学实验平台" transform="translate(0.000000, 2.000000)">
                            <path d="M47.14,14.6 L54.72,14.6 C54.853334,13.4933278 54.9266666,12.4200052 54.94,11.38 L54.94,9.58 L57.06,9.58 L57.06,10.9 C57.06,12.1533396 56.9866674,13.3866606 56.84,14.6 L64.86,14.6 L64.86,16.64 L57.32,16.64 C58.7600072,20.8133542 61.4266472,24.0399886 65.32,26.32 L64,28.04 C60.2266478,25.706655 57.5800076,22.4866872 56.06,18.38 C54.6999932,22.8333556 52.02002,26.1133228 48.02,28.22 L46.68,26.46 C50.7200202,24.4999902 53.2799946,21.2266896 54.36,16.64 L47.14,16.64 L47.14,14.6 Z M79.6857143,14.42 L79.4657143,15.22 C79.8923831,17.1266762 80.4457109,18.8399924 81.1257143,20.36 C81.6990505,18.6399914 82.0257139,16.6600112 82.1057143,14.42 L79.6857143,14.42 Z M80.1657143,22.56 C79.5257111,21.2799936 78.9590501,19.806675 78.4657143,18.14 C78.1857129,18.7666698 77.8723827,19.3866636 77.5257143,20 L76.2257143,18.38 C77.3323865,16.179989 78.0723791,13.2400184 78.4457143,9.56 L80.4857143,9.92 C80.3523803,10.9333384 80.2257143,11.7599968 80.1057143,12.4 L85.1057143,12.4 L85.1057143,14.42 L84.0257143,14.42 C83.9057137,17.6333494 83.3323861,20.3666554 82.3057143,22.62 C83.2523857,24.153341 84.3923743,25.3666622 85.7257143,26.26 L84.5257143,28.04 C83.2990415,27.1466622 82.2190523,25.9733406 81.2857143,24.52 C80.3257095,25.9733406 79.1590545,27.1933284 77.7857143,28.18 L76.6657143,26.38 C78.1057215,25.4333286 79.2723765,24.160008 80.1657143,22.56 Z M72.6857143,19.08 C72.5923805,19.3733348 72.4923815,19.653332 72.3857143,19.92 L76.3857143,19.92 L76.3857143,21.68 C76.0790461,22.813339 75.4857187,23.8266622 74.6057143,24.72 C75.3123845,25.0266682 76.0457105,25.379998 76.8057143,25.78 L75.6657143,27.46 C74.8523769,26.9799976 73.9457193,26.506669 72.9457143,26.04 C71.6657079,26.8533374 70.0190577,27.526664 68.0057143,28.06 L67.0057143,26.26 C68.4190547,25.9399984 69.6457091,25.5400024 70.6857143,25.06 L69.5310196,24.5922445 C69.0455784,24.397415 68.5971449,24.2200008 68.1857143,24.06 C68.6657167,23.259996 69.0857125,22.5000036 69.4457143,21.78 L67.4857143,21.78 L67.4857143,19.92 L70.2657143,19.92 L70.6689143,18.8273776 C70.6685588,18.8295703 70.6674921,18.8337777 70.6657143,18.84 L72.6857143,19.08 Z M72.6257143,23.92 C73.4523851,23.2666634 74.0657123,22.5533372 74.4657143,21.78 L71.5657143,21.78 C71.3923801,22.113335 71.1190495,22.5999968 70.7457143,23.24 C71.1723831,23.373334 71.7990435,23.5999984 72.6257143,23.92 Z M69.4257143,9.96 C69.8657165,10.6800036 70.2590459,11.4666624 70.6057143,12.32 L69.0057143,13.04 C68.6190457,12.106662 68.1857167,11.2666704 67.7057143,10.52 L69.4257143,9.96 Z M76.6057143,10.66 C76.1923789,11.526671 75.6857173,12.3466628 75.0857143,13.12 L73.5657143,12.32 C74.1257171,11.5066626 74.5923791,10.6866708 74.9657143,9.86 L76.6057143,10.66 Z M67.5457143,13.22 L71.2657143,13.22 L71.2657143,9.6 L73.1857143,9.6 L73.1857143,13.22 L76.5857143,13.22 L76.5857143,15.04 L73.1857143,15.04 L73.1857143,15.08 C74.2257195,15.4933354 75.2857089,15.9733306 76.3657143,16.52 L75.2857143,18.16 L74.7464537,17.7372828 C74.1415152,17.2694636 73.621272,16.8903718 73.1857143,16.6 L73.1857143,18.7 L71.2657143,18.7 L71.2657143,15.56 C70.5857109,16.9200068 69.5323881,18.1133282 68.1057143,19.14 L67.0657143,17.46 C68.3857209,16.7133296 69.3390447,15.906671 69.9257143,15.04 L67.5457143,15.04 L67.5457143,13.22 Z M88.1714286,27.9 L87.7314286,25.94 C88.3180982,26.0333338 88.7980934,26.08 89.1714286,26.08 C89.5980974,26.08 89.8114286,25.8266692 89.8114286,25.32 L89.8114286,21.28 L88.0552155,21.8930178 C87.9470501,21.9294674 87.8591212,21.9584614 87.7914286,21.98 L87.2514286,19.92 C88.131433,19.719999 88.9847578,19.4800014 89.8114286,19.2 L89.8114286,15.2 L87.6514286,15.2 L87.6514286,13.18 L89.8114286,13.18 L89.8114286,9.64 L91.8514286,9.64 L91.8514286,13.18 L93.5514286,13.18 L93.5514286,15.2 L91.8514286,15.2 L91.8514286,18.38 L92.6289803,18.0077548 C92.9468027,17.8521089 93.2276178,17.7095245 93.4714286,17.58 L93.4714286,19.62 L91.8514286,20.42 L91.8514286,25.84 C91.8514286,27.2133402 91.1914352,27.9 89.8714286,27.9 L88.1714286,27.9 Z M96.1914286,19.28 C95.9514274,22.6000166 95.1981016,25.5466538 93.9314286,28.12 L92.2914286,26.66 C93.5847684,24.126654 94.2447618,20.8533534 94.2714286,16.84 L94.2714286,10.2 L105.231429,10.2 L105.231429,15.5 L101.631429,15.5 L101.631429,17.38 L105.671429,17.38 L105.671429,19.28 L101.631429,19.28 L101.631429,21.2 L104.791429,21.2 L104.791429,28.08 L102.871429,28.08 L102.871429,27.26 L98.3714286,27.26 L98.3714286,28.08 L96.4514286,28.08 L96.4514286,21.2 L99.5914286,21.2 L99.5914286,19.28 L96.1914286,19.28 Z M99.5914286,15.5 L96.2914286,15.5 L96.2914286,17.1 L96.2714286,17.38 L99.5914286,17.38 L99.5914286,15.5 Z M98.3714286,25.42 L102.871429,25.42 L102.871429,23.04 L98.3714286,23.04 L98.3714286,25.42 Z M103.191429,12.1 L96.2914286,12.1 L96.2914286,13.66 L103.191429,13.66 L103.191429,12.1 Z M125.037143,28.1 C123.757136,26.8199936 122.650481,25.4533406 121.717143,24 C120.543804,25.6266748 119.083818,26.9799946 117.337143,28.06 L116.137143,26.14 C118.030486,25.1133282 119.517143,23.7400086 120.597143,22.02 C119.837139,20.5266592 119.257145,18.9733414 118.857143,17.36 C118.577141,17.8400024 118.223812,18.3533306 117.797143,18.9 L116.557143,17.36 L117.117143,16.48 L114.757143,16.48 C114.330474,16.9733358 113.943811,17.3933316 113.597143,17.74 L116.617143,17.74 L116.617143,19.22 C115.97714,20.0066706 115.203814,20.7799962 114.297143,21.54 L114.297143,22.04 C115.457149,21.8533324 116.570471,21.626668 117.637143,21.36 L117.637143,23.3 C116.743805,23.5266678 115.630483,23.739999 114.297143,23.94 L114.297143,25.74 C114.297143,27.1666738 113.590483,27.88 112.177143,27.88 L110.377143,27.88 L109.837143,26.02 L110.464744,26.0914002 C110.899678,26.1371336 111.210475,26.16 111.397143,26.16 C111.997146,26.16 112.297143,25.8400032 112.297143,25.2 L112.297143,24.2 L111.006031,24.3444446 C110.120106,24.4392593 109.183814,24.5311107 108.197143,24.62 L107.897143,22.62 C109.203816,22.553333 110.670468,22.4466674 112.297143,22.3 L112.297143,21.14 C112.99048,20.6466642 113.61714,20.1266694 114.177143,19.58 L111.577143,19.58 C110.643805,20.3000036 109.723814,20.9133308 108.817143,21.42 L107.517143,19.96 C108.010479,19.6799986 108.457141,19.4133346 108.857143,19.16 L108.857143,17.74 L110.817143,17.74 L111.348255,17.2888883 C111.683069,16.9985183 111.979364,16.7288901 112.237143,16.48 L107.957143,16.48 L107.957143,14.56 L111.237143,14.56 L111.237143,13.08 L108.877143,13.08 L108.877143,11.24 L111.237143,11.24 L111.237143,9.74 L113.217143,9.74 L113.217143,11.24 L115.177143,11.24 L115.177143,12.86 C115.670479,12.0733294 116.150474,11.2400044 116.617143,10.36 L118.237143,11.2 C117.570473,12.4533396 116.903813,13.5733284 116.237143,14.56 L117.217143,14.56 L117.217143,16.3 C118.243815,14.4199906 118.950474,12.1666798 119.337143,9.54 L121.377143,9.9 L121.186031,10.9000017 C121.06455,11.5133344 120.954921,12.019998 120.857143,12.42 L125.697143,12.42 L125.697143,14.4 L124.657143,14.4 C124.523809,17.4133484 123.903815,20.0133224 122.797143,22.2 C123.770481,23.7866746 124.937136,25.1399944 126.297143,26.26 L125.037143,28.1 Z M120.257143,14.4 L119.957143,15.18 C120.410478,16.9933424 120.963806,18.5933264 121.617143,19.98 C122.270479,18.2999916 122.637142,16.4400102 122.717143,14.4 L120.257143,14.4 Z M113.957143,14.56 C114.303811,14.1199978 114.663808,13.6266694 115.037143,13.08 L113.217143,13.08 L113.217143,14.56 L113.957143,14.56 Z M145.882857,13.44 L145.882857,18.42 L143.802857,18.42 L143.802857,15.44 L130.462857,15.44 L130.462857,18.42 L128.402857,18.42 L128.402857,13.44 L131.922857,13.44 C131.296187,12.373328 130.669527,11.4600038 130.042857,10.7 L131.942857,9.78 C132.569527,10.6200042 133.222854,11.639994 133.902857,12.84 L132.702857,13.44 L136.662857,13.44 C136.076188,12.239994 135.456194,11.1866712 134.802857,10.28 L136.702857,9.36 C137.409527,10.426672 138.036188,11.5066612 138.582857,12.6 L136.922857,13.44 L139.982857,13.44 C140.769528,12.2266606 141.456188,10.9066738 142.042857,9.48 L144.202857,10.28 C143.536187,11.5733398 142.889527,12.6266626 142.262857,13.44 L145.882857,13.44 Z M131.722857,16.52 L142.582857,16.52 L142.582857,18.36 C141.342851,19.160004 139.962865,19.9399962 138.442857,20.7 L138.442857,21.26 L145.822857,21.26 L145.822857,23.22 L138.442857,23.22 L138.442857,26.14 C138.442857,27.3933396 137.782864,28.02 136.462857,28.02 L133.902857,28.02 L133.382857,26.12 C134.102861,26.1600002 134.88952,26.18 135.742857,26.18 C136.142859,26.18 136.342857,25.9333358 136.342857,25.44 L136.342857,23.22 L128.522857,23.22 L128.522857,21.26 L136.342857,21.26 L136.342857,19.78 L137.777043,19.1580602 C138.538063,18.8231626 139.119998,18.5571438 139.522857,18.36 L131.722857,18.36 L131.722857,16.52 Z M165.888571,11.44 L165.888571,15.84 L163.768571,15.84 L163.768571,13.38 L151.088571,13.38 L151.088571,15.92 L148.968571,15.92 L148.968571,11.44 L156.448571,11.44 C156.195237,10.7866634 155.948573,10.2200024 155.708571,9.74 L157.928571,9.38 C158.155239,10.0200032 158.355237,10.706663 158.528571,11.44 L165.888571,11.44 Z M151.948571,16.7 C153.428579,17.2733362 154.761899,17.9399962 155.948571,18.7 L154.868571,20.34 C153.615232,19.4599956 152.295245,18.753336 150.908571,18.22 L151.948571,16.7 Z M153.088571,13.72 C154.555245,14.253336 155.861899,14.8933296 157.008571,15.64 L155.948571,17.28 C154.721899,16.3866622 153.435245,15.6866692 152.088571,15.18 L153.088571,13.72 Z M158.668571,14.02 L160.768571,14.02 L160.768571,16.58 C160.688571,18.0333406 160.441907,19.3799938 160.028571,20.62 L166.188571,20.62 L166.188571,22.56 L159.128571,22.56 L158.788571,23.1 C161.508585,24.0866716 163.941894,25.1999938 166.088571,26.44 L164.908571,28.26 C162.535226,26.7533258 160.075251,25.5266714 157.528571,24.58 C155.83523,26.113341 153.321921,27.3066624 149.988571,28.16 L148.848571,26.38 C152.60859,25.3933284 155.148565,24.1733406 156.468571,22.72 C156.495238,22.6666664 156.535238,22.6133336 156.588571,22.56 L148.608571,22.56 L148.608571,20.62 L157.748571,20.62 C158.255241,19.4466608 158.561904,18.1000076 158.668571,16.58 L158.668571,14.02 Z M178.294286,15.98 C177.707616,16.5933364 177.054289,17.1799972 176.334286,17.74 L175.234286,16.06 C177.420963,14.4066584 179.107613,12.24668 180.294286,9.58 L182.134286,9.58 C183.107624,12.0066788 184.80094,14.1466574 187.214286,16 L186.074286,17.74 C185.260948,17.0999968 184.580955,16.4866696 184.034286,15.9 L184.034286,17.06 L178.294286,17.06 L178.294286,15.98 Z M183.414286,15.18 C182.520948,14.0999946 181.787622,12.9133398 181.214286,11.62 C180.560949,12.9400066 179.820957,14.1266614 178.994286,15.18 L183.414286,15.18 Z M175.814286,25.46 L182.234286,25.46 C182.927623,23.326656 183.54095,20.8200144 184.074286,17.94 L186.074286,18.46 C185.54095,21.1133466 184.914289,23.4466566 184.194286,25.46 L186.934286,25.46 L186.934286,27.46 L175.814286,27.46 L175.814286,25.46 Z M178.134286,18.52 C178.734289,20.1600082 179.274283,22.0399894 179.754286,24.16 L177.974286,24.58 C177.534284,22.6599904 176.994289,20.8466752 176.354286,19.14 L178.134286,18.52 Z M181.214286,17.9 C181.707622,19.500008 182.140951,21.3066566 182.514286,23.32 L180.734286,23.74 C180.400951,21.9533244 179.967622,20.2000086 179.434286,18.48 L181.214286,17.9 Z M173.374286,12.18 L168.754286,12.18 L168.754286,10.3 L175.434286,10.3 L174.494286,18.54 L175.614286,18.54 L175.609303,19.7462335 C175.574978,23.7401344 175.363307,26.0713692 174.974286,26.74 C174.547617,27.473337 173.654293,27.84 172.294286,27.84 L172.053036,27.835 C171.780536,27.8250001 171.414288,27.8 170.954286,27.76 L170.394286,25.92 L171.165487,26.0224002 C171.488687,26.0608002 171.718285,26.08 171.854286,26.08 C172.707623,26.08 173.227618,25.8066694 173.414286,25.26 C173.600953,24.6733304 173.694286,23.04668 173.694286,20.38 L168.674286,20.38 L169.614286,13.24 L171.514286,13.34 L170.754286,18.54 L172.534286,18.54 L173.374286,12.18 Z M172.934286,23.46 C171.600946,23.9533358 170.127627,24.3466652 168.514286,24.64 L168.254286,22.68 C170.040961,22.3999986 171.600946,22.0400022 172.934286,21.6 L172.934286,23.46 Z M189.86,10.28 L206.2,10.28 L206.2,12.32 L198.98,12.32 L198.98,19.2 L206.94,19.2 L206.94,21.22 L198.98,21.22 L198.98,28.06 L196.86,28.06 L196.86,21.22 L189.06,21.22 L189.06,19.2 L196.86,19.2 L196.86,12.32 L189.86,12.32 L189.86,10.28 Z M192.8,13.12 C193.480003,14.3733396 194.17333,15.8599914 194.88,17.58 L192.92,18.54 C192.306664,16.939992 191.620004,15.4466736 190.86,14.06 L192.8,13.12 Z M205.28,13.94 C204.719997,15.473341 203.986671,16.9666594 203.08,18.42 L201.2,17.46 C202.093338,16.0199928 202.819997,14.5466742 203.38,13.04 L205.28,13.94 Z M225.185714,19.54 L225.185714,28.12 L223.065714,28.12 L223.065714,27.36 L213.505714,27.36 L213.505714,28.12 L211.385714,28.12 L211.385714,19.54 L225.185714,19.54 Z M213.505714,25.36 L223.065714,25.36 L223.065714,21.54 L213.505714,21.54 L213.505714,25.36 Z M209.745714,15.78 C211.159055,15.5533322 213.225701,13.4533532 215.945714,9.48 L218.105714,10.24 C216.51904,12.4133442 214.932389,14.2399926 213.345714,15.72 C216.58573,15.5599992 219.745699,15.3400014 222.825714,15.06 C222.239045,14.193329 221.625717,13.360004 220.985714,12.56 L222.885714,11.66 C224.445722,13.6200098 225.95904,15.8266544 227.425714,18.28 L225.385714,19.28 L225.098214,18.7574992 C224.793214,18.2124998 224.435716,17.6000034 224.025714,16.92 C219.865693,17.2933352 215.232406,17.5733324 210.125714,17.76 L209.745714,15.78 Z" fill="#FFFFFF" fill-rule="nonzero"></path>
                            <path d="M47.7324219,40 L47.7324219,32.8417969 L50.4179688,32.8417969 C50.9648465,32.8417969 51.4034814,32.9142245 51.7338867,33.059082 C52.064292,33.2039395 52.3230785,33.4269191 52.5102539,33.7280273 C52.6974293,34.0291356 52.7910156,34.3440739 52.7910156,34.6728516 C52.7910156,34.9788427 52.7080086,35.2669257 52.5419922,35.5371094 C52.3759757,35.807293 52.1253272,36.0253898 51.7900391,36.1914062 C52.2229839,36.31836 52.5558257,36.5348292 52.7885742,36.8408203 C53.0213228,37.1468114 53.1376953,37.5081359 53.1376953,37.9248047 C53.1376953,38.2600928 53.0668952,38.5717759 52.925293,38.8598633 C52.7836907,39.1479507 52.608725,39.3701164 52.4003906,39.5263672 C52.1920563,39.682618 51.9308284,39.8006181 51.6166992,39.8803711 C51.30257,39.9601241 50.9176455,40 50.4619141,40 L47.7324219,40 Z M48.6796875,35.8496094 L50.2275391,35.8496094 C50.647463,35.8496094 50.9485668,35.8219404 51.1308594,35.7666016 C51.371746,35.6949866 51.553222,35.5761727 51.675293,35.4101562 C51.7973639,35.2441398 51.8583984,35.0358085 51.8583984,34.7851562 C51.8583984,34.5475249 51.8014329,34.3383798 51.6875,34.1577148 C51.5735671,33.9770499 51.4108083,33.8533532 51.1992188,33.7866211 C50.9876292,33.719889 50.6246771,33.6865234 50.1103516,33.6865234 L48.6796875,33.6865234 L48.6796875,35.8496094 Z M48.6796875,36.6943359 L48.6796875,39.1552734 L50.4619141,39.1552734 C50.7679052,39.1552734 50.9827468,39.1438803 51.1064453,39.1210938 C51.3245454,39.0820311 51.5068352,39.0169275 51.6533203,38.9257812 C51.7998054,38.834635 51.9202469,38.7019865 52.0146484,38.527832 C52.10905,38.3536775 52.15625,38.1526704 52.15625,37.9248047 C52.15625,37.6578763 52.0878913,37.425945 51.9511719,37.2290039 C51.8144524,37.0320628 51.6248385,36.8937178 51.3823242,36.8139648 C51.13981,36.7342118 50.7906924,36.6943359 50.3349609,36.6943359 L48.6796875,36.6943359 Z M54.6025391,40 L54.6025391,32.8417969 L55.5498047,32.8417969 L55.5498047,40 L54.6025391,40 Z M60.5693359,37.1923828 L60.5693359,36.3525391 L63.6015625,36.3476562 L63.6015625,39.0039062 C63.1360654,39.3750019 62.655927,39.6541332 62.1611328,39.8413086 C61.6663387,40.028484 61.1585312,40.1220703 60.6376953,40.1220703 C59.9345668,40.1220703 59.2957385,39.9715184 58.7211914,39.6704102 C58.1466443,39.3693019 57.7128921,38.9339221 57.4199219,38.3642578 C57.1269517,37.7945935 56.9804688,37.1582066 56.9804688,36.4550781 C56.9804688,35.7584601 57.1261379,35.1082387 57.4174805,34.5043945 C57.7088231,33.9005504 58.127927,33.4521499 58.6748047,33.1591797 C59.2216824,32.8662095 59.8515589,32.7197266 60.5644531,32.7197266 C61.0820338,32.7197266 61.5499654,32.8035473 61.9682617,32.9711914 C62.3865581,33.1388355 62.714517,33.3723943 62.9521484,33.671875 C63.1897798,33.9713557 63.3704421,34.3619768 63.4941406,34.84375 L62.6396484,35.078125 C62.532226,34.7135398 62.3987638,34.4270844 62.2392578,34.21875 C62.0797518,34.0104156 61.8518895,33.8435879 61.5556641,33.7182617 C61.2594386,33.5929356 60.9306659,33.5302734 60.5693359,33.5302734 C60.1363911,33.5302734 59.7620458,33.5961907 59.4462891,33.7280273 C59.1305323,33.8598639 58.8758148,34.0332021 58.6821289,34.2480469 C58.488443,34.4628917 58.3378912,34.6988919 58.2304688,34.9560547 C58.0481762,35.3987652 57.9570312,35.8789037 57.9570312,36.3964844 C57.9570312,37.0345084 58.0668934,37.5683572 58.2866211,37.9980469 C58.5063488,38.4277365 58.8261698,38.7467438 59.2460938,38.9550781 C59.6660177,39.1634125 60.1119768,39.2675781 60.5839844,39.2675781 C60.9941427,39.2675781 61.3945293,39.1886401 61.7851562,39.0307617 C62.1757832,38.8728833 62.4720042,38.704428 62.6738281,38.5253906 L62.6738281,37.1923828 L60.5693359,37.1923828 Z M67.7763672,40 L67.7763672,32.8417969 L70.2421875,32.8417969 C70.7988309,32.8417969 71.2236313,32.8759762 71.5166016,32.9443359 C71.9267599,33.0387375 72.2766913,33.2096342 72.5664062,33.4570312 C72.9440123,33.7760433 73.2263988,34.183754 73.4135742,34.6801758 C73.6007496,35.1765975 73.6943359,35.7438119 73.6943359,36.3818359 C73.6943359,36.9254584 73.63086,37.4072245 73.5039062,37.8271484 C73.3769525,38.2470724 73.2141937,38.5945624 73.015625,38.8696289 C72.8170563,39.1446954 72.5997733,39.3611646 72.3637695,39.519043 C72.1277657,39.6769214 71.8429379,39.7965491 71.5092773,39.8779297 C71.1756168,39.9593103 70.7923199,40 70.359375,40 L67.7763672,40 Z M68.7236328,39.1552734 L70.2519531,39.1552734 C70.7239607,39.1552734 71.0942369,39.1113286 71.362793,39.0234375 C71.631349,38.9355464 71.8453768,38.8118498 72.0048828,38.6523438 C72.2294933,38.4277333 72.404459,38.1258157 72.5297852,37.746582 C72.6551113,37.3673484 72.7177734,36.9075548 72.7177734,36.3671875 C72.7177734,35.6184858 72.5948906,35.0431335 72.3491211,34.6411133 C72.1033516,34.239093 71.8046893,33.9697272 71.453125,33.8330078 C71.1992175,33.7353511 70.7906929,33.6865234 70.2275391,33.6865234 L68.7236328,33.6865234 L68.7236328,39.1552734 Z M74.2119141,40 L76.9609375,32.8417969 L77.9814453,32.8417969 L80.9111328,40 L79.8320312,40 L78.9970703,37.8320312 L76.0039062,37.8320312 L75.2177734,40 L74.2119141,40 Z M76.2773438,37.0605469 L78.7041016,37.0605469 L77.9570312,35.078125 C77.7291655,34.4759084 77.5598964,33.9811217 77.4492188,33.59375 C77.3580725,34.0527367 77.229493,34.5084613 77.0634766,34.9609375 L76.2773438,37.0605469 Z M83.4892578,40 L83.4892578,33.6865234 L81.1308594,33.6865234 L81.1308594,32.8417969 L86.8046875,32.8417969 L86.8046875,33.6865234 L84.4365234,33.6865234 L84.4365234,40 L83.4892578,40 Z M86.9902344,40 L89.7392578,32.8417969 L90.7597656,32.8417969 L93.6894531,40 L92.6103516,40 L91.7753906,37.8320312 L88.7822266,37.8320312 L87.9960938,40 L86.9902344,40 Z M89.0556641,37.0605469 L91.4824219,37.0605469 L90.7353516,35.078125 C90.5074858,34.4759084 90.3382167,33.9811217 90.2275391,33.59375 C90.1363928,34.0527367 90.0078133,34.5084613 89.8417969,34.9609375 L89.0556641,37.0605469 Z M97.2441406,40 L97.2441406,32.8417969 L102.419922,32.8417969 L102.419922,33.6865234 L98.1914062,33.6865234 L98.1914062,35.8789062 L102.151367,35.8789062 L102.151367,36.71875 L98.1914062,36.71875 L98.1914062,39.1552734 L102.585938,39.1552734 L102.585938,40 L97.2441406,40 Z M107.146484,40 L107.146484,39.3457031 C106.817707,39.8600286 106.334313,40.1171875 105.696289,40.1171875 C105.282876,40.1171875 104.902834,40.0032563 104.556152,39.7753906 C104.209471,39.5475249 103.940919,39.2293315 103.750488,38.8208008 C103.560058,38.4122701 103.464844,37.942711 103.464844,37.4121094 C103.464844,36.8945287 103.551106,36.4249696 103.723633,36.003418 C103.89616,35.5818664 104.154946,35.2587902 104.5,35.0341797 C104.845054,34.8095692 105.230792,34.6972656 105.657227,34.6972656 C105.969728,34.6972656 106.248046,34.7631829 106.492188,34.8950195 C106.736329,35.0268561 106.934895,35.1985667 107.087891,35.4101562 L107.087891,32.8417969 L107.961914,32.8417969 L107.961914,40 L107.146484,40 Z M104.368164,37.4121094 C104.368164,38.0761752 104.508137,38.5725895 104.788086,38.9013672 C105.068035,39.2301449 105.398436,39.3945312 105.779297,39.3945312 C106.163413,39.3945312 106.489745,39.237469 106.758301,38.9233398 C107.026857,38.6092107 107.161133,38.129886 107.161133,37.4853516 C107.161133,36.7757126 107.024415,36.2548845 106.750977,35.9228516 C106.477538,35.5908187 106.140627,35.4248047 105.740234,35.4248047 C105.349607,35.4248047 105.023276,35.5843083 104.76123,35.9033203 C104.499185,36.2223323 104.368164,36.725257 104.368164,37.4121094 Z M112.742188,40 L112.742188,39.2382812 C112.33854,39.8242217 111.790043,40.1171875 111.09668,40.1171875 C110.790689,40.1171875 110.505047,40.0585943 110.239746,39.9414062 C109.974445,39.8242182 109.777507,39.6769215 109.648926,39.4995117 C109.520344,39.322102 109.430013,39.104819 109.37793,38.8476562 C109.34809,38.7038838 109.330684,38.4900365 109.325711,38.2061095 L109.324219,34.8144531 L110.203125,34.8144531 L110.203125,37.6904297 C110.203125,38.1494164 110.221028,38.4586581 110.256836,38.6181641 C110.312175,38.849285 110.429361,39.0307611 110.608398,39.1625977 C110.787436,39.2944343 111.008788,39.3603516 111.272461,39.3603516 C111.536134,39.3603516 111.783527,39.2928067 112.014648,39.1577148 C112.245769,39.022623 112.409342,38.8387056 112.505371,38.605957 C112.6014,38.3732085 112.649414,38.035484 112.649414,37.5927734 L112.649414,34.8144531 L113.52832,34.8144531 L113.52832,40 L112.742188,40 Z M118.289062,38.1005859 L119.15332,38.2128906 C119.058919,38.8085967 118.817222,39.2749007 118.428223,39.6118164 C118.039223,39.9487322 117.561526,40.1171875 116.995117,40.1171875 C116.285478,40.1171875 115.715009,39.8852562 115.283691,39.4213867 C114.852374,38.9575172 114.636719,38.2926476 114.636719,37.4267578 C114.636719,36.8668592 114.729491,36.3769552 114.915039,35.9570312 C115.100587,35.5371073 115.382973,35.222169 115.762207,35.012207 C116.141441,34.802245 116.554034,34.6972656 117,34.6972656 C117.563154,34.6972656 118.023761,34.8396796 118.381836,35.1245117 C118.739911,35.4093439 118.969401,35.8137995 119.070312,36.3378906 L118.21582,36.4697266 C118.13444,36.1214175 117.990398,35.8593759 117.783691,35.6835938 C117.576985,35.5078116 117.32715,35.4199219 117.03418,35.4199219 C116.591469,35.4199219 116.231772,35.5786117 115.955078,35.8959961 C115.678384,36.2133805 115.540039,36.7154914 115.540039,37.4023438 C115.540039,38.0989618 115.673501,38.6051417 115.94043,38.9208984 C116.207358,39.2366552 116.555662,39.3945312 116.985352,39.3945312 C117.330405,39.3945312 117.618488,39.288738 117.849609,39.0771484 C118.08073,38.8655588 118.227213,38.5400413 118.289062,38.1005859 Z M123.289062,39.3603516 C122.96354,39.6370457 122.650229,39.8323562 122.349121,39.9462891 C122.048013,40.0602219 121.724937,40.1171875 121.379883,40.1171875 C120.810219,40.1171875 120.372397,39.9780287 120.066406,39.699707 C119.760415,39.4213853 119.607422,39.0657574 119.607422,38.6328125 C119.607422,38.378905 119.665201,38.1469737 119.780762,37.9370117 C119.896322,37.7270497 120.047688,37.5585944 120.234863,37.4316406 C120.422039,37.3046869 120.632811,37.2086592 120.867188,37.1435547 C121.005209,37.1070962 121.199478,37.0716798 121.449999,37.0373047 L121.648438,37.0117188 C122.358076,36.9270829 122.880532,36.8261725 123.21582,36.7089844 L123.220703,36.4794922 L123.220703,36.4794922 C123.220703,36.1214175 123.137696,35.8691414 122.97168,35.7226562 C122.747069,35.5240875 122.413414,35.4248047 121.970703,35.4248047 C121.55729,35.4248047 121.252117,35.4972323 121.055176,35.6420898 C120.858235,35.7869473 120.712566,36.0432924 120.618164,36.4111328 L119.758789,36.2939453 C119.836914,35.9261049 119.965494,35.6290701 120.144531,35.402832 C120.323569,35.1765939 120.582355,35.002442 120.920898,34.8803711 C121.259442,34.7583002 121.65169,34.6972656 122.097656,34.6972656 C122.540367,34.6972656 122.900064,34.7493484 123.176758,34.8535156 C123.453452,34.9576828 123.6569,35.0887036 123.787109,35.246582 C123.917318,35.4044604 124.008463,35.6038399 124.060547,35.8447266 C124.089844,35.9944669 124.104492,36.2646465 124.104492,36.6552734 L124.104492,37.8271484 C124.104492,38.6442098 124.123209,39.160969 124.160645,39.3774414 C124.19808,39.5939138 124.272135,39.8014313 124.382812,40 L123.464844,40 C123.373697,39.8177074 123.315104,39.6044934 123.289062,39.3603516 Z M123.21582,37.3974609 C122.936685,37.5113938 122.535433,37.6103717 122.012055,37.6943969 L121.780273,37.7294922 C121.418944,37.7815758 121.163412,37.8401689 121.013672,37.9052734 C120.863932,37.9703779 120.748373,38.0655918 120.666992,38.190918 C120.585612,38.3162441 120.544922,38.4554029 120.544922,38.6083984 C120.544922,38.8427746 120.633625,39.0380852 120.811035,39.1943359 C120.988445,39.3505867 121.248045,39.4287109 121.589844,39.4287109 C121.928387,39.4287109 122.229491,39.3546557 122.493164,39.206543 C122.756837,39.0584302 122.95052,38.8557956 123.074219,38.5986328 C123.16862,38.4000641 123.21582,38.1070983 123.21582,37.7197266 L123.21582,37.3974609 Z M127.385742,39.2138672 L127.512695,39.9902344 C127.265298,40.042318 127.043946,40.0683594 126.848633,40.0683594 C126.529621,40.0683594 126.282227,40.0179042 126.106445,39.9169922 C125.930663,39.8160802 125.806967,39.6834318 125.735352,39.519043 C125.663737,39.3546541 125.62793,39.0087917 125.62793,38.4814453 L125.62793,35.4980469 L124.983398,35.4980469 L124.983398,34.8144531 L125.62793,34.8144531 L125.62793,33.5302734 L126.501953,33.0029297 L126.501953,34.8144531 L127.385742,34.8144531 L127.385742,35.4980469 L126.501953,35.4980469 L126.501953,38.5302734 L126.507107,38.7510855 C126.513979,38.8784003 126.527723,38.9659286 126.54834,39.0136719 C126.579264,39.0852868 126.62972,39.1422524 126.699707,39.1845703 C126.769694,39.2268882 126.869791,39.2480469 127,39.2480469 L127.169678,39.239502 C127.233968,39.2338054 127.305989,39.2252605 127.385742,39.2138672 Z M128.25,33.8525391 L128.25,32.8417969 L129.128906,32.8417969 L129.128906,33.8525391 L128.25,33.8525391 Z M128.25,40 L128.25,34.8144531 L129.128906,34.8144531 L129.128906,40 L128.25,40 Z M130.139648,37.4072266 C130.139648,36.4469353 130.406573,35.7356794 130.94043,35.2734375 C131.386395,34.889321 131.93001,34.6972656 132.571289,34.6972656 C133.284183,34.6972656 133.86686,34.9308245 134.319336,35.3979492 C134.771812,35.865074 134.998047,36.5104125 134.998047,37.3339844 C134.998047,38.0013054 134.89795,38.5262025 134.697754,38.9086914 C134.497558,39.2911803 134.206219,39.5882151 133.82373,39.7998047 C133.441242,40.0113943 133.023765,40.1171875 132.571289,40.1171875 C131.845374,40.1171875 131.258629,39.8844424 130.811035,39.4189453 C130.363442,38.9534482 130.139648,38.282882 130.139648,37.4072266 Z M131.042969,37.4072266 C131.042969,38.0712924 131.187824,38.5685205 131.477539,38.8989258 C131.767254,39.2293311 132.131834,39.3945312 132.571289,39.3945312 C133.007489,39.3945312 133.370441,39.2285173 133.660156,38.8964844 C133.949871,38.5644515 134.094727,38.0582716 134.094727,37.3779297 C134.094727,36.7366504 133.949057,36.2508155 133.657715,35.9204102 C133.366372,35.5900049 133.004234,35.4248047 132.571289,35.4248047 C132.131834,35.4248047 131.767254,35.5891911 131.477539,35.9179688 C131.187824,36.2467464 131.042969,36.7431607 131.042969,37.4072266 Z M136.02832,40 L136.02832,34.8144531 L136.819336,34.8144531 L136.819336,35.5517578 C137.200197,34.9820935 137.750322,34.6972656 138.469727,34.6972656 C138.782228,34.6972656 139.069497,34.7534174 139.331543,34.8657227 C139.593589,34.9780279 139.789713,35.1253246 139.919922,35.3076172 C140.050131,35.4899098 140.141276,35.706379 140.193359,35.9570312 C140.225912,36.1197925 140.242188,36.4046204 140.242188,36.8115234 L140.242188,40 L139.363281,40 L139.363281,36.8457031 C139.363281,36.4876284 139.329102,36.2198902 139.260742,36.0424805 C139.192382,35.8650707 139.071127,35.7234706 138.896973,35.6176758 C138.722818,35.511881 138.518556,35.4589844 138.28418,35.4589844 C137.909829,35.4589844 137.586753,35.5777983 137.314941,35.8154297 C137.04313,36.0530611 136.907227,36.5039029 136.907227,37.1679688 L136.907227,40 L136.02832,40 Z M144.441406,40 L144.441406,32.8417969 L145.388672,32.8417969 L145.388672,39.1552734 L148.914062,39.1552734 L148.914062,40 L144.441406,40 Z M153.313477,39.3603516 C152.987954,39.6370457 152.674643,39.8323562 152.373535,39.9462891 C152.072427,40.0602219 151.749351,40.1171875 151.404297,40.1171875 C150.834633,40.1171875 150.396811,39.9780287 150.09082,39.699707 C149.784829,39.4213853 149.631836,39.0657574 149.631836,38.6328125 C149.631836,38.378905 149.689615,38.1469737 149.805176,37.9370117 C149.920736,37.7270497 150.072102,37.5585944 150.259277,37.4316406 C150.446453,37.3046869 150.657225,37.2086592 150.891602,37.1435547 C151.029623,37.1070962 151.223892,37.0716798 151.474413,37.0373047 L151.672852,37.0117188 C152.382491,36.9270829 152.904946,36.8261725 153.240234,36.7089844 L153.245117,36.4794922 L153.245117,36.4794922 C153.245117,36.1214175 153.16211,35.8691414 152.996094,35.7226562 C152.771483,35.5240875 152.437828,35.4248047 151.995117,35.4248047 C151.581704,35.4248047 151.276531,35.4972323 151.07959,35.6420898 C150.882649,35.7869473 150.73698,36.0432924 150.642578,36.4111328 L149.783203,36.2939453 C149.861329,35.9261049 149.989908,35.6290701 150.168945,35.402832 C150.347983,35.1765939 150.606769,35.002442 150.945312,34.8803711 C151.283856,34.7583002 151.676105,34.6972656 152.12207,34.6972656 C152.564781,34.6972656 152.924478,34.7493484 153.201172,34.8535156 C153.477866,34.9576828 153.681314,35.0887036 153.811523,35.246582 C153.941732,35.4044604 154.032877,35.6038399 154.084961,35.8447266 C154.110073,35.9730754 154.124422,36.1899103 154.128009,36.4952362 L154.130763,38.2430363 C154.136331,38.8221954 154.15443,39.2003276 154.185059,39.3774414 C154.222494,39.5939138 154.296549,39.8014313 154.407227,40 L153.489258,40 C153.398112,39.8177074 153.339518,39.6044934 153.313477,39.3603516 Z M153.240234,37.3974609 C152.961099,37.5113938 152.559847,37.6103717 152.036469,37.6943969 L151.804688,37.7294922 C151.443358,37.7815758 151.187826,37.8401689 151.038086,37.9052734 C150.888346,37.9703779 150.772787,38.0655918 150.691406,38.190918 C150.610026,38.3162441 150.569336,38.4554029 150.569336,38.6083984 C150.569336,38.8427746 150.658039,39.0380852 150.835449,39.1943359 C151.012859,39.3505867 151.272459,39.4287109 151.614258,39.4287109 C151.952801,39.4287109 152.253905,39.3546557 152.517578,39.206543 C152.781251,39.0584302 152.974934,38.8557956 153.098633,38.5986328 C153.193034,38.4000641 153.240234,38.1070983 153.240234,37.7197266 L153.240234,37.3974609 Z M156.301758,40 L155.486328,40 L155.486328,32.8417969 L156.365234,32.8417969 L156.365234,35.3955078 C156.73633,34.9300107 157.209958,34.6972656 157.786133,34.6972656 C158.105145,34.6972656 158.407062,34.7615553 158.691895,34.8901367 C158.976727,35.0187181 159.211099,35.1993803 159.39502,35.4321289 C159.57894,35.6648775 159.722981,35.9456364 159.827148,36.2744141 C159.931316,36.6031917 159.983398,36.9547507 159.983398,37.3291016 C159.983398,38.2177779 159.763674,38.90462 159.324219,39.3896484 C158.884763,39.8746769 158.357425,40.1171875 157.742188,40.1171875 C157.130205,40.1171875 156.650067,39.8616562 156.301758,39.3505859 L156.301758,40 Z M156.291992,37.3681641 C156.291992,37.989912 156.376627,38.4391262 156.545898,38.7158203 C156.822593,39.1682965 157.196938,39.3945312 157.668945,39.3945312 C158.053062,39.3945312 158.38509,39.2277035 158.665039,38.894043 C158.944988,38.5603824 159.084961,38.0631543 159.084961,37.4023438 C159.084961,36.725257 158.950685,36.2255875 158.682129,35.9033203 C158.413573,35.5810531 158.088869,35.4199219 157.708008,35.4199219 C157.323891,35.4199219 156.991863,35.5867496 156.711914,35.9204102 C156.431965,36.2540707 156.291992,36.7366505 156.291992,37.3681641 Z M160.725586,37.4072266 C160.725586,36.4469353 160.99251,35.7356794 161.526367,35.2734375 C161.972333,34.889321 162.515947,34.6972656 163.157227,34.6972656 C163.870121,34.6972656 164.452797,34.9308245 164.905273,35.3979492 C165.35775,35.865074 165.583984,36.5104125 165.583984,37.3339844 C165.583984,38.0013054 165.483888,38.5262025 165.283691,38.9086914 C165.083495,39.2911803 164.792157,39.5882151 164.409668,39.7998047 C164.027179,40.0113943 163.609703,40.1171875 163.157227,40.1171875 C162.431311,40.1171875 161.844566,39.8844424 161.396973,39.4189453 C160.949379,38.9534482 160.725586,38.282882 160.725586,37.4072266 Z M161.628906,37.4072266 C161.628906,38.0712924 161.773762,38.5685205 162.063477,38.8989258 C162.353192,39.2293311 162.717771,39.3945312 163.157227,39.3945312 C163.593427,39.3945312 163.956379,39.2285173 164.246094,38.8964844 C164.535809,38.5644515 164.680664,38.0582716 164.680664,37.3779297 C164.680664,36.7366504 164.534995,36.2508155 164.243652,35.9204102 C163.95231,35.5900049 163.590171,35.4248047 163.157227,35.4248047 C162.717771,35.4248047 162.353192,35.5891911 162.063477,35.9179688 C161.773762,36.2467464 161.628906,36.7431607 161.628906,37.4072266 Z M166.604492,40 L166.604492,34.8144531 L167.395508,34.8144531 L167.395508,35.6005859 C167.597332,35.2327456 167.783691,34.990235 167.95459,34.8730469 C168.125489,34.7558588 168.313476,34.6972656 168.518555,34.6972656 C168.81478,34.6972656 169.115884,34.7916657 169.421875,34.9804688 L169.119141,35.7958984 C168.904296,35.6689447 168.689454,35.6054688 168.474609,35.6054688 C168.282551,35.6054688 168.110027,35.6632481 167.957031,35.7788086 C167.804036,35.8943691 167.694987,36.0546865 167.629883,36.2597656 C167.532226,36.5722672 167.483398,36.9140606 167.483398,37.2851562 L167.483398,40 L166.604492,40 Z M173.328125,39.3603516 C173.002603,39.6370457 172.689292,39.8323562 172.388184,39.9462891 C172.087075,40.0602219 171.763999,40.1171875 171.418945,40.1171875 C170.849281,40.1171875 170.41146,39.9780287 170.105469,39.699707 C169.799478,39.4213853 169.646484,39.0657574 169.646484,38.6328125 C169.646484,38.378905 169.704264,38.1469737 169.819824,37.9370117 C169.935385,37.7270497 170.08675,37.5585944 170.273926,37.4316406 C170.461101,37.3046869 170.671874,37.2086592 170.90625,37.1435547 C171.078777,37.0979815 171.339191,37.0540367 171.6875,37.0117188 C172.397139,36.9270829 172.919595,36.8261725 173.254883,36.7089844 L173.259766,36.4794922 L173.259766,36.4794922 C173.259766,36.1214175 173.176759,35.8691414 173.010742,35.7226562 C172.786132,35.5240875 172.452476,35.4248047 172.009766,35.4248047 C171.596352,35.4248047 171.291179,35.4972323 171.094238,35.6420898 C170.897297,35.7869473 170.751628,36.0432924 170.657227,36.4111328 L169.797852,36.2939453 C169.875977,35.9261049 170.004556,35.6290701 170.183594,35.402832 C170.362631,35.1765939 170.621418,35.002442 170.959961,34.8803711 C171.298504,34.7583002 171.690753,34.6972656 172.136719,34.6972656 C172.579429,34.6972656 172.939126,34.7493484 173.21582,34.8535156 C173.492514,34.9576828 173.695963,35.0887036 173.826172,35.246582 C173.956381,35.4044604 174.047526,35.6038399 174.099609,35.8447266 C174.128906,35.9944669 174.143555,36.2646465 174.143555,36.6552734 L174.145411,38.2430363 C174.15098,38.8221954 174.169078,39.2003276 174.199707,39.3774414 C174.237142,39.5939138 174.311197,39.8014313 174.421875,40 L173.503906,40 C173.41276,39.8177074 173.354167,39.6044934 173.328125,39.3603516 Z M173.254883,37.3974609 C172.975747,37.5113938 172.574496,37.6103717 172.051118,37.6943969 L171.819336,37.7294922 C171.458006,37.7815758 171.202475,37.8401689 171.052734,37.9052734 C170.902994,37.9703779 170.787435,38.0655918 170.706055,38.190918 C170.624674,38.3162441 170.583984,38.4554029 170.583984,38.6083984 C170.583984,38.8427746 170.672688,39.0380852 170.850098,39.1943359 C171.027507,39.3505867 171.287108,39.4287109 171.628906,39.4287109 C171.96745,39.4287109 172.268553,39.3546557 172.532227,39.206543 C172.7959,39.0584302 172.989583,38.8557956 173.113281,38.5986328 C173.207683,38.4000641 173.254883,38.1070983 173.254883,37.7197266 L173.254883,37.3974609 Z M177.424805,39.2138672 L177.551758,39.9902344 C177.304361,40.042318 177.083009,40.0683594 176.887695,40.0683594 C176.568683,40.0683594 176.32129,40.0179042 176.145508,39.9169922 C175.969726,39.8160802 175.846029,39.6834318 175.774414,39.519043 C175.702799,39.3546541 175.666992,39.0087917 175.666992,38.4814453 L175.666992,35.4980469 L175.022461,35.4980469 L175.022461,34.8144531 L175.666992,34.8144531 L175.666992,33.5302734 L176.541016,33.0029297 L176.541016,34.8144531 L177.424805,34.8144531 L177.424805,35.4980469 L176.541016,35.4980469 L176.541016,38.5302734 C176.541016,38.7809257 176.556478,38.9420569 176.587402,39.0136719 C176.618327,39.0852868 176.668782,39.1422524 176.73877,39.1845703 C176.808757,39.2268882 176.908854,39.2480469 177.039062,39.2480469 L177.20874,39.239502 C177.27303,39.2338054 177.345052,39.2252605 177.424805,39.2138672 Z M177.957031,37.4072266 C177.957031,36.4469353 178.223956,35.7356794 178.757812,35.2734375 C179.203778,34.889321 179.747393,34.6972656 180.388672,34.6972656 C181.101566,34.6972656 181.684243,34.9308245 182.136719,35.3979492 C182.589195,35.865074 182.81543,36.5104125 182.81543,37.3339844 C182.81543,38.0013054 182.715333,38.5262025 182.515137,38.9086914 C182.31494,39.2911803 182.023602,39.5882151 181.641113,39.7998047 C181.258624,40.0113943 180.841148,40.1171875 180.388672,40.1171875 C179.662757,40.1171875 179.076011,39.8844424 178.628418,39.4189453 C178.180825,38.9534482 177.957031,38.282882 177.957031,37.4072266 Z M178.860352,37.4072266 C178.860352,38.0712924 179.005207,38.5685205 179.294922,38.8989258 C179.584637,39.2293311 179.949217,39.3945312 180.388672,39.3945312 C180.824872,39.3945312 181.187824,39.2285173 181.477539,38.8964844 C181.767254,38.5644515 181.912109,38.0582716 181.912109,37.3779297 C181.912109,36.7366504 181.76644,36.2508155 181.475098,35.9204102 C181.183755,35.5900049 180.821617,35.4248047 180.388672,35.4248047 C179.949217,35.4248047 179.584637,35.5891911 179.294922,35.9179688 C179.005207,36.2467464 178.860352,36.7431607 178.860352,37.4072266 Z M183.835938,40 L183.835938,34.8144531 L184.626953,34.8144531 L184.626953,35.6005859 C184.828777,35.2327456 185.015136,34.990235 185.186035,34.8730469 C185.356934,34.7558588 185.544921,34.6972656 185.75,34.6972656 C186.046225,34.6972656 186.347329,34.7916657 186.65332,34.9804688 L186.350586,35.7958984 C186.135741,35.6689447 185.9209,35.6054688 185.706055,35.6054688 C185.513996,35.6054688 185.341472,35.6632481 185.188477,35.7788086 C185.035481,35.8943691 184.926433,36.0546865 184.861328,36.2597656 C184.763671,36.5722672 184.714844,36.9140606 184.714844,37.2851562 L184.714844,40 L183.835938,40 Z M187.136719,41.9970703 L187.039062,41.171875 C187.231121,41.2239586 187.398762,41.25 187.541992,41.25 C187.737306,41.25 187.893554,41.2174482 188.010742,41.1523438 C188.12793,41.0872393 188.223958,40.9960943 188.298828,40.8789062 C188.338356,40.8161269 188.395322,40.6869161 188.469726,40.4912714 L188.645508,40.0097656 L188.645508,40.0097656 L186.677734,34.8144531 L187.625,34.8144531 L188.704102,37.8173828 C188.844076,38.1982441 188.9694,38.5986307 189.080078,39.0185547 C189.18099,38.6149068 189.301432,38.2210306 189.441406,37.8369141 L190.549805,34.8144531 L191.428711,34.8144531 L189.456055,40.0878906 C189.244465,40.6575549 189.080079,41.0498036 188.962891,41.2646484 C188.80664,41.5543634 188.627605,41.7667636 188.425781,41.9018555 C188.223957,42.0369473 187.983074,42.1044922 187.703125,42.1044922 C187.533853,42.1044922 187.345053,42.0686853 187.136719,41.9970703 Z M195.066406,40 L195.066406,32.8417969 L197.766602,32.8417969 C198.241864,32.8417969 198.604816,32.8645831 198.855469,32.9101562 C199.207033,32.9687503 199.501626,33.0802401 199.739258,33.2446289 C199.976889,33.4090177 200.168131,33.6393214 200.312988,33.9355469 C200.457846,34.2317723 200.530273,34.5572899 200.530273,34.9121094 C200.530273,35.5208364 200.33659,36.0359679 199.949219,36.4575195 C199.561847,36.8790711 198.861984,37.0898438 197.849609,37.0898438 L196.013672,37.0898438 L196.013672,40 L195.066406,40 Z M196.013672,36.2451172 L197.864258,36.2451172 C198.47624,36.2451172 198.910806,36.131186 199.167969,35.9033203 C199.425131,35.6754546 199.553711,35.3548198 199.553711,34.9414062 C199.553711,34.6419256 199.478028,34.3855805 199.32666,34.1723633 C199.175292,33.9591461 198.975913,33.8183597 198.728516,33.75 C198.591796,33.7137275 198.355829,33.6930006 198.020608,33.6878189 L196.013672,33.6865234 L196.013672,36.2451172 Z M201.604492,40 L201.604492,32.8417969 L202.483398,32.8417969 L202.483398,40 L201.604492,40 Z M207.229492,39.3603516 C206.90397,39.6370457 206.590659,39.8323562 206.289551,39.9462891 C205.988443,40.0602219 205.665366,40.1171875 205.320312,40.1171875 C204.750648,40.1171875 204.312827,39.9780287 204.006836,39.699707 C203.700845,39.4213853 203.547852,39.0657574 203.547852,38.6328125 C203.547852,38.378905 203.605631,38.1469737 203.721191,37.9370117 C203.836752,37.7270497 203.988118,37.5585944 204.175293,37.4316406 C204.362468,37.3046869 204.573241,37.2086592 204.807617,37.1435547 C204.945639,37.1070962 205.139908,37.0716798 205.390429,37.0373047 L205.588867,37.0117188 C206.298506,36.9270829 206.820962,36.8261725 207.15625,36.7089844 L207.161133,36.4794922 L207.161133,36.4794922 C207.161133,36.1214175 207.078126,35.8691414 206.912109,35.7226562 C206.687499,35.5240875 206.353843,35.4248047 205.911133,35.4248047 C205.497719,35.4248047 205.192547,35.4972323 204.995605,35.6420898 C204.798664,35.7869473 204.652995,36.0432924 204.558594,36.4111328 L203.699219,36.2939453 C203.777344,35.9261049 203.905924,35.6290701 204.084961,35.402832 C204.263998,35.1765939 204.522785,35.002442 204.861328,34.8803711 C205.199871,34.7583002 205.59212,34.6972656 206.038086,34.6972656 C206.480796,34.6972656 206.840493,34.7493484 207.117188,34.8535156 C207.393882,34.9576828 207.59733,35.0887036 207.727539,35.246582 C207.857748,35.4044604 207.948893,35.6038399 208.000977,35.8447266 C208.026088,35.9730754 208.040438,36.1899103 208.044025,36.4952362 L208.046778,38.2430363 C208.052347,38.8221954 208.070446,39.2003276 208.101074,39.3774414 C208.138509,39.5939138 208.212565,39.8014313 208.323242,40 L207.405273,40 C207.314127,39.8177074 207.255534,39.6044934 207.229492,39.3603516 Z M207.15625,37.3974609 C206.877114,37.5113938 206.475863,37.6103717 205.952485,37.6943969 L205.720703,37.7294922 C205.359373,37.7815758 205.103842,37.8401689 204.954102,37.9052734 C204.804361,37.9703779 204.688802,38.0655918 204.607422,38.190918 C204.526041,38.3162441 204.485352,38.4554029 204.485352,38.6083984 C204.485352,38.8427746 204.574055,39.0380852 204.751465,39.1943359 C204.928875,39.3505867 205.188475,39.4287109 205.530273,39.4287109 C205.868817,39.4287109 206.169921,39.3546557 206.433594,39.206543 C206.697267,39.0584302 206.89095,38.8557956 207.014648,38.5986328 C207.10905,38.4000641 207.15625,38.1070983 207.15625,37.7197266 L207.15625,37.3974609 Z M211.326172,39.2138672 L211.453125,39.9902344 C211.205728,40.042318 210.984376,40.0683594 210.789062,40.0683594 C210.47005,40.0683594 210.222657,40.0179042 210.046875,39.9169922 C209.871093,39.8160802 209.747396,39.6834318 209.675781,39.519043 C209.604166,39.3546541 209.568359,39.0087917 209.568359,38.4814453 L209.568359,35.4980469 L208.923828,35.4980469 L208.923828,34.8144531 L209.568359,34.8144531 L209.568359,33.5302734 L210.442383,33.0029297 L210.442383,34.8144531 L211.326172,34.8144531 L211.326172,35.4980469 L210.442383,35.4980469 L210.442383,38.5302734 C210.442383,38.7809257 210.457845,38.9420569 210.48877,39.0136719 C210.519694,39.0852868 210.570149,39.1422524 210.640137,39.1845703 C210.710124,39.2268882 210.810221,39.2480469 210.94043,39.2480469 L211.110107,39.239502 C211.174398,39.2338054 211.246419,39.2252605 211.326172,39.2138672 Z M212.395508,40 L212.395508,35.4980469 L211.619141,35.4980469 L211.619141,34.8144531 L212.395508,34.8144531 L212.395508,34.2626953 C212.395508,33.9143863 212.426432,33.6555998 212.488281,33.4863281 C212.572917,33.2584624 212.721841,33.0737312 212.935059,32.9321289 C213.148276,32.7905266 213.446938,32.7197266 213.831055,32.7197266 C214.078452,32.7197266 214.351887,32.7490231 214.651367,32.8076172 L214.519531,33.5742188 C214.337239,33.5416665 214.164714,33.5253906 214.001953,33.5253906 C213.735025,33.5253906 213.546225,33.5823562 213.435547,33.6962891 C213.324869,33.8102219 213.269531,34.0234359 213.269531,34.3359375 L213.269531,34.8144531 L214.280273,34.8144531 L214.280273,35.4980469 L213.269531,35.4980469 L213.269531,40 L212.395508,40 Z M214.636719,37.4072266 C214.636719,36.4469353 214.903643,35.7356794 215.4375,35.2734375 C215.883466,34.889321 216.42708,34.6972656 217.068359,34.6972656 C217.781254,34.6972656 218.36393,34.9308245 218.816406,35.3979492 C219.268882,35.865074 219.495117,36.5104125 219.495117,37.3339844 C219.495117,38.0013054 219.395021,38.5262025 219.194824,38.9086914 C218.994628,39.2911803 218.70329,39.5882151 218.320801,39.7998047 C217.938312,40.0113943 217.520836,40.1171875 217.068359,40.1171875 C216.342444,40.1171875 215.755699,39.8844424 215.308105,39.4189453 C214.860512,38.9534482 214.636719,38.282882 214.636719,37.4072266 Z M215.540039,37.4072266 C215.540039,38.0712924 215.684894,38.5685205 215.974609,38.8989258 C216.264324,39.2293311 216.628904,39.3945312 217.068359,39.3945312 C217.504559,39.3945312 217.867512,39.2285173 218.157227,38.8964844 C218.446942,38.5644515 218.591797,38.0582716 218.591797,37.3779297 C218.591797,36.7366504 218.446128,36.2508155 218.154785,35.9204102 C217.863443,35.5900049 217.501304,35.4248047 217.068359,35.4248047 C216.628904,35.4248047 216.264324,35.5891911 215.974609,35.9179688 C215.684894,36.2467464 215.540039,36.7431607 215.540039,37.4072266 Z M220.515625,40 L220.515625,34.8144531 L221.306641,34.8144531 L221.306641,35.6005859 C221.508465,35.2327456 221.694823,34.990235 221.865723,34.8730469 C222.036622,34.7558588 222.224608,34.6972656 222.429688,34.6972656 C222.725913,34.6972656 223.027017,34.7916657 223.333008,34.9804688 L223.030273,35.7958984 C222.815429,35.6689447 222.600587,35.6054688 222.385742,35.6054688 C222.193684,35.6054688 222.02116,35.6632481 221.868164,35.7788086 C221.715169,35.8943691 221.60612,36.0546865 221.541016,36.2597656 C221.443359,36.5722672 221.394531,36.9140606 221.394531,37.2851562 L221.394531,40 L220.515625,40 Z M223.855469,40 L223.855469,34.8144531 L224.641602,34.8144531 L224.641602,35.5419922 C224.804363,35.2880847 225.020832,35.0838224 225.291016,34.9291992 C225.561199,34.774576 225.868813,34.6972656 226.213867,34.6972656 C226.597984,34.6972656 226.912922,34.7770174 227.158691,34.9365234 C227.404461,35.0960294 227.577799,35.319009 227.678711,35.6054688 C228.088869,34.999997 228.622718,34.6972656 229.280273,34.6972656 C229.794599,34.6972656 230.190103,34.8396796 230.466797,35.1245117 C230.743491,35.4093439 230.881836,35.8479788 230.881836,36.4404297 L230.881836,40 L230.007812,40 L230.007812,36.7333984 C230.007812,36.3818342 229.97933,36.1287443 229.922363,35.9741211 C229.865397,35.8194979 229.762045,35.6949875 229.612305,35.6005859 C229.462564,35.5061844 229.286785,35.4589844 229.084961,35.4589844 C228.720376,35.4589844 228.417644,35.5802397 228.176758,35.8227539 C227.935871,36.0652681 227.81543,36.4534479 227.81543,36.9873047 L227.81543,40 L226.936523,40 L226.936523,36.6308594 C226.936523,36.2402324 226.86491,35.9472666 226.72168,35.7519531 C226.57845,35.5566396 226.344077,35.4589844 226.018555,35.4589844 C225.771158,35.4589844 225.542482,35.5240879 225.33252,35.6542969 C225.122558,35.7845059 224.970378,35.9749336 224.875977,36.2255859 C224.781575,36.4762382 224.734375,36.8375627 224.734375,37.3095703 L224.734375,40 L223.855469,40 Z" id="BIGDATAEducationLaboratoryPlatform" fill="#FFFFFF" fill-rule="nonzero"></path>
                            <g id="logo" fill="#4C87FB">
                                <path d="M33.157215,17.5143 L17.67682,2.22213 C17.417925,1.96533 16.997925,1.96533 16.73896,2.22213 L1.25958,17.5143 C1.001735,17.7711 1.001735,18.18402 1.25958,18.44007 L5.890745,23.01447 C5.987345,23.09958 6.436185,23.43429 6.87883,22.94829 C6.88387,22.94241 6.885935,22.94241 6.894195,22.93704 L11.538765,18.34449 C11.797625,18.09075 12.21773,18.09075 12.47764,18.34449 L22.442455,28.19064 C22.58837,28.30002 22.97246,28.5144 23.36166,28.12167 L33.157215,18.44007 C33.41597,18.18402 33.41597,17.7711 33.157215,17.5143 Z" id="形状-357-拷贝"></path>
                                <path d="M32.5318,29.89527 L33.157215,30.51132 C33.41597,30.7671 33.41597,31.18107 33.157215,31.43787 L33.157215,31.43787 L17.67682,46.73001 C17.417925,46.98579 16.997925,46.98579 16.73896,46.73001 L16.73896,46.73001 L16.11561,46.11291 L32.5318,29.89527 Z M30.344055,27.73299 L31.423455,28.80162 L15.01045,45.02106 L13.92888,43.9527 L30.344055,27.73299 Z M27.723815,26.00181 C27.98369,25.78053 28.374045,25.78872 28.62146,26.03325 L28.62146,26.03325 L29.030365,26.43597 L29.235675,26.64192 L12.824735,42.85983 L11.74005,41.79123 Z M20.81044,28.51032 L21.653625,29.34027 C21.727545,29.43147 21.82117,29.61213 21.639205,29.82141 C21.631085,29.83035 21.629125,29.8365 21.6209,29.84568 L21.6209,29.84568 L10.634925,40.69938 L9.55241,39.63075 L20.81044,28.51032 Z M18.623815,26.3478 L19.70423,27.41538 L8.44816,38.53686 L7.366695,37.46748 L18.623815,26.3478 Z M16.43705,24.18528 L17.516485,25.25697 L6.262585,36.37743 L5.179965,35.30703 L16.43705,24.18528 Z M14.248255,22.02279 L15.32972,23.09445 L4.07274,34.21413 L2.99222,33.14655 L14.248255,22.02279 Z M11.760665,20.13855 C11.81607,20.08284 12.035905,19.88685 12.29578,20.10915 C12.31524,20.12628 12.33162,20.13855 12.350135,20.14773 L12.350135,20.14773 L13.141975,20.93118 L1.88706,32.0547 L1.25958,31.43787 C1.001735,31.18107 1.001735,30.7671 1.25958,30.51132 L1.25958,30.51132 L11.744075,20.15286 C11.744075,20.15361 11.75244,20.14773 11.756535,20.14341 L11.756535,20.14341 Z" id="Combined-shape-1077"></path>
                            </g>
                        </g>
                    </g>
                </g>
            </g>
        </g>
    </g>
</svg>